<svg xmlns="http://www.w3.org/2000/svg" viewBox="0 0 298.66 102.19"><defs><style>.cls-1{fill:#f18517;}.cls-2,.cls-4{fill:none;stroke-miterlimit:10;}.cls-2{stroke:#300f0c;}.cls-3{fill:#300f0c;}.cls-4{stroke:#b22117;}</style></defs><title>p1</title><g id="Calque_2" data-name="Calque 2"><g id="plat"><path class="cls-1" d="M290.67,34.42v26a25.15,25.15,0,0,1-25.14,25.15H32.39A25.16,25.16,0,0,1,7.25,60.38v-26A24.87,24.87,0,0,1,9.4,24.23a25.18,25.18,0,0,1,23-14.95H265.53a25.13,25.13,0,0,1,22.55,14A24.86,24.86,0,0,1,290.61,33c0,.47.06,1,.06,1.46"/><path class="cls-2" d="M290.67,34.42v26a25.15,25.15,0,0,1-25.14,25.15H32.39A25.16,25.16,0,0,1,7.25,60.38v-26A24.87,24.87,0,0,1,9.4,24.23a25.18,25.18,0,0,1,23-14.95H265.53a25.13,25.13,0,0,1,22.55,14A24.86,24.86,0,0,1,290.61,33C290.65,33.43,290.67,33.93,290.67,34.42Z"/><polygon class="cls-3" points="249.99 61.05 186.9 88.65 218.44 96.88 259.58 78.97 259.58 61.05 249.99 61.05"/><polygon class="cls-4" points="249.99 61.05 186.9 88.65 218.44 96.88 259.58 78.97 259.58 61.05 249.99 61.05"/><polygon class="cls-3" points="153.42 37.13 185.15 27.76 190.63 45.67 167.32 45.67 153.42 37.13"/><polygon class="cls-4" points="153.42 37.13 185.15 27.76 190.63 45.67 167.32 45.67 153.42 37.13"/><path class="cls-3" d="M51.82,63.58,20.27,77.3H13.8A25,25,0,0,1,7.24,60.38V52.61H32.62Z"/><path class="cls-4" d="M51.82,63.58,20.27,77.3H13.8A25,25,0,0,1,7.24,60.38V52.61H32.62Z"/><polygon class="cls-3" points="196.12 52.61 196.12 36.71 207.09 36.71 234.13 52.61 234.13 64.95 196.12 52.61"/><polygon class="cls-4" points="196.12 52.61 196.12 36.71 207.09 36.71 234.13 52.61 234.13 64.95 196.12 52.61"/><polygon class="cls-3" points="298.15 30.61 298.15 45.99 279.64 54.82 251.3 54.82 251.3 39.54 281.47 35.41 298.15 30.61"/><polygon class="cls-4" points="298.15 30.61 298.15 45.99 279.64 54.82 251.3 54.82 251.3 39.54 281.47 35.41 298.15 30.61"/><polygon class="cls-3" points="210.9 64.95 199.93 77.3 229.19 79.58 232.38 69.98 210.9 64.95"/><polygon class="cls-4" points="210.9 64.95 199.93 77.3 229.19 79.58 232.38 69.98 210.9 64.95"/><polygon class="cls-3" points="190.33 17.41 146.67 30.63 142.79 25.64 150.56 15.58 172.98 9.28 181.83 9.28 190.33 17.41"/><polygon class="cls-4" points="190.33 17.41 146.67 30.63 142.79 25.64 150.56 15.58 172.98 9.28 181.83 9.28 190.33 17.41"/><polygon class="cls-3" points="121.53 20.9 108.73 32.53 93.64 36.69 71.24 25.26 85.42 17.49 99.07 11.18 106.27 11.18 121.53 20.9"/><polygon class="cls-4" points="121.53 20.9 108.73 32.53 93.64 36.69 71.24 25.26 85.42 17.49 99.07 11.18 106.27 11.18 121.53 20.9"/><polygon class="cls-3" points="151.57 11.18 142.79 20.9 133.64 20.9 121.05 11.18 151.57 11.18"/><polygon class="cls-4" points="151.57 11.18 142.79 20.9 133.64 20.9 121.05 11.18 151.57 11.18"/><polygon class="cls-3" points="223.24 19.39 206.79 27.16 194.44 27.16 190.82 13.09 219.95 13.09 223.24 19.39"/><polygon class="cls-4" points="223.24 19.39 206.79 27.16 194.44 27.16 190.82 13.09 219.95 13.09 223.24 19.39"/><path class="cls-3" d="M82.23,9.28,77,15.35,29.42,27.76l-11-6.69V13.51a25.05,25.05,0,0,1,14-4.23Z"/><path class="cls-4" d="M82.23,9.28,77,15.35,29.42,27.76l-11-6.69V13.51a25.05,25.05,0,0,1,14-4.23Z"/><polygon class="cls-3" points="26.45 30.63 29.53 47.4 47.02 52.61 68.27 50.84 82.23 41.62 72.39 30.63 51.82 27.76 26.45 30.63"/><polygon class="cls-4" points="26.45 30.63 29.53 47.4 47.02 52.61 68.27 50.84 82.23 41.62 72.39 30.63 51.82 27.76 26.45 30.63"/><polygon class="cls-3" points="247.01 8.64 203.36 21.86 199.47 16.87 207.24 6.81 229.66 0.51 238.52 0.51 247.01 8.64"/><polygon class="cls-4" points="247.01 8.64 203.36 21.86 199.47 16.87 207.24 6.81 229.66 0.51 238.52 0.51 247.01 8.64"/><path class="cls-3" d="M142.58,38l-6.4,2.1-26.91,5-18.84-10,9-3.74,23.32-3.07,18.2,4.32A12.36,12.36,0,0,1,142.58,38"/><path class="cls-4" d="M142.58,38l-6.4,2.1-26.91,5-18.84-10,9-3.74,23.32-3.07,18.2,4.32A12.36,12.36,0,0,1,142.58,38Z"/><path class="cls-3" d="M182.71,17.89l-7.64,3.75-32.14,9L120.42,12.69,131.14,6,159,.52l21.73,7.71a30.63,30.63,0,0,1,2,9.66"/><path class="cls-4" d="M182.71,17.89l-7.64,3.75-32.14,9L120.42,12.69,131.14,6,159,.52l21.73,7.71A30.63,30.63,0,0,1,182.71,17.89Z"/><polygon class="cls-3" points="260.86 12.11 262.65 23.32 272.77 26.81 285.07 25.62 293.15 19.46 287.45 12.11 275.54 10.19 260.86 12.11"/><polygon class="cls-4" points="260.86 12.11 262.65 23.32 272.77 26.81 285.07 25.62 293.15 19.46 287.45 12.11 275.54 10.19 260.86 12.11"/><polygon class="cls-3" points="91.13 1.96 80.16 14.31 109.41 16.59 112.61 7 91.13 1.96"/><polygon class="cls-4" points="91.13 1.96 80.16 14.31 109.41 16.59 112.61 7 91.13 1.96"/><polygon class="cls-3" points="142.79 73.23 146.52 87.17 167.69 91.5 193.41 90.02 210.32 82.37 198.4 73.23 173.49 70.84 142.79 73.23"/><polygon class="cls-4" points="142.79 73.23 146.52 87.17 167.69 91.5 193.41 90.02 210.32 82.37 198.4 73.23 173.49 70.84 142.79 73.23"/><polygon class="cls-3" points="91.46 75.97 94.55 92.75 112.04 97.95 133.29 96.18 147.25 86.96 137.41 75.97 116.83 73.1 91.46 75.97"/><polygon class="cls-4" points="91.46 75.97 94.55 92.75 112.04 97.95 133.29 96.18 147.25 86.96 137.41 75.97 116.83 73.1 91.46 75.97"/><polygon class="cls-3" points="11.64 73.13 13.62 94.9 24.83 101.66 38.47 99.35 47.42 87.39 41.1 73.13 27.91 69.39 11.64 73.13"/><polygon class="cls-4" points="11.64 73.13 13.62 94.9 24.83 101.66 38.47 99.35 47.42 87.39 41.1 73.13 27.91 69.39 11.64 73.13"/><polygon class="cls-3" points="285.23 68.85 259.87 72.32 252.62 81.63 256.12 92.03 270.64 97.93 286.96 91.76 290.55 81.18 285.23 68.85"/><polygon class="cls-4" points="285.23 68.85 259.87 72.32 252.62 81.63 256.12 92.03 270.64 97.93 286.96 91.76 290.55 81.18 285.23 68.85"/><polygon class="cls-3" points="190.17 3.87 179.2 16.21 208.46 18.5 211.66 8.9 190.17 3.87"/><polygon class="cls-4" points="190.17 3.87 179.2 16.21 208.46 18.5 211.66 8.9 190.17 3.87"/><polygon class="cls-3" points="131.98 27.21 68.89 54.81 100.44 63.04 141.58 45.13 141.58 27.21 131.98 27.21"/><polygon class="cls-4" points="131.98 27.21 68.89 54.81 100.44 63.04 141.58 45.13 141.58 27.21 131.98 27.21"/><path class="cls-3" d="M19.15,14.55l.05,5L15.92,39,1.3,47,.51,39.68l4-16.32,9.24-10a16.2,16.2,0,0,1,5.4,1.15"/><path class="cls-4" d="M19.15,14.55l.05,5L15.92,39,1.3,47,.51,39.68l4-16.32,9.24-10A16.2,16.2,0,0,1,19.15,14.55Z"/><path class="cls-3" d="M288.71,27.77l-9.77,2.63-41.15,6.29L209,24.12l13.71-4.69,35.66-3.85L286.17,21a13.55,13.55,0,0,1,2.54,6.77"/><path class="cls-4" d="M288.71,27.77l-9.77,2.63-41.15,6.29L209,24.12l13.71-4.69,35.66-3.85L286.17,21A13.55,13.55,0,0,1,288.71,27.77Z"/><polygon class="cls-3" points="145.76 45.67 151.79 49.55 173.53 50.88 187.93 60.13 179.7 69.39 139.59 64.25 135.47 57.53 145.76 45.67"/><polygon class="cls-4" points="145.76 45.67 151.79 49.55 173.53 50.88 187.93 60.13 179.7 69.39 139.59 64.25 135.47 57.53 145.76 45.67"/><polygon class="cls-3" points="99.36 69.98 124.5 59.01 130.44 64.5 133.64 72.27 111.7 77.3 99.36 69.98"/><polygon class="cls-4" points="99.36 69.98 124.5 59.01 130.44 64.5 133.64 72.27 111.7 77.3 99.36 69.98"/><polygon class="cls-3" points="94.33 79.58 76.79 85.53 55.19 85.53 37.64 79.58 61.87 61.49 87.02 68.16 94.33 79.58"/><polygon class="cls-4" points="94.33 79.58 76.79 85.53 55.19 85.53 37.64 79.58 61.87 61.49 87.02 68.16 94.33 79.58"/><path class="cls-3" d="M23,45.68l-15.77,1V34.42A24.71,24.71,0,0,1,9.4,24.23l9,6.4Z"/><path class="cls-4" d="M23,45.68l-15.77,1V34.42A24.71,24.71,0,0,1,9.4,24.23l9,6.4Z"/></g></g></svg>