<svg xmlns="http://www.w3.org/2000/svg" viewBox="0 0 761.69 208.21"><defs><style>.cls-1{fill:#f18517;}.cls-2,.cls-4{fill:none;}.cls-2{stroke:#300f0c;}.cls-2,.cls-4,.cls-5{stroke-miterlimit:10;}.cls-3,.cls-5{fill:#300f0c;}.cls-4,.cls-5{stroke:#b22117;}</style></defs><title>p2</title><g id="Calque_2" data-name="Calque 2"><g id="plat"><path class="cls-1" d="M734.8,70v53.18c0,28.44-28.49,51.5-63.63,51.5h-590c-18.66,0-35.43-6.48-47-16.85-10.32-9.14-16.58-21.31-16.58-34.65V70A42.82,42.82,0,0,1,23,49.1c4.91-9,12.92-16.59,22.89-22a74.48,74.48,0,0,1,35.29-8.66h590c25,0,46.71,11.7,57.07,28.71A43.66,43.66,0,0,1,734.65,67a29.74,29.74,0,0,1,.15,3"/><path class="cls-2" d="M734.8,70v53.18c0,28.44-28.49,51.5-63.63,51.5h-590c-18.66,0-35.43-6.48-47-16.85-10.32-9.14-16.58-21.31-16.58-34.65V70A42.82,42.82,0,0,1,23,49.1c4.91-9,12.92-16.59,22.89-22a74.48,74.48,0,0,1,35.29-8.66h590c25,0,46.71,11.7,57.07,28.71A43.66,43.66,0,0,1,734.65,67,29.74,29.74,0,0,1,734.8,70Z"/><polygon class="cls-3" points="631.84 124.52 472.19 181.05 552.02 197.9 656.13 161.21 656.13 124.52 631.84 124.52"/><polygon class="cls-4" points="631.84 124.52 472.19 181.05 552.02 197.9 656.13 161.21 656.13 124.52 631.84 124.52"/><polygon class="cls-5" points="387.47 75.52 467.76 56.32 481.64 93.01 422.64 93.01 387.47 75.52"/><path class="cls-3" d="M130.35,129.7,50.53,157.79H34.14c-10.31-9.13-16.58-21.3-16.58-34.64V107.23h64.2Z"/><path class="cls-4" d="M130.35,129.7,50.53,157.79H34.14c-10.31-9.13-16.58-21.3-16.58-34.64V107.23h64.2Z"/><polygon class="cls-5" points="498.6 89.94 503.12 57.69 530.62 61.54 593.86 103.29 590.36 128.33 498.6 89.94"/><polygon class="cls-3" points="753.74 62.16 753.74 93.66 706.89 111.76 635.16 111.76 635.16 80.45 711.52 72.01 753.74 62.16"/><polygon class="cls-4" points="753.74 62.16 753.74 93.66 706.89 111.76 635.16 111.76 635.16 80.45 711.52 72.01 753.74 62.16"/><polygon class="cls-3" points="532.93 132.51 505.17 157.79 579.2 162.48 587.3 142.81 532.93 132.51"/><polygon class="cls-4" points="532.93 132.51 505.17 157.79 579.2 162.48 587.3 142.81 532.93 132.51"/><polygon class="cls-3" points="480.87 35.13 370.39 62.2 360.56 51.98 380.23 31.38 436.96 18.47 459.38 18.47 480.87 35.13"/><polygon class="cls-4" points="480.87 35.13 370.39 62.2 360.56 51.98 380.23 31.38 436.96 18.47 459.38 18.47 480.87 35.13"/><polygon class="cls-3" points="306.77 42.27 274.38 66.11 236.2 74.61 179.51 51.2 215.38 35.28 249.94 22.37 268.16 22.37 306.77 42.27"/><polygon class="cls-4" points="306.77 42.27 274.38 66.11 236.2 74.61 179.51 51.2 215.38 35.28 249.94 22.37 268.16 22.37 306.77 42.27"/><polygon class="cls-3" points="382.78 22.37 360.56 42.27 337.42 42.27 305.56 22.37 382.78 22.37"/><polygon class="cls-4" points="382.78 22.37 360.56 42.27 337.42 42.27 305.56 22.37 382.78 22.37"/><polygon class="cls-5" points="535.6 120.7 506.77 131.72 485.14 131.72 478.8 111.76 529.83 111.76 535.6 120.7"/><path class="cls-3" d="M207.33,18.46,194,30.91,73.66,56.31,45.9,42.62V27.13a74.37,74.37,0,0,1,35.29-8.67Z"/><path class="cls-4" d="M207.33,18.46,194,30.91,73.66,56.31,45.9,42.62V27.13a74.37,74.37,0,0,1,35.29-8.67Z"/><polygon class="cls-3" points="66.15 62.2 73.95 96.56 118.2 107.23 172 103.59 207.33 84.72 182.41 62.2 130.35 56.31 66.15 62.2"/><polygon class="cls-4" points="66.15 62.2 73.95 96.56 118.2 107.23 172 103.59 207.33 84.72 182.41 62.2 130.35 56.31 66.15 62.2"/><polygon class="cls-3" points="624.32 17.16 513.84 44.24 504 34.01 523.68 13.41 580.4 0.5 602.82 0.5 624.32 17.16"/><polygon class="cls-4" points="624.32 17.16 513.84 44.24 504 34.01 523.68 13.41 580.4 0.5 602.82 0.5 624.32 17.16"/><path class="cls-5" d="M363.38,85.34l-16.17,4.3L279.09,99.91,231.41,79.38l22.7-7.65,59-6.28,46,8.83a22,22,0,0,1,4.19,11.06"/><path class="cls-3" d="M461.59,36.1l-19.32,7.68L360.92,62.16,304,25.45l27.12-13.7L401.59.51l55,15.81a52.62,52.62,0,0,1,5,19.78"/><path class="cls-4" d="M461.59,36.1l-19.32,7.68L360.92,62.16,304,25.45l27.12-13.7L401.59.51l55,15.81A52.62,52.62,0,0,1,461.59,36.1Z"/><polygon class="cls-3" points="659.36 24.27 663.88 47.24 689.49 54.37 720.62 51.94 741.07 39.32 726.65 24.27 696.52 20.33 659.36 24.27"/><polygon class="cls-4" points="659.36 24.27 663.88 47.24 689.49 54.37 720.62 51.94 741.07 39.32 726.65 24.27 696.52 20.33 659.36 24.27"/><polygon class="cls-3" points="229.84 3.48 202.07 28.77 276.12 33.45 284.21 13.78 229.84 3.48"/><polygon class="cls-4" points="229.84 3.48 202.07 28.77 276.12 33.45 284.21 13.78 229.84 3.48"/><polygon class="cls-3" points="360.56 149.47 370.01 178.02 423.57 186.89 488.68 183.86 531.45 168.18 501.29 149.47 438.27 144.57 360.56 149.47"/><polygon class="cls-4" points="360.56 149.47 370.01 178.02 423.57 186.89 488.68 183.86 531.45 168.18 501.29 149.47 438.27 144.57 360.56 149.47"/><polygon class="cls-3" points="230.68 155.08 238.49 189.44 282.74 200.11 336.53 196.47 371.86 177.59 346.94 155.08 294.89 149.19 230.68 155.08"/><polygon class="cls-4" points="230.68 155.08 238.49 189.44 282.74 200.11 336.53 196.47 371.86 177.59 346.94 155.08 294.89 149.19 230.68 155.08"/><polygon class="cls-3" points="700.22 113.26 703.59 149.85 722.67 161.21 745.87 157.33 761.11 137.23 750.36 113.26 727.91 106.98 700.22 113.26"/><polygon class="cls-4" points="700.22 113.26 703.59 149.85 722.67 161.21 745.87 157.33 761.11 137.23 750.36 113.26 727.91 106.98 700.22 113.26"/><polygon class="cls-3" points="28.68 149.25 33.69 193.85 62.07 207.7 96.57 202.97 119.23 178.47 103.25 149.25 69.86 141.6 28.68 149.25"/><polygon class="cls-4" points="28.68 149.25 33.69 193.85 62.07 207.7 96.57 202.97 119.23 178.47 103.25 149.25 69.86 141.6 28.68 149.25"/><polygon class="cls-3" points="721.02 140.5 656.86 147.59 638.5 166.67 647.36 187.97 684.1 200.06 725.4 187.42 734.5 165.74 721.02 140.5"/><polygon class="cls-4" points="721.02 140.5 656.86 147.59 638.5 166.67 647.36 187.97 684.1 200.06 725.4 187.42 734.5 165.74 721.02 140.5"/><polygon class="cls-3" points="480.48 7.38 452.71 32.67 526.75 37.35 534.85 17.68 480.48 7.38"/><polygon class="cls-4" points="480.48 7.38 452.71 32.67 526.75 37.35 534.85 17.68 480.48 7.38"/><polygon class="cls-5" points="278.54 103.16 167.81 103.99 213.54 131.45 285.72 131.02 293.55 108.34 278.54 103.16"/><path class="cls-3" d="M47.7,29.27l.12,10.21-8.3,39.81-37,16.45-2-15L10.65,47.31,34,26.9A49.21,49.21,0,0,1,47.7,29.27"/><path class="cls-4" d="M47.7,29.27l.12,10.21-8.3,39.81-37,16.45-2-15L10.65,47.31,34,26.9A49.21,49.21,0,0,1,47.7,29.27Z"/><path class="cls-3" d="M729.83,56.33,705.1,61.72,601,74.61,528.11,48.86l34.7-9.6L653,31.38l70.38,11.08a24.88,24.88,0,0,1,6.41,13.87"/><path class="cls-4" d="M729.83,56.33,705.1,61.72,601,74.61,528.11,48.86l34.7-9.6L653,31.38l70.38,11.08A24.88,24.88,0,0,1,729.83,56.33Z"/><polygon class="cls-3" points="368.08 93.01 383.34 100.94 438.36 103.67 474.8 122.64 453.98 141.6 352.46 131.07 342.05 117.31 368.08 93.01"/><polygon class="cls-4" points="368.08 93.01 383.34 100.94 438.36 103.67 474.8 122.64 453.98 141.6 352.46 131.07 342.05 117.31 368.08 93.01"/><polygon class="cls-3" points="250.66 142.81 314.29 120.34 329.33 131.57 337.42 147.49 281.9 157.79 250.66 142.81"/><polygon class="cls-4" points="250.66 142.81 314.29 120.34 329.33 131.57 337.42 147.49 281.9 157.79 250.66 142.81"/><polygon class="cls-3" points="237.94 162.47 193.54 174.65 138.88 174.65 94.49 162.47 155.8 125.41 219.43 139.06 237.94 162.47"/><polygon class="cls-4" points="237.94 162.47 193.54 174.65 138.88 174.65 94.49 162.47 155.8 125.41 219.43 139.06 237.94 162.47"/><path class="cls-3" d="M57.47,93l-39.91,2V70A42.92,42.92,0,0,1,23,49.1L45.9,62.2Z"/><path class="cls-4" d="M57.47,93l-39.91,2V70A42.92,42.92,0,0,1,23,49.1L45.9,62.2Z"/><path class="cls-5" d="M634.59,124.54l-39.91,2V101.48a42.81,42.81,0,0,1,5.44-20.87L623,93.72Z"/></g></g></svg>