<svg xmlns="http://www.w3.org/2000/svg" viewBox="0 0 1637.57 234.49"><defs><style>.cls-1{fill:#f18517;}.cls-2{fill:#300f0c;stroke:#b22117;stroke-miterlimit:10;stroke-width:2px;}</style></defs><title>p3</title><g id="Calque_2" data-name="Calque 2"><g id="plat"><rect class="cls-1" x="24.22" y="19.96" width="1590.5" height="196.97" rx="74.87"/><polygon class="cls-2" points="680.31 133.9 503.77 199.47 592.04 219.02 707.17 176.46 707.17 133.9 680.31 133.9"/><polygon class="cls-2" points="419.24 87.52 506.02 66.77 521.03 106.43 457.26 106.43 419.24 87.52"/><path class="cls-2" d="M125.75,139.91,37.48,172.5H19.36C8,161.91,1,147.79,1,132.31V113.84H72Z"/><polygon class="cls-2" points="554.19 112.18 554.19 76.98 584.2 76.98 658.15 112.18 658.15 139.51 554.19 112.18"/><polygon class="cls-2" points="815.11 73.09 815.11 107.13 764.47 126.69 686.96 126.69 686.96 92.85 769.48 83.73 815.11 73.09"/><polygon class="cls-2" points="539.81 122.12 509.81 149.45 589.83 154.51 598.58 133.25 539.81 122.12"/><polygon class="cls-2" points="634.4 191.12 604.39 218.45 684.41 223.51 693.16 202.25 634.4 191.12"/><polygon class="cls-2" points="520.2 43.87 400.79 73.14 390.16 62.08 411.42 39.82 472.74 25.86 496.96 25.86 520.2 43.87"/><polygon class="cls-2" points="520.2 43.87 400.79 73.14 390.16 62.08 411.42 39.82 472.74 25.86 496.96 25.86 520.2 43.87"/><polygon class="cls-2" points="332.02 51.59 297.01 77.35 255.76 86.54 194.49 61.24 233.25 44.04 270.6 30.08 290.3 30.08 332.02 51.59"/><polygon class="cls-2" points="332.02 51.59 297.01 77.35 255.76 86.54 194.49 61.24 233.25 44.04 270.6 30.08 290.3 30.08 332.02 51.59"/><polygon class="cls-2" points="414.18 30.08 390.16 51.59 365.15 51.59 330.72 30.08 414.18 30.08"/><polygon class="cls-2" points="414.18 30.08 390.16 51.59 365.15 51.59 330.72 30.08 414.18 30.08"/><polygon class="cls-2" points="610.22 48.26 565.21 65.46 531.45 65.46 521.55 34.29 601.21 34.29 610.22 48.26"/><polygon class="cls-2" points="610.22 48.26 565.21 65.46 531.45 65.46 521.55 34.29 601.21 34.29 610.22 48.26"/><path class="cls-2" d="M224.55,25.86,210.12,39.31l-130,27.45L50.08,52V35.22a80.52,80.52,0,0,1,38.14-9.36Z"/><path class="cls-2" d="M224.55,25.86,210.12,39.31l-130,27.45L50.08,52V35.22a80.52,80.52,0,0,1,38.14-9.36Z"/><polygon class="cls-2" points="71.96 73.14 80.4 110.27 128.22 121.8 186.36 117.86 224.55 97.47 197.62 73.14 141.35 66.77 71.96 73.14"/><polygon class="cls-2" points="675.23 24.45 555.83 53.72 545.2 42.66 566.46 20.4 627.77 6.45 652 6.45 675.23 24.45"/><polygon class="cls-2" points="675.23 24.45 555.83 53.72 545.2 42.66 566.46 20.4 627.77 6.45 652 6.45 675.23 24.45"/><path class="cls-2" d="M389.59,89.48l-17.48,4.64-73.62,11.11L247,83l24.54-8.27L335.29,68l49.77,9.55a23.76,23.76,0,0,1,4.53,12"/><path class="cls-2" d="M389.59,89.48l-17.48,4.64-73.62,11.11L247,83l24.54-8.27L335.29,68l49.77,9.55A23.76,23.76,0,0,1,389.59,89.48Z"/><path class="cls-2" d="M499.36,44.92l-20.88,8.31L390.55,73.09,329,33.41l29.31-14.8,76.2-12.15L494,23.54a56.86,56.86,0,0,1,5.41,21.38"/><path class="cls-2" d="M499.36,44.92l-20.88,8.31L390.55,73.09,329,33.41l29.31-14.8,76.2-12.15L494,23.54A56.86,56.86,0,0,1,499.36,44.92Z"/><polygon class="cls-2" points="713.1 32.13 717.99 56.96 745.67 64.67 779.32 62.04 801.42 48.4 785.83 32.13 753.27 27.87 713.1 32.13"/><polygon class="cls-2" points="713.1 32.13 717.99 56.96 745.67 64.67 779.32 62.04 801.42 48.4 785.83 32.13 753.27 27.87 713.1 32.13"/><polygon class="cls-2" points="248.88 9.67 218.87 37 298.89 42.05 307.64 20.8 248.88 9.67"/><polygon class="cls-2" points="248.88 9.67 218.87 37 298.89 42.05 307.64 20.8 248.88 9.67"/><polygon class="cls-2" points="380.32 186.17 390.77 219.29 450 229.57 522 226.06 569.29 207.87 535.94 186.17 466.26 180.49 380.32 186.17"/><polygon class="cls-2" points="249.79 173.52 258.23 210.65 306.05 222.18 364.19 218.25 402.38 197.85 375.44 173.52 319.18 167.15 249.79 173.52"/><polygon class="cls-2" points="249.79 173.52 258.23 210.65 306.05 222.18 364.19 218.25 402.38 197.85 375.44 173.52 319.18 167.15 249.79 173.52"/><polygon class="cls-2" points="13.32 162.59 18.86 214.32 50.24 230.38 88.39 224.9 113.45 196.49 95.78 162.59 58.85 153.71 13.32 162.59"/><polygon class="cls-2" points="779.75 157.76 710.4 165.42 690.56 186.04 700.13 209.06 739.84 222.13 784.48 208.47 794.31 185.03 779.75 157.76"/><polygon class="cls-2" points="779.75 157.76 710.4 165.42 690.56 186.04 700.13 209.06 739.84 222.13 784.48 208.47 794.31 185.03 779.75 157.76"/><polygon class="cls-2" points="519.77 13.89 489.76 41.21 569.78 46.27 578.53 25.02 519.77 13.89"/><polygon class="cls-2" points="519.77 13.89 489.76 41.21 569.78 46.27 578.53 25.02 519.77 13.89"/><polygon class="cls-2" points="360.61 65.57 188.06 126.67 274.34 144.88 386.86 105.22 386.86 65.57 360.61 65.57"/><path class="cls-2" d="M52,37.53l.13,11-9,43-40,17.78L1,93.16,12,57,37.25,35A53.41,53.41,0,0,1,52,37.53"/><path class="cls-2" d="M52,37.53l.13,11-9,43-40,17.78L1,93.16,12,57,37.25,35A53.41,53.41,0,0,1,52,37.53Z"/><path class="cls-2" d="M789.27,66.79l-26.73,5.83L650,86.54,571.25,58.72l37.51-10.38,97.52-8.52,76.06,12a26.91,26.91,0,0,1,6.93,15"/><polygon class="cls-2" points="388.64 97.35 405.52 106.55 466.36 109.72 506.66 131.72 483.63 153.71 371.37 141.49 359.85 125.53 388.64 97.35"/><polygon class="cls-2" points="271.38 160.26 340.15 135.96 356.41 148.11 365.16 165.31 305.14 176.45 271.38 160.26"/><polygon class="cls-2" points="244.72 177.93 195.63 192.05 135.18 192.05 86.09 177.93 153.9 134.93 224.25 150.77 244.72 177.93"/><path class="cls-2" d="M62.58,106.45l-43.13,2.19V81.53A46.3,46.3,0,0,1,25.33,59L50.08,73.13Z"/><path class="cls-2" d="M62.58,106.45l-43.13,2.19V81.53A46.3,46.3,0,0,1,25.33,59L50.08,73.13Z"/><polygon class="cls-2" points="1493.64 137.28 1317.11 202.85 1405.38 222.41 1520.51 179.84 1520.51 137.28 1493.64 137.28"/><polygon class="cls-2" points="1232.58 90.91 1319.36 70.16 1334.37 109.81 1270.6 109.81 1232.58 90.91"/><polygon class="cls-2" points="1351.81 126.95 1351.81 91.76 1381.82 91.76 1455.77 126.95 1455.77 154.28 1351.81 126.95"/><polygon class="cls-2" points="1628.45 76.47 1628.45 110.51 1577.81 130.07 1500.29 130.07 1500.29 96.23 1582.81 87.11 1628.45 76.47"/><polygon class="cls-2" points="1389.8 152.5 1359.79 179.83 1439.81 184.89 1448.56 163.64 1389.8 152.5"/><polygon class="cls-2" points="1389.8 152.5 1359.79 179.83 1439.81 184.89 1448.56 163.64 1389.8 152.5"/><polygon class="cls-2" points="1333.53 47.25 1214.13 76.52 1203.5 65.47 1224.75 43.2 1286.07 29.25 1310.3 29.25 1333.53 47.25"/><polygon class="cls-2" points="1333.53 47.25 1214.13 76.52 1203.5 65.47 1224.75 43.2 1286.07 29.25 1310.3 29.25 1333.53 47.25"/><polygon class="cls-2" points="1145.36 54.97 1110.35 80.73 1069.1 89.93 1007.82 64.62 1046.59 47.42 1083.94 33.46 1103.63 33.46 1145.36 54.97"/><polygon class="cls-2" points="1145.36 54.97 1110.35 80.73 1069.1 89.93 1007.82 64.62 1046.59 47.42 1083.94 33.46 1103.63 33.46 1145.36 54.97"/><polygon class="cls-2" points="1227.52 33.46 1203.5 54.97 1178.49 54.97 1144.06 33.46 1227.52 33.46"/><polygon class="cls-2" points="1227.52 33.46 1203.5 54.97 1178.49 54.97 1144.06 33.46 1227.52 33.46"/><polygon class="cls-2" points="1423.55 51.64 1378.55 68.84 1344.79 68.84 1334.89 37.68 1414.54 37.68 1423.55 51.64"/><polygon class="cls-2" points="1404.12 63.84 1359.12 81.04 1325.36 81.04 1315.46 49.88 1395.11 49.88 1404.12 63.84"/><path class="cls-2" d="M1037.89,29.24,1023.46,42.7l-130,27.45-30-14.8V38.6a80.48,80.48,0,0,1,38.13-9.36Z"/><path class="cls-2" d="M1037.89,29.24,1023.46,42.7l-130,27.45-30-14.8V38.6a80.48,80.48,0,0,1,38.13-9.36Z"/><polygon class="cls-2" points="885.3 76.52 893.74 113.65 941.56 125.18 999.7 121.25 1037.89 100.85 1010.95 76.52 954.69 70.15 885.3 76.52"/><polygon class="cls-2" points="1488.57 27.83 1369.16 57.1 1358.53 46.05 1379.8 23.78 1441.11 9.83 1465.33 9.83 1488.57 27.83"/><polygon class="cls-2" points="1488.57 27.83 1369.16 57.1 1358.53 46.05 1379.8 23.78 1441.11 9.83 1465.33 9.83 1488.57 27.83"/><path class="cls-2" d="M1202.93,92.86l-17.49,4.65-73.61,11.1-51.54-22.19,24.54-8.27,63.8-6.79,49.76,9.55a23.86,23.86,0,0,1,4.54,12"/><path class="cls-2" d="M1202.93,92.86l-17.49,4.65-73.61,11.1-51.54-22.19,24.54-8.27,63.8-6.79,49.76,9.55A23.86,23.86,0,0,1,1202.93,92.86Z"/><path class="cls-2" d="M1312.7,48.3l-20.89,8.31-87.93,19.86-61.54-39.68L1171.65,22l76.2-12.15,59.43,17.08a56.92,56.92,0,0,1,5.42,21.38"/><path class="cls-2" d="M1312.7,48.3l-20.89,8.31-87.93,19.86-61.54-39.68L1171.65,22l76.2-12.15,59.43,17.08A56.92,56.92,0,0,1,1312.7,48.3Z"/><polygon class="cls-2" points="1526.44 35.52 1531.33 60.34 1559.01 68.05 1592.65 65.42 1614.76 51.79 1599.17 35.52 1566.6 31.26 1526.44 35.52"/><polygon class="cls-2" points="1526.44 35.52 1531.33 60.34 1559.01 68.05 1592.65 65.42 1614.76 51.79 1599.17 35.52 1566.6 31.26 1526.44 35.52"/><polygon class="cls-2" points="1062.22 13.05 1032.2 40.38 1112.23 45.44 1120.98 24.18 1062.22 13.05"/><polygon class="cls-2" points="1062.22 13.05 1032.2 40.38 1112.23 45.44 1120.98 24.18 1062.22 13.05"/><polygon class="cls-2" points="1193.66 166.22 1204.11 199.34 1263.34 209.63 1335.34 206.11 1382.63 187.93 1349.28 166.22 1279.6 160.54 1193.66 166.22"/><polygon class="cls-2" points="1063.13 176.9 1071.57 214.03 1119.39 225.56 1177.53 221.63 1215.72 201.23 1188.78 176.9 1132.52 170.53 1063.13 176.9"/><polygon class="cls-2" points="1063.13 176.9 1071.57 214.03 1119.39 225.56 1177.53 221.63 1215.72 201.23 1188.78 176.9 1132.52 170.53 1063.13 176.9"/><polygon class="cls-2" points="1570.6 131.69 1574.24 171.24 1594.87 183.52 1619.94 179.33 1636.41 157.61 1624.8 131.69 1600.53 124.91 1570.6 131.69"/><polygon class="cls-2" points="1570.6 131.69 1574.24 171.24 1594.87 183.52 1619.94 179.33 1636.41 157.61 1624.8 131.69 1600.53 124.91 1570.6 131.69"/><polygon class="cls-2" points="826.5 131.08 832.04 182.81 863.42 198.88 901.57 193.4 926.63 164.98 908.96 131.08 872.03 122.21 826.5 131.08"/><polygon class="cls-2" points="1593.09 161.14 1523.74 168.8 1503.89 189.43 1513.47 212.44 1553.18 225.51 1597.82 211.85 1607.65 188.41 1593.09 161.14"/><polygon class="cls-2" points="1593.09 161.14 1523.74 168.8 1503.89 189.43 1513.47 212.44 1553.18 225.51 1597.82 211.85 1607.65 188.41 1593.09 161.14"/><polygon class="cls-2" points="1333.11 1.07 1303.1 28.4 1383.12 33.46 1391.87 12.21 1333.11 1.07"/><polygon class="cls-2" points="708.81 13.05 678.81 40.38 758.83 45.44 767.58 24.18 708.81 13.05"/><polygon class="cls-2" points="1173.94 68.95 1001.4 130.05 1087.67 148.26 1200.2 108.61 1200.2 68.95 1173.94 68.95"/><path class="cls-2" d="M1602.61,70.17,1575.88,76,1463.35,89.93,1384.58,62.1l37.51-10.38,97.52-8.52,76.07,12a26.94,26.94,0,0,1,6.93,15"/><polygon class="cls-2" points="1201.98 100.73 1218.85 109.94 1279.69 113.1 1319.99 135.1 1296.96 157.09 1184.7 144.88 1173.19 128.92 1201.98 100.73"/><polygon class="cls-2" points="1084.72 163.64 1153.49 139.35 1169.74 151.49 1178.49 168.7 1118.48 179.83 1084.72 163.64"/><polygon class="cls-2" points="1058.06 181.31 1008.96 195.43 948.52 195.43 899.43 181.31 967.23 138.32 1037.59 154.15 1058.06 181.31"/><path class="cls-2" d="M864.93,74.23l-43.14,2.19V49.31a46.31,46.31,0,0,1,5.89-22.56l24.74,14.17Z"/><polygon class="cls-2" points="718.49 147.31 787.26 123.02 803.51 135.16 812.26 152.37 752.25 163.5 718.49 147.31"/><polygon class="cls-2" points="771.71 110.29 858.49 89.54 873.5 129.2 809.73 129.2 771.71 110.29"/><polygon class="cls-2" points="876.57 23.12 757.16 52.39 746.53 41.34 767.79 19.07 829.11 5.12 853.33 5.12 876.57 23.12"/><polygon class="cls-2" points="891.3 34.38 978.08 13.63 993.09 53.29 929.32 53.29 891.3 34.38"/><polygon class="cls-2" points="1036.11 165.49 895.17 217.84 965.65 233.45 1057.56 199.47 1057.56 165.49 1036.11 165.49"/><polygon class="cls-2" points="755.3 194.36 762.04 224.01 800.22 233.21 846.63 230.07 877.12 213.79 855.62 194.36 810.7 189.28 755.3 194.36"/><polygon class="cls-2" points="134.73 215.3 203.5 191 219.76 203.15 228.51 220.36 168.49 231.49 134.73 215.3"/><polygon class="cls-2" points="405.2 158.68 491.98 137.93 506.99 177.58 443.22 177.58 405.2 158.68"/><path class="cls-2" d="M1488.65,100.54l-17.49,4.65-73.61,11.1L1346,94.1l24.54-8.27,63.8-6.79,49.77,9.55A23.76,23.76,0,0,1,1488.65,100.54Z"/></g></g></svg>