<?xml version="1.0" encoding="UTF-8" standalone="no"?>
<!-- Created with Inkscape (http://www.inkscape.org/) -->

<svg
   xmlns:dc="http://purl.org/dc/elements/1.1/"
   xmlns:cc="http://creativecommons.org/ns#"
   xmlns:rdf="http://www.w3.org/1999/02/22-rdf-syntax-ns#"
   xmlns:svg="http://www.w3.org/2000/svg"
   xmlns="http://www.w3.org/2000/svg"
   xmlns:xlink="http://www.w3.org/1999/xlink"
   xmlns:sodipodi="http://sodipodi.sourceforge.net/DTD/sodipodi-0.dtd"
   xmlns:inkscape="http://www.inkscape.org/namespaces/inkscape"
   width="1280"
   height="720"
   viewBox="0 0 338.66666 190.50001"
   version="1.1"
   id="svg8"
   inkscape:version="0.92.4 (5da689c313, 2019-01-14)"
   sodipodi:docname="savate_combi.svg">
  <defs
     id="defs2">
    <linearGradient
       inkscape:collect="always"
       id="linearGradient1018">
      <stop
         style="stop-color:#000000;stop-opacity:1;"
         offset="0"
         id="stop1014" />
      <stop
         style="stop-color:#000000;stop-opacity:0;"
         offset="1"
         id="stop1016" />
    </linearGradient>
    <linearGradient
       inkscape:collect="always"
       xlink:href="#linearGradient1018"
       id="linearGradient1020"
       x1="106.13572"
       y1="123.24269"
       x2="113.35342"
       y2="125.13586"
       gradientUnits="userSpaceOnUse" />
  </defs>
  <sodipodi:namedview
     id="base"
     pagecolor="#ffffff"
     bordercolor="#666666"
     borderopacity="1.0"
     inkscape:pageopacity="0.0"
     inkscape:pageshadow="2"
     inkscape:zoom="6.3246773"
     inkscape:cx="446.47249"
     inkscape:cy="521.41408"
     inkscape:document-units="px"
     inkscape:current-layer="layer1"
     showgrid="false"
     units="px"
     inkscape:snap-nodes="false"
     inkscape:snap-global="false"
     inkscape:window-width="1920"
     inkscape:window-height="1017"
     inkscape:window-x="-8"
     inkscape:window-y="-8"
     inkscape:window-maximized="1" />
  <metadata
     id="metadata5">
    <rdf:RDF>
      <cc:Work
         rdf:about="">
        <dc:format>image/svg+xml</dc:format>
        <dc:type
           rdf:resource="http://purl.org/dc/dcmitype/StillImage" />
        <dc:title></dc:title>
      </cc:Work>
    </rdf:RDF>
  </metadata>
  <g
     inkscape:label="Calque 1"
     inkscape:groupmode="layer"
     id="layer1"
     transform="translate(0,-106.49999)">
    <rect
       style="opacity:1;fill:#999999;fill-opacity:1;stroke:#000000;stroke-width:0.21802345;stroke-linecap:round;stroke-linejoin:round;stroke-miterlimit:4;stroke-dasharray:none;stroke-dashoffset:0;stroke-opacity:1"
       id="rect914"
       width="4.456924"
       height="10.203218"
       x="107.81976"
       y="127.12672"
       ry="1.243343" />
    <path
       style="fill:#ff0000;fill-opacity:1;stroke:none;stroke-width:0.26458335px;stroke-linecap:butt;stroke-linejoin:miter;stroke-opacity:1"
       d="m 101.52112,159.27204 17.57096,-23.90124 c -0.6798,-0.89675 -1.4579,-1.77669 -3.03535,-2.28379 -3.83597,-1.23312 -9.98883,-1.01026 -13.07631,1.32067 -0.74103,0.55945 -1.08246,1.21246 -1.42972,2.02802 z"
       id="path1054"
       inkscape:connector-curvature="0"
       sodipodi:nodetypes="ccsscc" />
    <path
       style="fill:#ff5d01;fill-opacity:1;stroke:none;stroke-width:0.26458335px;stroke-linecap:butt;stroke-linejoin:miter;stroke-opacity:1"
       d="m 119.15605,135.30931 c -5.75466,7.53563 -11.76259,15.9577 -17.64388,23.93655 5.18755,0.32418 12.91104,0.19695 17.67093,-0.0337 z"
       id="path1054-3"
       inkscape:connector-curvature="0"
       sodipodi:nodetypes="cccc" />
    <rect
       style="opacity:1;fill:#999999;fill-opacity:1;stroke:#000000;stroke-width:0.15985192;stroke-linecap:round;stroke-linejoin:round;stroke-miterlimit:4;stroke-dasharray:none;stroke-dashoffset:0;stroke-opacity:1"
       id="rect916"
       width="14.003163"
       height="4.1141911"
       x="128.6377"
       y="137.52113"
       ry="0.92183113" />
    <path
       style="opacity:1;fill:#999999;fill-opacity:1;stroke:#000000;stroke-width:0.25852033;stroke-linecap:round;stroke-linejoin:round;stroke-miterlimit:4;stroke-dasharray:none;stroke-dashoffset:0;stroke-opacity:1"
       id="path918"
       sodipodi:type="arc"
       sodipodi:cx="142.98921"
       sodipodi:cy="139.51143"
       sodipodi:rx="3.4777439"
       sodipodi:ry="3.8118312"
       sodipodi:start="0"
       sodipodi:end="6.2520312"
       sodipodi:open="true"
       d="m 146.46696,139.51143 a 3.4777439,3.8118312 0 0 1 -3.45066,3.81171 3.4777439,3.8118312 0 0 1 -3.50441,-3.75234 3.4777439,3.8118312 0 0 1 3.39607,-3.87016 3.4777439,3.8118312 0 0 1 3.55731,3.69205" />
    <rect
       style="opacity:1;fill:#999999;fill-opacity:1;stroke:#000000;stroke-width:0.36100873;stroke-linecap:round;stroke-linejoin:round;stroke-miterlimit:4;stroke-dasharray:none;stroke-dashoffset:0;stroke-opacity:1"
       id="rect880"
       width="5.1011639"
       height="20.787176"
       x="104.41773"
       y="160.12651"
       ry="2.5847111" />
    <rect
       style="opacity:1;fill:#999999;fill-opacity:1;stroke:#000000;stroke-width:0.36100873;stroke-linecap:round;stroke-linejoin:round;stroke-miterlimit:4;stroke-dasharray:none;stroke-dashoffset:0;stroke-opacity:1"
       id="rect880-9"
       width="5.1011639"
       height="20.787176"
       x="111.73019"
       y="160.00819"
       ry="2.5847111" />
    <path
       style="fill:#2a2fb5;fill-opacity:1;stroke:#000000;stroke-width:0.25839341px;stroke-linecap:butt;stroke-linejoin:miter;stroke-opacity:1"
       d="m 66.907825,132.58361 c -0.576616,3.33394 -0.655201,8.22161 -0.861638,11.23648 -0.226871,1.67202 -7.065892,2.09434 -7.610903,-0.84645 -0.525741,-2.83681 -3.014855,-16.80781 1.830577,-19.59226 10.040232,-5.76967 7.113451,6.47613 6.641964,9.20223 z"
       id="path817-0"
       inkscape:connector-curvature="0"
       sodipodi:nodetypes="scsss" />
    <path
       sodipodi:nodetypes="ccc"
       style="fill:none;stroke:#000000;stroke-width:0.25839341px;stroke-linecap:round;stroke-linejoin:round;stroke-opacity:1"
       d="m 62.679778,128.70106 -4.800914,6.23119 z"
       id="path819-6"
       inkscape:connector-curvature="0" />
    <path
       sodipodi:nodetypes="ccc"
       style="fill:none;stroke:#000000;stroke-width:0.25799999;stroke-linecap:round;stroke-linejoin:round;stroke-miterlimit:4;stroke-dasharray:none;stroke-dashoffset:0;stroke-opacity:1"
       d="m 62.679778,128.67744 3.032199,6.39477 z"
       id="path821-1"
       inkscape:connector-curvature="0" />
    <path
       style="fill:none;stroke:#000000;stroke-width:0.26458335px;stroke-linecap:round;stroke-linejoin:round;stroke-opacity:1"
       d="m 62.69958,128.6938 0.20172,-3.58306"
       id="path867"
       inkscape:connector-curvature="0"
       sodipodi:nodetypes="cc" />
    <path
       style="opacity:1;fill:#999999;fill-opacity:1;stroke:#000000;stroke-width:0.26731059;stroke-linecap:round;stroke-linejoin:round;stroke-miterlimit:4;stroke-dasharray:none;stroke-dashoffset:0;stroke-opacity:1"
       id="path878"
       sodipodi:type="arc"
       sodipodi:cx="110.35673"
       sodipodi:cy="159.24892"
       sodipodi:rx="8.8137541"
       sodipodi:ry="5.3381085"
       sodipodi:start="0"
       sodipodi:end="3.1415927"
       sodipodi:open="true"
       d="m 119.17048,159.24892 a 8.8137541,5.3381085 0 0 1 -4.40688,4.62293 8.8137541,5.3381085 0 0 1 -8.81375,0 8.8137541,5.3381085 0 0 1 -4.40688,-4.62293" />
    <path
       style="fill:none;fill-opacity:1;stroke:#000000;stroke-width:0.24116473px;stroke-linecap:butt;stroke-linejoin:miter;stroke-opacity:1"
       d="m 119.18213,159.30561 c 0,0 0.1569,-20.61509 0.0393,-23.02649 -0.005,-5.62131 -17.6462,-5.18967 -17.69005,0.47283 -0.19613,3.2152 0,22.55366 0,22.55366 5.88585,-0.0617 11.75724,-0.0495 17.65078,0 z"
       id="path876"
       inkscape:connector-curvature="0"
       sodipodi:nodetypes="ccccc" />
    <rect
       style="opacity:1;fill:#999999;fill-opacity:1;stroke:#000000;stroke-width:0.15985192;stroke-linecap:round;stroke-linejoin:round;stroke-miterlimit:4;stroke-dasharray:none;stroke-dashoffset:0;stroke-opacity:1"
       id="rect916-5"
       width="14.003163"
       height="4.1141911"
       x="128.83813"
       y="147.27647"
       ry="0.92183113" />
    <path
       style="opacity:1;fill:#999999;fill-opacity:1;stroke:#000000;stroke-width:0.26499999;stroke-linecap:round;stroke-linejoin:round;stroke-miterlimit:4;stroke-dasharray:none;stroke-dashoffset:0;stroke-opacity:1"
       id="path918-1"
       sodipodi:type="arc"
       sodipodi:cx="143.18965"
       sodipodi:cy="149.06631"
       sodipodi:rx="3.4745038"
       sodipodi:ry="4.0090432"
       sodipodi:start="0"
       sodipodi:end="6.2520312"
       sodipodi:open="true"
       d="m 146.66416,149.06631 a 3.4745038,4.0090432 0 0 1 -3.44745,4.00893 3.4745038,4.0090432 0 0 1 -3.50114,-3.94648 3.4745038,4.0090432 0 0 1 3.39291,-4.07039 3.4745038,4.0090432 0 0 1 3.55399,3.88307" />
    <path
       style="opacity:1;fill:#999999;fill-opacity:1;stroke:#000000;stroke-width:0.25931275;stroke-linecap:round;stroke-linejoin:round;stroke-miterlimit:4;stroke-dasharray:none;stroke-dashoffset:0;stroke-opacity:1"
       id="path981"
       sodipodi:type="arc"
       sodipodi:cx="109.99811"
       sodipodi:cy="124.19353"
       sodipodi:rx="5.4317565"
       sodipodi:ry="6.634469"
       sodipodi:start="0"
       sodipodi:end="6.2725563"
       sodipodi:open="true"
       d="m 115.42986,124.19353 a 5.4317565,6.634469 0 0 1 -5.41732,6.63444 5.4317565,6.634469 0 0 1 -5.44611,-6.59918 5.4317565,6.634469 0 0 1 5.38838,-6.66952 5.4317565,6.634469 0 0 1 5.47475,6.56374" />
    <path
       style="fill:url(#linearGradient1020);stroke:#000000;stroke-width:0.26458335px;stroke-linecap:butt;stroke-linejoin:miter;stroke-opacity:1;fill-opacity:1"
       d="m 113.76754,121.67492 c -1.72298,-1.80428 -5.70331,-1.83614 -7.48392,-0.0887 -1.01342,0.99455 -0.0296,4.25963 -0.0296,4.25963 l 3.72815,1.72722 3.63745,-1.57932 c 0,0 1.14273,-3.27708 0.14792,-4.31883 z"
       id="path993"
       inkscape:connector-curvature="0"
       sodipodi:nodetypes="sscccs" />
    <path
       style="opacity:1;fill:#000000;fill-opacity:1;stroke:none;stroke-width:0.20408589;stroke-linecap:round;stroke-linejoin:round;stroke-miterlimit:4;stroke-dasharray:none;stroke-dashoffset:0;stroke-opacity:1"
       id="path995"
       sodipodi:type="arc"
       sodipodi:cx="143.02289"
       sodipodi:cy="139.48253"
       sodipodi:rx="2.9876554"
       sodipodi:ry="3.3426242"
       sodipodi:start="0"
       sodipodi:end="6.2725563"
       sodipodi:open="true"
       d="m 146.01054,139.48253 a 2.9876554,3.3426242 0 0 1 -2.97971,3.34261 2.9876554,3.3426242 0 0 1 -2.99556,-3.32485 2.9876554,3.3426242 0 0 1 2.9638,-3.36028 2.9876554,3.3426242 0 0 1 3.0113,3.30699" />
    <path
       style="opacity:1;fill:#000000;fill-opacity:1;stroke:none;stroke-width:0.20294721;stroke-linecap:round;stroke-linejoin:round;stroke-miterlimit:4;stroke-dasharray:none;stroke-dashoffset:0;stroke-opacity:1"
       id="path995-9"
       sodipodi:type="arc"
       sodipodi:cx="143.17081"
       sodipodi:cy="148.94836"
       sodipodi:rx="2.928494"
       sodipodi:ry="3.372205"
       sodipodi:start="0"
       sodipodi:end="6.2725563"
       sodipodi:open="true"
       d="m 146.0993,148.94836 a 2.928494,3.372205 0 0 1 -2.92071,3.3722 2.928494,3.372205 0 0 1 -2.93624,-3.35427 2.928494,3.372205 0 0 1 2.90511,-3.39002 2.928494,3.372205 0 0 1 2.95168,3.33625" />
  </g>
</svg>
