<?xml version="1.0" encoding="UTF-8" standalone="no"?>
<!-- Created with Inkscape (http://www.inkscape.org/) -->

<svg
   xmlns:dc="http://purl.org/dc/elements/1.1/"
   xmlns:cc="http://creativecommons.org/ns#"
   xmlns:rdf="http://www.w3.org/1999/02/22-rdf-syntax-ns#"
   xmlns:svg="http://www.w3.org/2000/svg"
   xmlns="http://www.w3.org/2000/svg"
   xmlns:sodipodi="http://sodipodi.sourceforge.net/DTD/sodipodi-0.dtd"
   xmlns:inkscape="http://www.inkscape.org/namespaces/inkscape"
   width="1920"
   height="1080"
   viewBox="0 0 507.99999 285.75001"
   version="1.1"
   id="svg8"
   inkscape:version="0.92.3 (2405546, 2018-03-11)"
   sodipodi:docname="Arbre.svg">
  <defs
     id="defs2">
    <filter
       inkscape:collect="always"
       style="color-interpolation-filters:sRGB"
       id="filter1037"
       x="-0.1275"
       width="1.255"
       y="-0.51000003"
       height="2.0200001">
      <feGaussianBlur
         inkscape:collect="always"
         stdDeviation="2.7261494"
         id="feGaussianBlur1039" />
    </filter>
  </defs>
  <sodipodi:namedview
     id="base"
     pagecolor="#ffffff"
     bordercolor="#666666"
     borderopacity="1.0"
     inkscape:pageopacity="0.0"
     inkscape:pageshadow="2"
     inkscape:zoom="0.49497475"
     inkscape:cx="457.54596"
     inkscape:cy="749.34041"
     inkscape:document-units="px"
     inkscape:current-layer="layer1"
     showgrid="false"
     units="px"
     inkscape:window-width="1920"
     inkscape:window-height="1186"
     inkscape:window-x="-11"
     inkscape:window-y="-11"
     inkscape:window-maximized="1" />
  <metadata
     id="metadata5">
    <rdf:RDF>
      <cc:Work
         rdf:about="">
        <dc:format>image/svg+xml</dc:format>
        <dc:type
           rdf:resource="http://purl.org/dc/dcmitype/StillImage" />
        <dc:title></dc:title>
      </cc:Work>
    </rdf:RDF>
  </metadata>
  <g
     inkscape:label="Calque 1"
     inkscape:groupmode="layer"
     id="layer1"
     transform="translate(0,-11.249992)">
    <g
       id="g953"
       transform="translate(-7.5595239,-22.678572)">
      <ellipse
         ry="20.221727"
         rx="80.886909"
         cy="275.26639"
         cx="227.91965"
         id="path935"
         style="fill:#00ff00;fill-opacity:1;stroke:none;stroke-width:0.5291667;stroke-linejoin:miter;stroke-miterlimit:4;stroke-dasharray:none;stroke-dashoffset:0;stroke-opacity:1" />
      <ellipse
         style="fill:#ccff00;fill-opacity:1;stroke:none;stroke-width:0.38080221;stroke-linejoin:miter;stroke-miterlimit:4;stroke-dasharray:none;stroke-dashoffset:0;stroke-opacity:1"
         id="ellipse937"
         cx="227.91965"
         cy="275.26639"
         rx="58.20834"
         ry="14.552085" />
      <ellipse
         ry="11.906252"
         rx="47.625008"
         cy="275.26639"
         cx="227.91965"
         id="ellipse939"
         style="fill:#aad400;fill-opacity:1;stroke:none;stroke-width:0.31156546;stroke-linejoin:miter;stroke-miterlimit:4;stroke-dasharray:none;stroke-dashoffset:0;stroke-opacity:1" />
      <ellipse
         style="fill:#88aa00;fill-opacity:1;stroke:none;stroke-width:0.22254677;stroke-linejoin:miter;stroke-miterlimit:4;stroke-dasharray:none;stroke-dashoffset:0;stroke-opacity:1"
         id="ellipse941"
         cx="227.91965"
         cy="275.26639"
         rx="34.017864"
         ry="8.5044661" />
      <ellipse
         ry="5.4806566"
         rx="21.922626"
         cy="275.26639"
         cx="227.91965"
         id="ellipse943"
         style="fill:#668000;fill-opacity:1;stroke:none;stroke-width:0.14341904;stroke-linejoin:miter;stroke-miterlimit:4;stroke-dasharray:none;stroke-dashoffset:0;stroke-opacity:1" />
      <ellipse
         style="fill:#445500;fill-opacity:1;stroke:none;stroke-width:0.07418229;stroke-linejoin:miter;stroke-miterlimit:4;stroke-dasharray:none;stroke-dashoffset:0;stroke-opacity:1"
         id="ellipse945"
         cx="227.91965"
         cy="275.26639"
         rx="11.339293"
         ry="2.8348234" />
    </g>
    <path
       style="fill:#784421;stroke:none;stroke-width:1px;stroke-linecap:butt;stroke-linejoin:miter;stroke-opacity:1"
       d="m 590,215.71484 c 0,0 -0.71429,0.26674 -2.5,2.00782 1.4587,-1.17935 2.5,-2.00782 2.5,-2.00782 z m -2.5,2.00782 c -15.78148,12.75913 -108.68766,90.33144 -106.07227,146.5625 2.84647,61.19922 33.03435,111.95218 266.24527,250.99424 -25.73046,143.02762 35.19614,295.01552 35.19614,295.01552 l 127.2793,-2.01953 c 0,0 -96.97643,-62.63172 -66.67188,-187.89062 12.3924,-51.22182 13.6327,-119.32603 10.77344,-181.95118 36.66943,6.00117 129.39667,4.27717 188.6074,-35.57617 77.1428,-71.42853 91.4278,-177.14258 91.4278,-177.14258 0,0 -76.5441,239.02092 -283.00786,165.05469 -5.3557,-68.8832 -13.86132,-121.91601 -13.86132,-121.91601 l -101.01563,22.22265 c 0,0 23.85063,0.0935 9.41602,169.8418 C 551.27077,455.43213 488.21629,389.41695 532.85742,305.71484 567.14314,241.42913 582.14286,222.94587 587.5,217.72266 Z"
       transform="matrix(0.26458334,0,0,0.26458334,0,11.249992)"
       id="path815"
       inkscape:connector-curvature="0"
       sodipodi:nodetypes="ccccscccscccccccsc" />
    <path
       style="fill:#542d13;fill-opacity:1;stroke:none;stroke-width:1px;stroke-linecap:butt;stroke-linejoin:miter;stroke-opacity:1"
       d="m 837.41602,368.85352 -18.59961,4.09179 c -0.068,17.88138 -0.0116,35.65324 0.41797,43.38477 1.01015,18.18274 -18.7998,114.16431 3.03041,148.49229 31.82715,50.04817 -46.72718,231.59265 40.42857,344.20693 l 47.45508,-0.75391 c 0,0 -93.94597,-61.62157 -63.64142,-186.88047 11.96169,-49.44153 10.4891,-115.60875 8.01251,-176.39883 -5.16996,-6.80401 -10.98656,-11.44777 -22.1543,-16.53906 -21.88433,-9.97689 18.91211,-37.6875 18.91211,-37.6875 -5.3557,-68.8832 -13.86132,-121.91601 -13.86132,-121.91601 z"
       transform="matrix(0.26458334,0,0,0.26458334,0,11.249992)"
       id="path889"
       inkscape:connector-curvature="0"
       sodipodi:nodetypes="ccssccscscc" />
    <ellipse
       style="fill:#000000;fill-opacity:0.43402779;stroke:none;stroke-width:0.5291667;stroke-linejoin:miter;stroke-miterlimit:4;stroke-dasharray:none;stroke-dashoffset:0;stroke-opacity:1;filter:url(#filter1037)"
       id="path955"
       cx="221.83372"
       cy="252.09871"
       rx="25.657877"
       ry="6.4144688" />
    <path
       style="fill:#00ff00;stroke:none;stroke-width:1px;stroke-linecap:butt;stroke-linejoin:miter;stroke-opacity:1"
       d="M 429.96875 266.61914 C 429.27824 266.82707 428.53841 266.93319 427.87891 267.20898 C 426.34431 267.85073 424.89028 268.67697 423.49414 269.67969 C 422.098 270.68241 420.75977 271.86217 419.46094 273.2168 C 419.09437 273.59911 418.74959 274.09988 418.38867 274.50977 C 421.71013 271.96428 425.52722 269.15827 429.96875 266.61914 z "
       id="path850"
       transform="matrix(0.26458334,0,0,0.26458334,0,11.249992)" />
    <path
       style="fill:#542d13;stroke:none;stroke-width:0.26458335px;stroke-linecap:butt;stroke-linejoin:miter;stroke-opacity:1;fill-opacity:1"
       d="m 218.89375,150.5363 c 0,0 2.13816,-3.20724 4.54358,-2.93997 2.40543,0.26727 11.22532,5.07812 14.16529,4.00904 2.93996,-1.06907 13.11472,-1.26085 17.8825,-2.75097 4.95676,0.68323 8.9315,1.17021 1.3822,3.27064 -7.5493,2.10044 -27.23738,2.5231 -30.77569,3.32184 -3.53831,0.79873 -7.19788,-4.91058 -7.19788,-4.91058 z"
       id="path892"
       inkscape:connector-curvature="0"
       sodipodi:nodetypes="cscczzc" />
    <path
       style="fill:#00cd00;stroke:none;stroke-width:1px;stroke-linecap:butt;stroke-linejoin:miter;stroke-opacity:1;fill-opacity:1"
       d="M 1207.2246 362.7832 C 1206.436 362.94186 1205.5767 363.26854 1204.7988 363.39258 C 1201.4394 363.92829 1198.1641 364.15234 1194.8242 364.15234 C 1191.4844 364.15234 1188.0809 363.92941 1184.4648 363.57227 C 1177.2327 362.85798 1169.1526 361.60658 1159.041 360.53516 C 1153.9852 359.99944 1148.4205 359.50949 1142.2012 359.15234 C 1135.9819 358.7952 1129.1063 358.57227 1121.4277 358.57227 C 1113.7492 358.57227 1107.4774 358.39314 1102.2988 358.0332 C 1097.1203 357.67327 1093.036 357.1317 1089.7324 356.40625 C 1088.0806 356.04353 1086.6244 355.63484 1085.3242 355.17969 C 1084.024 354.72454 1082.8803 354.2221 1081.8535 353.67383 C 1080.8267 353.12556 1079.9155 352.53076 1079.084 351.88867 C 1078.2525 351.24658 1077.4994 350.55887 1076.7852 349.82227 C 1073.928 346.87584 1071.697 343.1702 1067.5898 338.68359 C 1065.5363 336.44029 1063.0125 334.00195 1059.709 331.36523 C 1058.0572 330.04687 1056.2104 328.67753 1054.1289 327.25977 C 1052.0474 325.84201 1049.7319 324.37528 1047.1426 322.85742 C 1044.5533 321.33957 1042.2537 319.89913 1040.2207 318.52148 C 1038.1877 317.14383 1036.4213 315.82812 1034.8965 314.55859 C 1033.3716 313.28906 1032.0882 312.06655 1031.0234 310.87305 C 1029.9586 309.67955 1029.1119 308.51479 1028.459 307.36523 C 1027.8061 306.21568 1027.3477 305.08105 1027.0586 303.94336 C 1026.7695 302.80566 1026.6512 301.66574 1026.6777 300.50781 C 1026.7042 299.34989 1026.8759 298.17313 1027.1699 296.96289 C 1027.4639 295.75265 1027.8792 294.50949 1028.3926 293.21484 C 1029.4194 290.62556 1030.8376 287.83426 1032.4531 284.71484 C 1034.0686 281.59542 1035.882 278.14648 1037.7012 274.24023 C 1039.5204 270.33398 1041.3446 265.97126 1042.9824 261.02148 C 1043.8013 258.5466 1044.574 255.92453 1045.2754 253.14062 C 1045.9768 250.35672 1046.6069 247.41016 1047.1426 244.28516 C 1048.214 238.03516 1048.9057 232.81306 1049.2656 228.39062 C 1049.6256 223.96819 1049.6532 220.3457 1049.3965 217.29883 C 1049.2681 215.77539 1049.0694 214.39516 1048.8047 213.13086 C 1048.54 211.86656 1048.2095 210.71791 1047.8203 209.65625 C 1047.0418 207.53292 1046.0276 205.75921 1044.8223 204.10742 C 1043.6169 202.45564 1042.221 200.92718 1040.6836 199.29492 C 1039.1462 197.66267 1037.466 195.92606 1035.6914 193.86133 C 1033.9168 191.7966 1032.0477 189.40234 1030.1309 186.45312 C 1028.214 183.50391 1026.2494 180.00056 1024.2852 175.71484 C 1023.303 173.57199 1022.2273 171.59612 1021.0586 169.77344 C 1019.8899 167.95075 1018.6283 166.27986 1017.2793 164.74805 C 1015.9302 163.21624 1014.4938 161.82296 1012.9707 160.55273 C 1011.4476 159.28251 1009.8373 158.1356 1008.1465 157.09766 C 1006.4556 156.05971 1004.6824 155.13184 1002.8301 154.29688 C 1000.9777 153.46191 999.0466 152.71987 997.03906 152.05859 C 995.03153 151.39732 992.94943 150.81571 990.79297 150.29883 C 988.63651 149.78195 986.40653 149.32952 984.10742 148.92773 C 979.50921 148.12416 974.63114 147.52288 969.5 147.00391 C 964.36886 146.48493 958.98493 146.04883 953.37109 145.58008 C 947.75726 145.11133 941.9135 144.60993 935.86719 143.95703 C 929.82087 143.30413 923.57115 142.49916 917.14258 141.42773 C 910.71401 140.35631 904.9548 139.46345 899.75391 138.77148 C 894.55301 138.07952 889.91127 137.59012 885.71484 137.32227 C 881.51842 137.05441 877.76869 137.00809 874.35352 137.20898 C 870.93834 137.40988 867.85714 137.85798 865 138.57227 C 862.14286 139.28655 859.50865 140.26869 856.98633 141.54102 C 854.46401 142.81334 852.05329 144.375 849.64258 146.25 C 847.23186 148.125 844.82115 150.31166 842.29883 152.83398 C 839.77651 155.35631 837.1423 158.21345 834.28516 161.42773 C 831.42801 164.64202 829.03962 167.50084 827 170.0957 C 824.96038 172.69057 823.27065 175.02232 821.80859 177.1875 C 818.88449 181.51786 816.87584 185.17773 814.82227 188.92773 C 812.76869 192.67773 810.66908 196.51758 807.56641 201.20508 C 806.01507 203.54883 804.21261 206.10407 802.03906 208.9668 C 799.86552 211.82952 797.32087 215.00084 794.28516 218.57227 C 791.24944 222.14369 788.28181 225.26786 785.34375 228.00781 C 782.40569 230.74777 779.49693 233.10352 776.58398 235.13477 C 773.67104 237.16602 770.75335 238.87305 767.79297 240.31836 C 764.83259 241.76367 761.83036 242.94559 758.75 243.92773 C 755.66964 244.90988 752.51116 245.69224 749.23828 246.33398 C 745.9654 246.97573 742.57896 247.47824 739.04102 247.90234 C 731.96513 248.75056 724.28626 249.28571 715.71484 250 C 711.42913 250.35714 707.34375 250.40123 703.41797 250.18359 C 699.49219 249.96596 695.72573 249.48689 692.07617 248.79492 C 688.42662 248.10296 684.89453 247.19866 681.4375 246.13281 C 677.98047 245.06696 674.59822 243.83929 671.25 242.5 C 664.55357 239.82143 657.99191 236.69699 651.22852 233.52734 C 647.84682 231.94252 644.41462 230.34598 640.89062 228.78906 C 637.36663 227.23214 633.75 225.71373 630 224.28516 C 626.25 222.85659 622.77246 221.68226 619.4668 220.79297 C 616.16113 219.90367 613.02734 219.29962 609.96094 219.00977 C 608.42773 218.86484 606.91223 218.79824 605.40039 218.81445 C 603.88855 218.83067 602.37939 218.93035 600.86328 219.11523 C 597.83105 219.485 594.76562 220.19951 591.5625 221.28906 C 588.35938 222.37861 585.01855 223.84339 581.43945 225.71289 C 577.86035 227.58239 574.04297 229.85678 569.88281 232.56641 C 565.72266 235.27603 561.21973 238.42133 556.27344 242.03125 C 551.32715 245.64117 545.9375 249.71478 540 254.28516 C 534.0625 258.85554 528.85059 262.72965 524.19727 265.98242 C 519.54394 269.2352 515.44866 271.86655 511.74609 273.95117 C 508.04353 276.0358 504.73368 277.57469 501.64844 278.64062 C 500.10582 279.17359 498.61877 279.58822 497.16797 279.89453 C 495.71716 280.20085 494.30301 280.39775 492.90234 280.49609 C 491.50167 280.59444 490.11487 280.59485 488.72266 280.50391 C 487.33044 280.41296 485.93129 280.23225 484.50586 279.9707 C 481.655 279.44761 478.69671 278.60123 475.46289 277.50781 C 468.99526 275.32097 461.42773 272.14369 451.42773 268.57227 C 448.92774 267.67941 446.58949 266.98584 444.39258 266.49023 C 442.19566 265.99463 440.14007 265.69531 438.20508 265.58789 C 437.39082 265.54269 436.67931 265.67096 435.90625 265.69336 C 441.17255 274.71417 400.73033 350.51366 440 365.71484 C 484.28571 382.85768 545.71513 441.42941 578.57227 418.57227 C 611.42944 395.71512 642.85799 389.99917 668.57227 411.42773 C 694.28655 432.85633 754.97266 419.64844 754.97266 419.64844 C 754.97266 419.64844 804.01197 399.71791 834.28516 410 C 864.55834 420.28209 864.286 394.28657 912.85742 418.57227 C 961.42885 442.858 958.57114 424.28518 967.14258 414.28516 C 975.71402 404.28517 961.42854 409.99914 980 431.42773 C 998.57139 452.85629 950.00003 552.85657 1000 554.28516 C 1050 555.71374 1108.5714 549.99888 1092.8574 521.42773 C 1077.1434 492.85658 1168.5711 507.14342 1177.1426 495.71484 C 1177.1426 495.71484 1227.1422 424.28572 1214.2852 420 C 1205.9628 417.22589 1206.149 385.50626 1207.2246 362.7832 z "
       id="path848"
       transform="matrix(0.26458334,0,0,0.26458334,0,11.249992)" />
    <path
       style="fill:#00ff00;stroke:none;stroke-width:1px;stroke-linecap:butt;stroke-linejoin:miter;stroke-opacity:1"
       d="m 837.09766,27.117188 c -40.50782,-0.57129 -77.1875,7.435545 -92.8125,34.310546 -35.71427,61.428566 -64.28572,45.715686 -90,24.28711 -25.71428,-21.428572 -85.714,-11.429681 -87.14258,8.570312 -1.42855,20.000004 0.001,41.429414 -18.57031,28.572264 -18.57143,-12.85714 -41.42969,-61.429131 -41.42969,-15.71484 0,45.71428 24.28518,40.00056 -15.71485,55.71484 C 451.42775,178.57171 381.42859,158.57198 380,195.71484 c -1.42859,37.14285 28.57115,100.71289 28.57115,100.71289 13.0333,27.15274 19.4966,22.08659 31.24609,13.08204 0.36092,-0.40989 0.7057,-0.91066 1.07227,-1.29297 1.29883,-1.35463 2.63706,-2.53439 4.0332,-3.53711 1.39614,-1.00272 2.85017,-1.82896 4.38477,-2.47071 0.6595,-0.27579 1.39933,-0.38191 2.08984,-0.58984 0.51254,-0.29301 0.92753,-0.62085 1.45898,-0.9043 2.42712,-1.29446 3.80584,-1.17374 4.47852,-0.0215 0.77306,-0.0224 1.48457,-0.15067 2.29883,-0.10547 1.93499,0.10742 3.99058,0.40674 6.1875,0.90234 2.19691,0.49561 -14.42383,0.12893 -14.39342,-32.91796 10,3.57142 17.56753,6.7487 24.03516,8.93554 3.23382,1.09342 6.19211,1.9398 9.04297,2.46289 1.42543,0.26155 2.82458,0.44226 4.2168,0.53321 1.39221,0.0909 2.77901,0.0905 4.17968,-0.008 1.40067,-0.0983 2.81482,-0.29524 4.26563,-0.60156 1.4508,-0.30631 2.93785,-0.72094 4.48047,-1.25391 3.08524,-1.06593 6.39509,-2.60482 10.09765,-4.68945 3.70257,-2.08462 14.94071,18.85546 19.59404,15.60268 4.65332,-3.25277 -3.34906,-16.76974 2.58844,-21.34012 5.9375,-4.57038 17.39858,-22.57256 22.34487,-26.18248 4.94629,-3.60992 9.44922,-6.75522 13.60937,-9.46484 4.16016,-2.70963 7.97754,-4.98402 11.55664,-6.85352 3.5791,-1.8695 6.91993,-3.33428 10.12305,-4.42383 3.20312,-1.08955 6.26855,-1.80406 9.30078,-2.17383 1.51611,-0.18488 3.02527,-0.28456 4.53711,-0.30078 1.51184,-0.0162 3.02734,0.0504 4.56055,0.19532 3.0664,0.28985 6.20019,0.8939 9.50586,1.7832 3.30566,0.88929 6.7832,2.06362 10.5332,3.49219 3.75,1.42857 7.36663,2.94698 10.89062,4.5039 3.524,1.55692 -11.97237,8.5106 -7.87639,19.73828 11.76339,19.24108 14.39648,18.0798 21.09291,20.75837 3.34822,1.33929 18.15904,-12.43304 21.61607,-11.36719 3.45703,1.06585 12.70341,-9.81556 16.35296,-9.1236 3.64956,0.69197 7.41602,1.17104 11.3418,1.38867 3.92578,0.21764 8.01116,0.17355 12.29687,-0.18359 8.57142,-0.71429 16.25029,-1.24944 23.32618,-2.09766 3.53794,-0.4241 6.92438,-0.92661 10.19726,-1.56836 3.27288,-0.64174 6.43136,-1.4241 9.51172,-2.40625 3.08036,-0.98214 6.08259,-2.16406 9.04297,-3.60937 2.96038,-1.44531 5.87807,-3.15234 8.79101,-5.18359 2.91295,-2.03125 5.82171,-4.387 8.75977,-7.12696 2.93806,-2.73995 13.04855,4.85017 16.08427,1.27875 3.03571,-3.57143 5.58036,-6.74275 7.7539,-9.60547 2.17355,-2.86273 3.97601,-5.41797 5.52735,-7.76172 3.10267,-4.6875 21.27371,16.82979 23.32729,13.07979 2.05357,-3.75 12.63364,-3.83844 15.55774,-8.1688 1.46206,-2.16518 9.22322,-18.06836 11.26284,-20.66323 2.03962,-2.59486 -13.78627,-7.59654 -10.92912,-10.81083 2.85714,-3.21428 -9.15151,-9.2857 -6.62919,-11.80803 2.52232,-2.52232 4.93303,-4.70898 7.34375,-6.58398 2.41071,-1.875 4.82143,-3.43666 7.34375,-4.70898 2.52232,-1.27233 5.15653,-2.25447 8.01367,-2.96875 2.85714,-0.71429 5.93834,-1.16239 9.35352,-1.36329 3.41517,-0.20089 7.1649,-0.15457 11.36132,0.11329 4.19643,0.26785 8.83817,0.75725 14.03907,1.44921 5.20089,0.69197 10.9601,1.58483 17.38867,2.65625 6.42857,1.07143 -9.12312,23.91915 -3.77539,26.81501 20.33202,11.01004 29.03293,-24.20284 34.64676,-23.73409 5.61384,0.46875 -5.13114,-0.51898 0,0 5.13114,0.51897 2.92383,6.47265 7.52204,7.27622 2.29911,0.40179 14.17195,-8.78864 16.32841,-8.27176 2.15646,0.51688 4.23856,1.09849 6.24609,1.75976 -1.56389,11.01842 3.93864,1.40332 5.79104,2.23829 1.8523,0.83496 -13.25558,22.68452 -11.56468,23.72247 1.6908,1.03794 15.95338,0.9401 17.47648,2.21032 1.5231,1.27023 -3.82624,11.59209 -2.47714,13.1239 1.349,1.53181 11.89631,-7.51159 13.06501,-5.6889 1.1687,1.82268 13.3158,-2.63002 14.298,-0.48717 1.9642,4.28572 8.5148,-17.60216 10.4317,-14.65295 1.9168,2.94922 3.7859,5.34348 5.5605,7.40821 1.7746,2.06473 3.4548,3.80134 4.9922,5.43359 1.5374,1.63226 2.9333,3.16072 4.1387,4.8125 1.2053,1.65179 2.2195,3.4255 2.998,5.54883 0.3892,1.06166 0.7197,2.21031 0.9844,3.47461 0.2647,1.2643 0.4634,2.64453 0.5918,4.16797 0.2567,3.04687 0.2291,6.66936 -0.1309,11.09179 -0.3599,4.42244 -1.0516,9.64454 -2.123,15.89454 -0.5357,3.125 -1.1658,6.07156 -1.8672,8.85546 -0.7014,2.78391 -1.4741,5.40598 -2.293,7.88086 -1.6378,4.94978 -3.462,9.3125 -5.2812,13.21875 -1.8192,3.90625 -3.6326,7.35519 -5.2481,10.47461 -1.6155,3.11942 -8.0845,-8.73649 -9.1113,-6.14721 -0.5134,1.29465 -8.4072,8.55566 7.7424,20.16303 1.0113,0.72688 -20.0374,-14.53306 -20.0639,-13.37514 -0.026,1.15793 0.8497,7.47488 1.1386,8.61258 0.2891,1.13769 -1.1386,-8.61258 -6.4283,3.80068 -3.8928,10.74601 8.5706,26.05291 9.6354,27.24641 1.0648,1.1935 6.8939,14.53784 19.5305,-10.4566 1.5248,1.26953 -3.7798,25.56621 -1.7468,26.94386 2.033,1.37765 11.4036,-20.16288 13.9929,-18.64503 2.5893,1.51786 4.9048,2.98459 6.9863,4.40235 2.0815,1.41776 3.9283,2.7871 5.5801,4.10546 3.3035,2.63672 5.8273,5.07506 7.8808,7.31836 4.1072,4.48661 -12.9475,24.62082 -10.0903,27.56725 0.7142,0.7366 12.0591,4.48347 12.8906,5.12556 0.8315,0.64209 1.9545,24.0053 2.7695,1.78516 0.043,-1.16323 3.8008,-0.24811 7.8789,2.73242 1.1122,0.81285 2.9154,6.51055 3.4093,3.283 3.3036,0.72545 19.8154,2.06772 24.9939,2.42765 5.1786,0.35994 4.3075,-23.03236 11.986,-23.03236 7.6786,0 12.4113,28.08007 18.6306,28.43721 6.2193,0.35715 46.0698,47.27567 51.1256,47.81139 10.1116,1.07142 -4.6655,-34.10575 2.5666,-33.39146 3.6161,0.35714 -2.2661,-37.27707 1.0737,-37.27707 3.3399,0 10.1866,26.20452 13.546,25.66881 0.7779,-0.12404 -1.9342,-26.87929 -1.1456,-27.03795 0.5861,-12.38182 1.3457,-22.7832 1.3457,-22.7832 0,0 5.7154,-58.57115 21.4297,-57.14258 15.7143,1.42857 41.4281,-44.28627 44.2852,-65.71484 2.8571,-21.42857 2.8581,-37.14258 -8.5704,-37.14258 -11.4286,0 -25.715,-1.42829 -18.5722,-17.14258 7.1429,-15.71428 5.715,-28.57226 -11.4278,-28.57226 -17.1428,0 -52.8586,15.71484 -54.2871,-4.28516 -1.4286,-20 -2.8572,-35.713453 -10,-51.427734 -7.1429,-15.714286 -4.2843,-32.85742 -25.7129,-12.857422 -21.4286,20.000001 -21.4293,44.284326 -48.5722,35.712886 -27.1428,-8.571424 -29.9989,-11.427448 -58.5703,-28.570308 C 1010.0009,55.714566 1025.7148,62.857144 975.71484,50 947.58984,42.767859 889.17913,27.851702 837.09766,27.117188 Z"
       id="path822"
       transform="matrix(0.26458334,0,0,0.26458334,0,11.249992)"
       inkscape:connector-curvature="0"
       sodipodi:nodetypes="ssscsssscccscccccccsccccccssssssccccsccssccccccscccsccccsccccccccssccsccccccccscccsccsscsscssccscscscccssscsscccscccssscsccsssss" />
    <path
       style="fill:#00cd00;fill-opacity:1;stroke:none;stroke-width:0.22068097px;stroke-linecap:butt;stroke-linejoin:miter;stroke-opacity:1"
       d="m 177.77339,65.253754 c 7.61718,2.788981 12.56166,3.718642 16.83798,3.160846 4.27631,-0.557796 11.22532,-3.811607 13.0962,-5.577962 1.87089,-1.766354 0.22929,0.564402 -1.50797,2.795588 -1.73725,2.231185 -6.24284,6.779913 -6.24284,6.779913 0,0 1.16356,1.82435 3.96989,3.125876 2.80633,1.301522 -7.08264,4.741266 -7.08264,4.741266 0,0 -8.68626,0.650762 -6.94901,-1.766354 1.73726,-2.417118 1.64277,-4.520367 1.10823,-4.89223 -0.53454,-0.371865 -5.95774,-3.210632 -5.95774,-3.210632 z"
       id="path894"
       inkscape:connector-curvature="0"
       sodipodi:nodetypes="cscccsccccc" />
    <path
       sodipodi:nodetypes="cscccsccccc"
       inkscape:connector-curvature="0"
       id="path896"
       d="m 285.34983,95.978747 c 5.2981,5.247013 9.25724,7.760223 13.48548,8.553403 4.22825,0.79318 12.48519,-0.29733 15.23391,-1.4934 2.74874,-1.19607 -0.1242,0.64494 -3.02556,2.35465 -2.90136,1.70971 -9.69514,4.88907 -9.69514,4.88907 0,0 -0.0163,2.2189 1.77379,4.42976 1.79014,2.21085 -9.25707,2.5558 -9.25707,2.5558 0,0 -8.30385,-2.09999 -5.29271,-3.99816 3.01114,-1.89817 4.16688,-4.06013 3.89909,-4.60689 -0.26778,-0.54676 -3.53614,-5.14722 -3.53614,-5.14722 z"
       style="fill:#00cd00;fill-opacity:1;stroke:none;stroke-width:0.23268712px;stroke-linecap:butt;stroke-linejoin:miter;stroke-opacity:1" />
    <path
       style="fill:#00cd00;fill-opacity:1;stroke:none;stroke-width:0.23268712px;stroke-linecap:butt;stroke-linejoin:miter;stroke-opacity:1"
       d="m 134.4641,64.333336 c 7.19952,1.94113 11.88348,2.168056 15.95089,0.766861 4.06742,-1.401199 10.70523,-6.431685 12.50305,-8.830411 1.79783,-2.398736 0.21093,0.621997 -1.4656,3.542656 -1.67653,2.920659 -6.00973,9.043339 -6.00973,9.043339 0,0 1.08296,1.936747 3.73207,2.973344 2.64915,1.036564 -6.78262,6.798638 -6.78262,6.798638 0,0 -8.25611,2.28047 -6.57734,-0.85828 1.67877,-3.13875 1.61437,-5.589395 1.11127,-5.932236 -0.5031,-0.342846 -5.61867,-2.725581 -5.61867,-2.725581 z"
       id="path898"
       inkscape:connector-curvature="0"
       sodipodi:nodetypes="cscccsccccc" />
    <path
       style="fill:#00cd00;fill-opacity:1;stroke:none;stroke-width:0.23268712px;stroke-linecap:butt;stroke-linejoin:miter;stroke-opacity:1"
       d="m 286.29477,61.015949 c 5.2981,5.247013 9.25724,7.760223 13.48548,8.553403 4.22825,0.79318 12.48519,-0.29733 15.23391,-1.4934 2.74874,-1.19607 -0.1242,0.64494 -3.02556,2.35465 -4.92491,2.523772 -9.09031,3.070694 -12.52442,2.702616 -3.4341,-0.368078 -11.00598,-5.305361 -13.16941,-12.117269 z"
       id="path900"
       inkscape:connector-curvature="0"
       sodipodi:nodetypes="cscczc" />
    <path
       sodipodi:nodetypes="cscczc"
       inkscape:connector-curvature="0"
       id="path902"
       d="m 211.37776,42.626858 c 7.0061,2.552592 11.65324,3.181163 15.82601,2.134657 4.17277,-1.046511 11.21828,-5.488015 13.21557,-7.723386 1.99731,-2.235379 0.15671,0.637823 -1.76459,3.403617 -3.41943,4.35105 -6.97504,6.588752 -10.24869,7.689566 -3.27365,1.100811 -12.21598,-0.220123 -17.0283,-5.504454 z"
       style="fill:#00cd00;fill-opacity:1;stroke:none;stroke-width:0.23268712px;stroke-linecap:butt;stroke-linejoin:miter;stroke-opacity:1" />
    <path
       style="fill:#78ff78;fill-opacity:1;stroke:none;stroke-width:1px;stroke-linecap:butt;stroke-linejoin:miter;stroke-opacity:1"
       d="M 513.01172 87.941406 C 509.37562 87.779152 507.14258 92.856862 507.14258 107.14258 C 507.14258 152.85686 531.42777 147.14314 491.42773 162.85742 C 451.42775 178.57171 381.42859 158.57198 380 195.71484 C 379.55118 207.38403 382.20617 221.66056 386.05664 235.75586 C 394.17834 223.24513 409.10034 212.7303 407.5957 205.20703 C 406.08045 197.63089 402.04105 188.53944 409.61719 185.00391 C 417.19336 181.46837 424.76959 181.46875 434.87109 181.46875 C 444.97264 181.46875 470.22661 187.53008 475.27734 188.03516 C 480.32812 188.54023 492.95433 192.07575 502.55078 182.98438 C 512.14723 173.893 525.27891 167.83276 526.28906 153.18555 C 527.29918 138.53833 539.92611 155.71084 528.81445 127.93164 C 518.89355 103.12944 525.03914 99.683996 526.47852 99.226562 C 521.20069 93.015351 516.46592 88.095543 513.01172 87.941406 z M 1105.2793 108.98633 C 1097.9459 108.96904 1090.9497 109.72921 1087.8691 110.57422 C 1081.7079 112.26421 1047.9035 138.76058 1052.0879 145.5625 C 1056.2724 152.36442 1073.745 184.67064 1084.418 183.73047 C 1095.091 182.79031 1106.5137 177.33825 1112.293 182.70898 C 1118.0722 188.07973 1121.9844 199.92578 1121.9844 199.92578 C 1139.4859 213.01195 1159.7135 213.09398 1167.1016 207.42383 C 1174.4896 201.75364 1189.3074 199.01372 1197.1992 212.08594 C 1205.091 225.15816 1228.4956 231.98873 1232.2715 227.64062 C 1236.0473 223.29252 1248.9695 208.81622 1242.8223 200.89648 C 1236.6751 192.97679 1224.3514 196.35828 1218.6406 180.36914 C 1212.9299 164.38 1220.6363 148.54385 1204.5078 151.7832 C 1188.3794 155.02256 1160.3292 154.95874 1155.5586 149.64258 C 1150.788 144.3264 1133.5728 116.58629 1124.7129 112.06055 C 1120.283 109.79767 1112.6127 109.00362 1105.2793 108.98633 z "
       transform="matrix(0.26458334,0,0,0.26458334,0,11.249992)"
       id="path908" />
    <path
       style="fill:#78ff78;fill-opacity:1;stroke:none;stroke-width:0.27764976px;stroke-linecap:butt;stroke-linejoin:miter;stroke-opacity:1"
       d="m 216.66943,41.303941 c 4.46071,3.958025 9.61637,3.982976 11.49942,2.267987 13.79112,-2.360794 13.31356,-17.573692 9.53359,-16.828711 -4.11076,0.97977 -5.11259,-5.454325 -6.32851,-7.062244 -1.21591,-1.607924 -11.75073,-3.583441 -14.00891,-4.952292 -2.25816,-1.368852 -7.82031,-0.96092 -9.39064,-0.449762 -1.57034,0.511152 -10.18649,8.525443 -9.11999,10.582743 1.06652,2.0573 5.52011,11.828422 8.24038,11.544059 2.7203,-0.28436 5.63167,-1.933345 7.10469,-0.30892 1.47299,1.624428 2.46997,5.207146 2.46997,5.207146 z"
       id="path910"
       inkscape:connector-curvature="0"
       sodipodi:nodetypes="ccccccccccc" />
    <path
       sodipodi:nodetypes="ccccccccccc"
       inkscape:connector-curvature="0"
       id="path912"
       d="m 186.4118,65.382381 c 5.34195,2.650938 10.32401,1.324123 11.69191,-0.824346 12.69071,-5.891882 8.24373,-20.448141 4.79103,-18.738756 -3.71042,2.022647 -6.36312,-3.924155 -7.95786,-5.157297 -1.59475,-1.233154 -11.33419,3.400459 -13.87214,2.671128 -2.53794,-0.729344 -21.02803,-2.469033 -22.40957,-1.564275 -1.38154,0.904756 -19.50299,15.054398 -17.9347,16.760373 1.56832,1.705973 21.27774,-5.339262 28.36418,-3.491635 5.76355,2.603571 11.7319,4.785071 13.57909,5.966779 1.84716,1.181719 3.74806,4.378036 3.74806,4.378036 z"
       style="fill:#78ff78;fill-opacity:1;stroke:none;stroke-width:0.27764976px;stroke-linecap:butt;stroke-linejoin:miter;stroke-opacity:1" />
    <path
       sodipodi:nodetypes="cscccsccccc"
       inkscape:connector-curvature="0"
       id="path918"
       d="m 158.88065,93.568518 c 6.06056,5.391599 10.31807,8.072232 14.5004,9.123972 4.18233,1.05172 11.84073,0.57743 14.22958,-0.37837 2.38887,-0.95581 0.006,0.60917 -2.4293,2.04639 -2.43529,1.43723 -8.2966,4.01333 -8.2966,4.01333 0,0 0.41222,2.12419 2.54443,4.36543 2.13221,2.24124 -8.32898,1.80872 -8.32898,1.80872 0,0 -8.31823,-2.58488 -5.81467,-4.19504 2.50358,-1.61017 3.18815,-3.60114 2.82753,-4.14333 -0.36061,-0.5422 -4.36223,-5.17434 -4.36223,-5.17434 z"
       style="fill:#00b700;fill-opacity:1;stroke:none;stroke-width:0.22068097px;stroke-linecap:butt;stroke-linejoin:miter;stroke-opacity:1" />
    <path
       style="fill:#864d25;fill-opacity:1;stroke:none;stroke-width:1px;stroke-linecap:butt;stroke-linejoin:miter;stroke-opacity:1"
       d="m 770.16992,399.05469 c -0.83406,0.0795 -2.34974,1.82544 -5.16992,5.94531 -10.02735,14.64847 -13.6261,-10.70312 -10.02734,14.64844 3.59875,25.35156 17.16992,41.0664 17.16992,41.0664 -10.00003,27.85712 -0.71401,8.57059 -12.14258,31.42774 -5.1769,10.3538 -8.31015,8.94842 -10.25977,8.04101 -0.69865,17.3654 -1.93918,37.3954 -3.92382,60.73438 12.0407,21.93917 30.79518,10.94639 16.32617,32.6543 -14.46902,21.70794 -8.22346,6.27212 -14.46875,21.70703 -3.73727,20.77433 -5.63678,41.73531 -6.16992,62.39453 3.97465,2.13142 8.05881,6.88808 12.78125,23.7539 9.99998,35.71427 20.00055,20.71596 20.71484,62.14454 21.01389,-15.85279 15.71911,41.22675 23.57087,25 -6.4286,-12.14287 -15.71345,-90.00113 -15.71345,-111.42969 0,-21.42856 7.85686,-34.99919 12.14258,-36.42774 4.28572,-1.42858 -8.3e-4,6.42746 6.42773,-1.42968 6.42856,-7.85715 -20.06212,1.29903 -4.64257,-16.78488 9.73239,-11.41406 21.15392,-15.55982 13.57114,-21.07199 -2.61558,-1.90137 -1.42855,1.78572 -2.85714,-9.64285 -1.42854,-11.42858 -25.35712,3.21484 -16.07143,-3.92802 9.28574,-7.14285 5.71542,1.42858 11.42969,-10 5.71431,-11.42857 6.42914,-13.57173 5.71485,-22.85742 -0.7143,-9.28573 -1.43001,-9.28653 -9.28711,-18.57227 C 791.42797,527.14204 795.71427,537.14283 790,525 c -5.71427,-12.14287 -10.00056,-16.42827 -5.71484,-22.14258 4.28568,-5.71427 1.42967,-3.57089 6.42968,-9.28515 4.99998,-5.71431 5.714,-2e-5 7.14258,-10 1.42859,-10.00003 0.71458,-7.85825 2.85742,-16.42969 2.14284,-8.57144 9.2849,-17.85767 -3.57226,-20.71485 -12.85712,-2.85713 -13.57085,15.71541 -19.28516,-3.57031 -5.71427,-19.28568 0.71486,-10.00085 -4.28515,-23.57226 -3.59374,-9.75448 -1.27087,-20.43372 -3.40235,-20.23047 z"
       transform="matrix(0.26458334,0,0,0.26458334,0,11.249992)"
       id="path930"
       inkscape:connector-curvature="0"
       sodipodi:nodetypes="csscsccsccsccscssccccsccccsscccc" />
    <path
       style="fill:#00b700;stroke:none;stroke-width:1px;stroke-linecap:butt;stroke-linejoin:miter;stroke-opacity:1;fill-opacity:1"
       d="M 771.22461 332.42773 C 752.2824 332.3186 753.73203 335.01174 748.52344 342.58789 C 742.96757 350.66909 729.3301 360.26633 736.40039 391.07617 C 743.47064 421.88605 736.40066 391.07563 710.64258 405.72266 C 684.88449 420.36965 673.77176 382.49061 644.98242 376.42969 C 616.19308 370.36876 601.04132 377.43911 587.4043 391.07617 C 573.76723 404.7132 555.07964 411.2797 538.41211 407.74414 C 521.74458 404.20862 507.60078 382.48945 504.57031 379.45898 C 501.53985 376.42852 463.15504 366.32813 453.55859 371.37891 C 453.38546 371.47003 453.25618 371.55471 453.09375 371.64453 C 495.73895 393.28882 548.8473 439.2505 578.57227 418.57227 C 611.42944 395.71512 642.85799 389.99917 668.57227 411.42773 C 694.28655 432.85633 754.97266 419.64844 754.97266 419.64844 C 754.97266 419.64844 804.01197 399.71791 834.28516 410 C 864.55834 420.28209 864.286 394.28657 912.85742 418.57227 C 961.42885 442.858 958.57114 424.28518 967.14258 414.28516 C 968.74543 412.41517 969.5474 411.09716 969.91602 410.32617 C 969.51369 412.57223 969.74014 419.58944 980 431.42773 C 998.57139 452.85629 950.00003 552.85657 1000 554.28516 C 1050 555.71374 1108.5714 549.99888 1092.8574 521.42773 C 1083.2206 503.90616 1113.8664 502.5068 1140.998 501.40625 C 1138.5148 498.96835 1136.0061 497.1714 1133.5723 496.42773 C 1120.7151 492.49918 1103.2146 488.57171 1090.3574 487.85742 C 1077.5003 487.14317 1060.1551 506.23333 1042.8574 502.85742 C 1025.5597 499.48151 1023.7903 455.22096 1023.2852 423.90625 C 1022.7802 392.5915 1009.6477 386.53081 1004.0918 382.49023 C 998.53597 378.44962 992.47499 395.6223 986.41406 405.21875 C 980.35314 414.8152 961.16089 404.20862 954.08984 407.74414 C 947.01876 411.2797 891.46044 405.72303 864.69141 394.61133 C 837.92237 383.49967 857.11403 387.03587 852.56836 369.86328 C 848.02265 352.6907 831.86014 359.25582 824.78906 346.62891 C 817.71802 334.00198 798.52648 332.9914 775.29297 332.48633 C 773.84087 332.45476 772.48742 332.43501 771.22461 332.42773 z "
       transform="matrix(0.26458334,0,0,0.26458334,0,11.249992)"
       id="path920" />
    <path
       style="fill:#542d13;fill-opacity:1;stroke:none;stroke-width:1px;stroke-linecap:butt;stroke-linejoin:miter;stroke-opacity:1"
       d="m 565.14648,484.93555 c -0.30624,-0.002 -0.59347,0.0198 -0.86132,0.0645 -2.06961,0.34494 -3.88628,1.65399 -5.48633,3.49219 39.62638,32.96086 99.2451,73.3491 188.875,126.78711 0,0 -10.5304,-11.70842 -26.95899,-30.99414 -6.07448,-5.14358 0,0 -4.29315,-14.26314 0.31557,-4.57574 -2.27285,-9.09136 -2.27285,-9.09136 -9.02247,-5.03246 -14.70737,-16.4451 -23.09961,-21.3049 -2.04159,-0.0454 -4.20758,0.0461 -6.51757,0.30273 -12.85716,1.42859 -30.24567,-13.50077 -56.67424,-23.50076 -25.60268,-9.68752 -53.21737,-31.44081 -62.71094,-31.49218 z"
       transform="matrix(0.26458334,0,0,0.26458334,0,11.249992)"
       id="path925"
       inkscape:connector-curvature="0"
       sodipodi:nodetypes="cccccccccscc" />
  </g>
</svg>
