<?xml version="1.0" encoding="UTF-8" standalone="no"?>
<!-- Created with Inkscape (http://www.inkscape.org/) -->

<svg
   xmlns:dc="http://purl.org/dc/elements/1.1/"
   xmlns:cc="http://creativecommons.org/ns#"
   xmlns:rdf="http://www.w3.org/1999/02/22-rdf-syntax-ns#"
   xmlns:svg="http://www.w3.org/2000/svg"
   xmlns="http://www.w3.org/2000/svg"
   xmlns:sodipodi="http://sodipodi.sourceforge.net/DTD/sodipodi-0.dtd"
   xmlns:inkscape="http://www.inkscape.org/namespaces/inkscape"
   width="210mm"
   height="297mm"
   viewBox="0 0 210 297"
   version="1.1"
   id="svg8"
   inkscape:version="0.92.4 (5da689c313, 2019-01-14)"
   sodipodi:docname="ico.svg">
  <defs
     id="defs2" />
  <sodipodi:namedview
     id="base"
     pagecolor="#ffffff"
     bordercolor="#666666"
     borderopacity="1.0"
     inkscape:pageopacity="0.0"
     inkscape:pageshadow="2"
     inkscape:zoom="0.98994949"
     inkscape:cx="370.90718"
     inkscape:cy="590.45584"
     inkscape:document-units="mm"
     inkscape:current-layer="layer1"
     showgrid="false"
     inkscape:window-width="1858"
     inkscape:window-height="1057"
     inkscape:window-x="-8"
     inkscape:window-y="-8"
     inkscape:window-maximized="1" />
  <metadata
     id="metadata5">
    <rdf:RDF>
      <cc:Work
         rdf:about="">
        <dc:format>image/svg+xml</dc:format>
        <dc:type
           rdf:resource="http://purl.org/dc/dcmitype/StillImage" />
        <dc:title></dc:title>
      </cc:Work>
    </rdf:RDF>
  </metadata>
  <g
     inkscape:label="Calque 1"
     inkscape:groupmode="layer"
     id="layer1">
    <ellipse
       style="fill:#00c7ff;fill-opacity:1;stroke:#000000;stroke-width:0.17967056"
       id="path6078"
       cx="100.65076"
       cy="110.10815"
       rx="53.778297"
       ry="53.511028"
       inkscape:export-xdpi="96"
       inkscape:export-ydpi="96" />
    <path
       style="fill:#333333;fill-opacity:1;stroke:none;stroke-width:1.21055007px;stroke-linecap:butt;stroke-linejoin:miter;stroke-opacity:1;"
       d="M 367.03906 247.90039 C 350.90625 247.86377 312.0437 249.87261 308.62695 249.91797 C 304.42173 249.9738 298.22777 254.42659 296.79883 257.4707 C 295.36988 260.51482 295.56359 265.50267 297.93555 270.16211 C 300.30752 274.82156 320.62674 305.63706 321.91992 313.67383 C 323.21309 321.71061 317.39391 332.47835 315.55078 336.15039 C 313.70767 339.82244 304.55739 338.78736 301.9707 339.26172 C 299.38402 339.73608 257.95889 331.94137 254.41211 332.30273 C 250.8653 332.66414 245.67253 338.33161 242.74414 338.81445 C 239.81579 339.29726 209.87109 342.29688 209.87109 342.29688 C 209.87109 342.29687 223.51516 346.50492 235.32031 351.0332 C 247.12545 355.56153 242.18035 354.84278 252.69922 363.7207 C 263.21809 372.59862 279.82089 385.05021 285.24805 387.47852 C 290.67524 389.90671 308.35533 397.01069 310.50195 397.7793 C 312.64847 398.54813 314.97235 398.68469 315.61328 401.13477 C 316.25419 403.58484 311.63342 411.84782 309.95312 415.78711 C 308.27285 419.7264 290.68935 433.08634 286.33203 436.61328 C 281.97473 440.14019 278.69652 446.96895 277.57422 452.41211 C 276.45193 457.85531 280.96014 479.79062 280.73242 482.31055 C 280.50473 484.83051 276.49012 486.76743 276.67773 490.4375 C 276.86537 494.10757 289.73898 576.56772 291.22852 582.04297 C 291.73505 583.90496 294.70015 591.60529 298.52539 601.12305 A 203.25656 202.24641 0 0 0 337.61914 613.75781 C 337.85739 611.94139 336.18917 610.1432 335.84766 608.11328 C 335.44674 605.72995 335.9491 603.94055 337.64062 603.21484 C 339.33215 602.48917 339.84343 601.04057 339.62891 597.90039 C 339.41435 594.76021 333.87389 561.59574 333.61133 559.27734 C 333.3487 556.95894 334.83767 556.30564 335.22461 552.60352 C 335.61155 548.90143 334.3575 541.03606 334.08594 539.83398 C 333.81427 538.63183 335.58716 537.91027 335.26367 536.56445 C 334.9402 535.2186 333.67302 534.86382 333.44141 533.32227 C 333.20986 531.78079 334.4334 530.44455 333.81641 528.96094 C 333.19944 527.47736 333.07748 524.4348 333.28906 523.2207 C 333.50075 522.00664 335.95078 521.36615 336.50781 520.43359 C 337.06491 519.50115 335.94567 517.3039 335.39258 516.44727 C 334.8394 515.5906 335.89882 515.37132 336.77734 513.75391 C 337.65594 512.1365 335.67613 511.53161 335.20312 510.38086 C 334.73015 509.23011 335.92705 509.19946 336.4707 507.68164 C 337.01432 506.16382 336.04183 505.53802 335.94727 504.48047 C 335.85268 503.42292 337.40923 502.80374 338.25781 501.17578 C 339.10643 499.54783 338.59196 496.68872 339.36719 494.85742 C 340.14238 493.0262 341.68338 493.15806 342.56445 491.46094 C 343.44554 489.76378 344.06221 488.45054 343.3125 487.16992 C 342.56279 485.88923 346.71813 478.29879 347.5625 476.5 C 348.40687 474.70121 349.8226 475.28057 350.79688 473.20508 C 351.77115 471.12951 356.85377 465.38829 357.92188 463.62109 C 358.99016 461.85398 360.4858 461.72009 361.3125 459.95898 C 362.1392 458.19784 362.20648 457.0343 363.11914 454.83594 C 364.03169 452.63746 366.21071 450.79523 368.0957 448.81445 C 369.98085 446.83375 377.92386 429.62574 378.47461 427.01367 C 379.0251 424.40156 376.8429 421.85613 378.41016 418.87695 C 379.97745 415.89778 382.32092 416.66011 385.80273 416.4375 C 389.28459 416.21443 425.75481 422.69687 428.51367 423.6543 C 431.27261 424.61169 427.14486 420.81514 436.06836 419.43164 C 444.99179 418.04807 486.32693 424.95696 503.80664 429.44727 C 516.63827 432.74354 554.66344 444.33584 580.22656 452.32227 A 203.25656 202.24641 0 0 0 581.45117 444.26758 C 548.09076 433.85752 504.78037 421.06698 499.1875 419.67969 C 490.41514 417.5037 468.3752 409.67911 430.12109 393.75195 C 391.8671 377.82489 384.47043 359.92021 381.91211 356.01758 C 379.35375 352.11491 381.44676 337.22517 377.375 324.67578 C 373.30322 312.12639 359.38318 284.48974 357.48633 280.13672 C 355.58947 275.78369 357.88759 272.92234 359.18555 270.66602 C 360.48351 268.40968 376.1742 259.65513 377.49609 258.36523 C 378.8179 257.07533 378.9419 254.26833 378.56055 252.53711 C 378.17919 250.80588 376.99226 249.77243 373.86133 248.30273 C 373.27428 248.02717 370.76202 247.90884 367.03906 247.90039 z "
       id="path6154"
       transform="scale(0.26458333)"
       inkscape:export-xdpi="96"
       inkscape:export-ydpi="96" />
    <g
       id="g6667"
       inkscape:export-xdpi="96"
       inkscape:export-ydpi="96">
      <path
         inkscape:connector-curvature="0"
         id="path21"
         d="m 55.435779,86.194041 c 0,0 6.544801,-0.655338 7.184835,-0.760863 0.640042,-0.105531 1.775091,-1.344223 2.550298,-1.423214 0.775201,-0.07898 9.82949,1.624663 10.394846,1.520984 0.565357,-0.103678 2.565018,0.122563 2.967857,-0.680016 0.402843,-0.802578 1.674794,-3.156405 1.392152,-4.912961 -0.282643,-1.756554 -4.723879,-8.491525 -5.242308,-9.509915 -0.518426,-1.018389 -0.560375,-2.108364 -0.248059,-2.773699 0.312316,-0.665335 1.665946,-1.638747 2.58506,-1.650949 0.919114,-0.0122 13.573735,-0.674448 14.258044,-0.353225 0.684311,0.321224 0.943546,0.547294 1.026893,0.925679 0.08335,0.378384 0.05628,0.991997 -0.232641,1.273924 -0.288918,0.281926 -3.718391,2.19515 -4.00208,2.688306 -0.283688,0.493152 -0.786022,1.118543 -0.371437,2.069961 0.414585,0.951416 3.457102,6.991918 4.347048,9.734769 0.889945,2.742851 0.432535,5.997334 0.991704,6.850318 0.559161,0.852977 2.175646,4.766331 10.536619,8.247426 8.36099,3.481104 13.17839,5.191324 15.09571,5.666914 1.91733,0.47559 24.14223,7.08885 26.38893,8.19567 2.24671,1.10682 12.65711,5.83701 16.66083,8.76027 4.00371,2.92326 10.89696,8.58603 11.76934,9.67405 0.8724,1.08803 0.74845,1.63007 0.74845,1.63007 0,0 -0.90732,-0.79126 -1.89363,-1.35863 -0.98631,-0.56738 -11.14313,-7.0053 -13.4976,-9.05 -2.35449,-2.0447 -3.43159,-1.58472 -4.04432,-2.00283 -0.61274,-0.41811 -2.5836,-2.33494 -3.3421,-2.66489 -0.75851,-0.32994 -7.03713,-3.45706 -10.45763,-4.5829 -3.4205,-1.12584 -17.50244,-5.48478 -21.32288,-6.4662 -3.82045,-0.98142 -12.85499,-2.49128 -14.80534,-2.18888 -1.95036,0.30238 -1.04803,1.13192 -1.65103,0.92267 -0.60299,-0.20926 -8.574103,-1.62587 -9.33511,-1.57712 -0.761002,0.0487 -1.273285,-0.11791 -1.615836,0.53323 -0.34255,0.65114 0.134521,1.20724 0.01416,1.77815 -0.120371,0.57091 -1.856441,4.33212 -2.268467,4.76503 -0.411994,0.43293 -0.888147,0.83574 -1.087598,1.31625 -0.199475,0.48048 -0.214297,0.7345 -0.394983,1.11942 -0.180687,0.38492 -0.50758,0.41416 -0.74107,0.80039 -0.233451,0.38625 -1.344338,1.64129 -1.557281,2.09493 -0.212942,0.45363 -0.522471,0.3268 -0.70702,0.71995 -0.184549,0.39315 -1.092481,2.05216 -0.928621,2.33207 0.163861,0.2799 0.029,0.5672 -0.163572,0.93814 -0.192571,0.37093 -0.529568,0.34192 -0.698999,0.74216 -0.169437,0.40026 -0.0568,1.02517 -0.242278,1.38099 -0.18547,0.35581 -0.525863,0.49128 -0.50519,0.72242 0.02067,0.23114 0.233289,0.36785 0.114473,0.69959 -0.118824,0.33174 -0.380199,0.33822 -0.276825,0.58973 0.103382,0.25152 0.535815,0.38377 0.343784,0.73728 -0.192013,0.35351 -0.42334,0.4015 -0.302434,0.58874 0.120887,0.18723 0.365272,0.66731 0.243511,0.87111 -0.121748,0.20382 -0.657268,0.34389 -0.703536,0.60924 -0.04624,0.26536 -0.01922,0.93046 0.115625,1.25472 0.134852,0.32427 -0.132677,0.61624 -0.08207,0.95315 0.05062,0.33693 0.327309,0.41462 0.398008,0.70877 0.0707,0.29415 -0.316423,0.45169 -0.257045,0.71444 0.05935,0.26273 0.333221,1.98211 0.248649,2.79126 -0.08457,0.80915 -0.409848,0.95171 -0.352447,1.45843 0.05739,0.50672 1.268186,7.75513 1.315081,8.44146 0.04689,0.68634 -0.06482,1.00296 -0.434528,1.16157 -0.369707,0.15861 -0.479576,0.54992 -0.39195,1.07083 0.08764,0.52092 0.577071,0.9721 0.319688,1.44178 -0.257374,0.46969 -0.475881,0.69928 -0.363557,1.01035 0.112324,0.31107 1.421895,6.7201 1.187969,7.53295 -0.233941,0.81284 -0.74066,0.87024 -0.582046,1.23994 0.158606,0.36971 0.583849,0.64314 0.530771,0.91346 -0.0531,0.27033 -0.399337,0.77212 -0.782624,0.68446 -0.383271,-0.0877 -2.21387,-0.98387 -3.569198,-3.20704 -1.355333,-2.22317 -6.167452,-14.11734 -6.492994,-15.31402 -0.32556,-1.19669 -3.139274,-19.2194 -3.180284,-20.02155 -0.04101,-0.80215 0.836218,-1.22547 0.885984,-1.77624 0.04977,-0.55077 -0.93559,-5.34536 -0.690298,-6.53505 0.245296,-1.18969 0.961774,-2.68216 1.914126,-3.45301 0.952355,-0.77087 4.795714,-3.69076 5.162963,-4.55175 0.367252,-0.86099 1.377131,-2.666995 1.237051,-3.202499 -0.140085,-0.535496 -0.648084,-0.56518 -1.117236,-0.73322 -0.469177,-0.167985 -4.333244,-1.720907 -5.519437,-2.251627 -1.186185,-0.530738 -4.815027,-3.251902 -7.114078,-5.192301 -2.299052,-1.940399 -1.218419,-1.783336 -3.798603,-2.773069 -2.580187,-0.989723 -5.562167,-1.909721 -5.562167,-1.909721 z"
         style="fill:#f9f9f9;fill-opacity:1;stroke:#000000;stroke-width:0.26458332px;stroke-linecap:butt;stroke-linejoin:miter;stroke-opacity:1" />
      <path
         inkscape:connector-curvature="0"
         id="path23"
         d="m 81.329553,66.018913 c 0,0 1.077914,1.281019 1.399783,1.302936 0.321868,0.02192 1.013141,-0.428624 1.093996,-0.482935 0.08085,-0.05431 1.609344,0.109584 1.821044,0.208958 0.211695,0.09937 1.105398,0.278995 1.34981,0.19074 0.244413,-0.08826 0.486675,-0.565037 0.854831,-0.484486 0.368157,0.08055 0.786305,0.369102 0.963135,0.267574 0.176829,-0.101524 0.457659,-0.228043 0.403969,-0.585405 -0.05369,-0.357359 -1.04182,-0.728931 -1.229448,-0.761648 -0.187626,-0.03272 -6.65712,0.344266 -6.65712,0.344266 z"
         style="fill:#000000;stroke:#000000;stroke-width:0.26458332px;stroke-linecap:butt;stroke-linejoin:miter;stroke-opacity:1" />
      <path
         inkscape:connector-curvature="0"
         id="path25"
         d="m 78.479775,70.73342 c 0.700462,0.120032 5.837968,5.297891 6.757508,5.729534 0.919542,0.431644 0.959241,1.180987 1.187052,1.418409 0.227809,0.23742 0.918207,1.657564 1.333245,1.774097 0.41504,0.116535 1.322354,0.907795 1.429705,1.401829 0.10735,0.494037 0.513636,1.963492 0.847061,2.198297 0.333426,0.234803 0.33473,0.28761 0.369199,0.825723 0.03447,0.538116 1.000679,2.426987 1.082719,2.752561 0.08204,0.325577 -0.209919,0.05804 -0.0031,0.729265 0.206861,0.671233 0.912524,2.28122 1.551879,2.920596 0.639354,0.63938 3.59521,3.070763 4.025522,3.377144 0.430314,0.306377 2.611981,1.774125 2.996899,1.954812 0.38492,0.180687 0.50843,0.473533 -0.13178,0.225203 -0.640232,-0.248336 -4.159967,-1.978842 -4.985671,-2.888365 -0.825702,-0.909528 -3.035286,-2.651345 -4.052143,-3.59841 -1.016857,-0.947066 -2.16506,-2.503821 -2.281139,-2.923664 -0.116088,-0.419847 -1.017312,-0.112184 -1.016425,-0.503226 8.76e-4,-0.391041 -0.237371,-2.329649 -0.572104,-2.61726 -0.334735,-0.28761 -0.857978,-1.785872 -1.022515,-1.602139 -0.164536,0.183733 -0.378408,1.362079 -0.549484,1.281775 -0.171079,-0.08031 -0.503192,-0.262309 -0.508426,-0.473535 -0.0052,-0.211228 0.378833,-0.918235 0.296795,-1.243808 -0.08204,-0.325574 -0.770253,-2.083951 -1.060907,-2.298676 -0.290657,-0.214727 -0.384043,-0.571725 -0.295009,-0.816995 0.08903,-0.245272 0.04365,-0.370962 -0.600506,-0.777723 -0.644158,-0.406758 -1.259936,-1.37433 -1.598594,-1.820364 -0.338657,-0.446036 -3.466454,-3.845419 -3.421498,-4.163572 0.04496,-0.318154 0.221722,-0.861503 0.221722,-0.861503 z"
         style="fill:#000000;stroke:#000000;stroke-width:0.26458332px;stroke-linecap:butt;stroke-linejoin:miter;stroke-opacity:1" />
      <path
         inkscape:connector-curvature="0"
         id="path27"
         d="m 75.058777,107.54197 c 0.104309,-0.0554 1.341147,-0.46652 1.341147,-0.46652 l 0.704413,-1.00027 c 0,0 0.328192,0.0236 0.525456,-0.1187 0.197269,-0.14227 0.242206,-0.46044 0.722297,-0.70482 0.480077,-0.24439 0.672547,-0.15405 1.083228,-0.63978 0.410691,-0.48573 0.02227,-0.381 0.58657,-0.63804 0.564304,-0.25704 0.185924,-0.17369 0.75284,-0.32512 0.566925,-0.15143 0.41634,0.16936 0.857149,-0.38055 0.440805,-0.54989 0.450842,-0.57127 0.641569,-0.97758 0.190724,-0.4063 -0.271893,-0.3103 0.36791,-0.50581 0.639807,-0.1955 0.649848,-0.21689 0.932652,-0.31901 0.282804,-0.10212 0.431618,0.35919 0.351766,-0.30461 -0.07986,-0.66382 -0.209472,-0.77685 -0.07243,-0.79082 0.137053,-0.014 0.197269,-0.14227 0.26403,-0.007 0.06677,0.13573 0.03709,0.64372 0.212093,0.88245 0.174995,0.23873 0.08465,0.43119 0.367464,0.32907 0.282804,-0.10211 -0.0175,0.14837 0.321643,-0.24046 0.339117,-0.38884 0.06292,-0.0227 0.577845,-0.56385 0.514991,-0.54116 0.01703,-0.59223 0.672104,-0.59789 0.655081,-0.006 0.241779,0.37446 1.076229,-0.0689 0.83445,-0.443395 0.569991,-0.880705 1.192332,-0.927822 0.622346,-0.04713 0.671672,0.236968 1.11943,0.394987 0.44775,0.158038 0.564305,-0.257043 0.733642,-0.673396 0.169359,-0.416331 -0.120004,-0.578266 0.438184,-0.655497 0.558192,-0.07724 0.417665,0.222128 1.02342,-0.06763 0.605768,-0.289766 0.794304,-0.357844 1.312345,-0.349549 0.518036,0.0083 0.710497,0.09865 1.366448,-0.298049 0.655965,-0.3967 -0.210776,-0.829651 1.206728,-0.346941 1.417508,0.482723 0.796041,0.138802 1.876619,0.672142 1.080592,0.533313 1.949931,1.0719 2.327432,1.37959 0.377506,0.307681 0.952286,0.473084 1.103266,0.596208 0.15101,0.123029 -0.22479,0.31202 -0.84842,0.30635 -0.623652,-0.006 -0.529384,-0.0397 -1.276107,0.10559 -0.746737,0.14531 -0.256194,0.32338 -1.690725,0.4329 -1.434536,0.10951 -1.423196,0.14094 -2.430029,0.45121 -1.006847,0.31029 -1.084532,0.58698 -2.095304,0.73884 -1.010758,0.15185 -1.600806,-0.20341 -2.030678,-0.066 -0.429885,0.13747 -0.358311,0.0406 -0.672117,0.59789 -0.313757,0.55733 -0.06853,0.64635 -0.520701,1.16481 -0.45215,0.51846 -0.162801,0.68038 -0.842754,0.96142 -0.679963,0.28105 -0.735383,0.17674 -1.177497,0.67383 -0.442109,0.49707 0.0122,0.91911 -0.767256,1.02296 -0.779459,0.10385 -0.957074,-0.24049 -1.442385,-0.20734 -0.485305,0.0332 -0.693919,0.14402 -0.958837,0.5416 -0.264945,0.39756 -0.322507,0.6315 -0.733646,0.67338 -0.411115,0.0419 -0.243969,-0.0362 -0.832263,0.10517 -0.588306,0.14139 0.315535,-0.0606 -1.196686,0.32555 -1.512226,0.38621 -0.985465,0.32032 -2.226228,0.57298 -1.240762,0.25267 -1.184028,0.40978 -2.074329,0.30502 -0.890311,-0.10476 -2.169885,-0.9925 -2.169885,-0.9925 z"
         style="fill:#000000;stroke:#000000;stroke-width:0.26458332px;stroke-linecap:butt;stroke-linejoin:miter;stroke-opacity:1" />
      <path
         inkscape:connector-curvature="0"
         id="path29"
         d="m 67.497346,89.235528 c -0.123748,-0.168801 -1.332826,-1.01316 -1.420153,-1.220232 -0.08733,-0.207073 0.155244,-0.369998 0.365079,-0.345314 0.209839,0.02471 0.978559,0.588519 1.112806,0.577709 0.134233,-0.01078 0.894323,-0.09688 1.127938,-0.319379 0.23361,-0.222489 0.127762,-0.272175 0.864082,-0.111077 0.736314,0.161106 0.768403,0.249985 1.148911,0.225613 0.380504,-0.02438 0.379579,-0.06172 0.745886,-0.05585 0.366309,0.0059 0.166334,0.07808 0.636639,0.05896 0.470308,-0.01913 0.505168,0.181787 0.612572,-0.0077 0.107385,-0.189487 0.385752,-0.114175 -0.199655,-0.518143 -0.585405,-0.403968 -0.428017,-0.385455 -0.979484,-0.625861 -0.551461,-0.240414 -0.509798,-0.368477 -1.002324,-0.341331 -0.492526,0.02715 0.165403,0.04075 -0.708546,0.05491 -0.873954,0.01418 -0.631091,0.16509 -1.189653,-0.0602 -0.558557,-0.225296 -0.231441,-0.29318 -0.807592,-0.323748 -0.576158,-0.03056 -0.44099,-0.004 -0.970855,0.02405 -0.529869,0.02808 -0.254287,-0.0086 -0.784152,0.01942 -0.529869,0.02808 -0.370316,-0.469071 -0.67213,0.01665 -0.301824,0.485731 -0.253058,0.342543 -0.280222,0.754215 -0.02716,0.411671 -0.130242,0.474009 0.02035,0.821492 0.150589,0.347491 -0.118815,0.331741 0.262913,0.65856 0.381735,0.326812 0.920539,0.358319 1.198903,0.433608 0.27835,0.07532 0.918699,0.283617 0.918699,0.283617 z"
         style="fill:#000000;stroke:#000000;stroke-width:0.26458332px;stroke-linecap:butt;stroke-linejoin:miter;stroke-opacity:1" />
      <path
         inkscape:connector-curvature="0"
         id="path31"
         d="m 72.638711,131.47091 c 0.187008,0.30922 1.305338,2.01518 1.607765,2.15715 0.302419,0.14195 0.866535,0.5913 1.038733,0.30306 0.172197,-0.28823 0.343805,-1.20415 0.612279,-1.22575 0.26848,-0.0216 0.385754,-0.11418 0.382658,0.36415 -0.0031,0.47834 0.156123,1.47573 0.464101,1.84174 0.307974,0.366 0.195008,1.23564 0.383867,1.61954 0.188853,0.38389 3.552418,8.86428 3.552418,8.86428 0,0 -0.577846,-0.62021 -0.982421,-0.31429 -0.40457,0.30594 0.06632,0.97062 0.111709,1.09631 0.04539,0.1257 1.595066,3.38452 1.521296,3.81963 -0.07376,0.43511 0.205977,1.06227 0.05628,0.992 -0.149689,-0.0703 -0.800386,-0.74107 -1.029073,-0.58746 -0.228688,0.15362 0.07723,0.55819 0.07723,0.55819 0,0 0.333415,0.87416 0.305917,1.04394 -0.02745,0.16979 -0.09408,0.25595 -0.126766,0.21451 -0.0327,-0.0414 -0.631259,-1.37934 -0.781392,-1.25408 -0.150146,0.12524 -0.01705,1.23158 -0.01705,1.23158 l -0.408259,-0.90929 c 0,0 0.186553,1.13144 -0.01027,1.07818 -0.196812,-0.0533 -0.854512,-0.79256 -0.854512,-0.79256 l -4.107411,-9.69851 -0.407926,-2.5904 c 0,0 -0.88624,-2.59349 -0.966154,-3.40604 -0.07991,-0.81254 -0.91122,-3.60168 -0.775437,-3.85165 0.135783,-0.24996 -0.417785,-2.68729 -0.326133,-2.60736 0.09166,0.0799 0.678563,2.05313 0.678563,2.05313 z"
         style="fill:#000000;stroke:#000000;stroke-width:0.26458332px;stroke-linecap:butt;stroke-linejoin:miter;stroke-opacity:1" />
      <path
         inkscape:connector-curvature="0"
         id="path33"
         d="m 103.84272,102.73502 c -1.90405,-0.54317 -2.69344,-0.43395 -2.69344,-0.43395 l -0.37928,0.37556 c 0,0 1.69265,0.75765 1.90342,0.8197 0.21076,0.062 0.77088,0.0482 0.84556,0.0463 0.0747,-0.002 0.32374,-0.80759 0.32374,-0.80759 z"
         style="fill:#000000;stroke:#000000;stroke-width:0.26458332px;stroke-linecap:butt;stroke-linejoin:miter;stroke-opacity:1" />
      <path
         inkscape:connector-curvature="0"
         id="path37"
         d="m 55.435806,86.194053 7.088833,-0.713662 c 0,0 0.835993,0.263253 1.18346,1.016861 0.347468,0.753608 0.166922,1.609968 -0.07471,1.81024 -0.241641,0.200282 -0.965002,0.561943 -1.070851,0.512257 -0.105851,-0.04969 -7.126727,-2.625696 -7.126727,-2.625696 z"
         style="fill:#000000;stroke:#000000;stroke-width:0.26458332px;stroke-linecap:butt;stroke-linejoin:miter;stroke-opacity:1" />
      <path
         inkscape:connector-curvature="0"
         id="path39"
         d="m 55.435806,86.194053 6.687961,-0.606585 c 0,0 0.529547,0.562275 0.474293,1.348277 -0.05525,0.786002 -0.69994,1.609028 -0.69994,1.609028 z"
         style="fill:#d4aa00;stroke:#000000;stroke-width:0.26458332px;stroke-linecap:butt;stroke-linejoin:miter;stroke-opacity:1" />
      <path
         inkscape:connector-curvature="0"
         id="path41"
         d="m 80.123726,140.50488 c 0,0 -3.494733,-8.39952 -3.534001,-8.70502 -0.03928,-0.3055 0.102588,-1.83081 0.102588,-1.83081 0,0 0.175433,0.68258 0.345629,1.15392 0.170191,0.47135 3.085784,9.38191 3.085784,9.38191 z"
         style="fill:#000000;stroke:#000000;stroke-width:0.26458332px;stroke-linecap:butt;stroke-linejoin:miter;stroke-opacity:1" />
      <path
         inkscape:connector-curvature="0"
         id="path43"
         d="m 80.485608,136.3427 c -0.175004,-0.23873 -2.861501,-7.58034 -2.861501,-7.58034 l 0.21865,-0.13224 z"
         style="fill:#000000;stroke:#000000;stroke-width:0.26458332px;stroke-linecap:butt;stroke-linejoin:miter;stroke-opacity:1" />
      <path
         inkscape:connector-curvature="0"
         id="path45"
         d="m 79.981628,131.35652 -2.279327,-6.2632 c 0,0 0.115671,-0.024 0.223879,0.079 0.108251,0.10296 2.05544,6.1842 2.05544,6.1842 z"
         style="fill:#000000;stroke:#000000;stroke-width:0.26458332px;stroke-linecap:butt;stroke-linejoin:miter;stroke-opacity:1" />
      <path
         inkscape:connector-curvature="0"
         id="path47"
         d="m 77.246311,120.79036 c 0.110483,0.23639 2.983407,7.01022 2.983407,7.01022"
         style="fill:none;stroke:#000000;stroke-width:0.26458332px;stroke-linecap:butt;stroke-linejoin:miter;stroke-opacity:1" />
      <path
         inkscape:connector-curvature="0"
         id="path49"
         d="m 78.246846,118.34442 c 0.106773,0.087 2.620525,5.03147 2.620525,5.03147"
         style="fill:none;stroke:#000000;stroke-width:0.26458332px;stroke-linecap:butt;stroke-linejoin:miter;stroke-opacity:1" />
      <path
         inkscape:connector-curvature="0"
         id="path51"
         d="m 79.056634,117.24829 c 0.227748,0.1438 2.697097,3.2959 2.697097,3.2959"
         style="fill:none;stroke:#000000;stroke-width:0.26458332px;stroke-linecap:butt;stroke-linejoin:miter;stroke-opacity:1" />
      <path
         inkscape:connector-curvature="0"
         id="path53"
         d="m 77.317435,113.40557 c 1.065889,0.79559 3.842621,3.68599 3.842621,3.68599"
         style="fill:none;stroke:#000000;stroke-width:0.26458332px;stroke-linecap:butt;stroke-linejoin:miter;stroke-opacity:1" />
      <path
         inkscape:connector-curvature="0"
         id="path55"
         d="m 77.018605,118.83815 c 0.491285,0.52587 2.958751,5.41167 2.958751,5.41167"
         style="fill:none;stroke:#000000;stroke-width:0.26458332px;stroke-linecap:butt;stroke-linejoin:miter;stroke-opacity:1" />
      <path
         inkscape:connector-curvature="0"
         id="path57"
         d="m 74.335559,122.74559 c 0.219102,0.3981 1.020132,4.98144 1.020132,4.98144"
         style="fill:none;stroke:#000000;stroke-width:0.26458332px;stroke-linecap:butt;stroke-linejoin:miter;stroke-opacity:1" />
      <path
         inkscape:connector-curvature="0"
         id="path59"
         d="m 72.282096,124.91871 c 0.174661,0.41415 0.52145,4.15685 0.52145,4.15685"
         style="fill:none;stroke:#000000;stroke-width:0.26458332px;stroke-linecap:butt;stroke-linejoin:miter;stroke-opacity:1" />
      <path
         inkscape:connector-curvature="0"
         id="path61"
         d="m 73.29494,124.17624 0.796693,5.61469"
         style="fill:none;stroke:#000000;stroke-width:0.26458332px;stroke-linecap:butt;stroke-linejoin:miter;stroke-opacity:1" />
      <path
         inkscape:connector-curvature="0"
         id="path63"
         d="m 79.859051,114.04504 c 0.286377,0.0975 2.179323,1.09679 2.179323,1.09679"
         style="fill:none;stroke:#000000;stroke-width:0.26458332px;stroke-linecap:butt;stroke-linejoin:miter;stroke-opacity:1" />
      <path
         inkscape:connector-curvature="0"
         id="path65"
         d="m 81.01635,111.89412 c 0.665334,0.31231 1.846642,0.94063 1.846642,0.94063"
         style="fill:none;stroke:#000000;stroke-width:0.26458332px;stroke-linecap:butt;stroke-linejoin:miter;stroke-opacity:1" />
      <path
         sodipodi:nodetypes="ccc"
         inkscape:connector-curvature="0"
         id="path75"
         d="m 88.569997,68.084515 c -0.487922,-0.07246 -3.7393,0.0715 -3.7393,0.0715 l -0.971679,-0.07285"
         style="fill:none;stroke:#000000;stroke-width:0.26458332px;stroke-linecap:butt;stroke-linejoin:miter;stroke-opacity:1" />
      <path
         sodipodi:nodetypes="cc"
         inkscape:connector-curvature="0"
         id="path77"
         d="m 82.908514,68.928706 5.197109,0.03389"
         style="fill:none;stroke:#000000;stroke-width:0.26458332px;stroke-linecap:butt;stroke-linejoin:miter;stroke-opacity:1" />
      <path
         sodipodi:nodetypes="cc"
         inkscape:connector-curvature="0"
         id="path79"
         d="m 84.759913,69.743407 c 0.487923,0.07245 2.187415,0.241274 2.187415,0.241274"
         style="fill:none;stroke:#000000;stroke-width:0.26458332px;stroke-linecap:butt;stroke-linejoin:miter;stroke-opacity:1" />
      <path
         sodipodi:nodetypes="cc"
         inkscape:connector-curvature="0"
         id="path81"
         d="m 84.860496,70.926215 c 0.653768,-0.05847 1.685303,-0.08615 1.685303,-0.08615"
         style="fill:none;stroke:#000000;stroke-width:0.26458332px;stroke-linecap:butt;stroke-linejoin:miter;stroke-opacity:1" />
      <path
         sodipodi:nodetypes="sscsccccscs"
         inkscape:connector-curvature="0"
         id="path83"
         d="m 74.167857,92.602585 c -2.212534,-1.06234 -4.706716,-2.448763 -6.597062,-2.96707 -2.762023,-0.757314 -4.296078,-0.785294 -4.68963,-0.770933 0.219135,0.206927 0.03266,0.423483 1.915242,2.012381 2.299052,1.940398 5.928319,4.661353 7.114503,5.192092 1.186185,0.530738 5.050195,2.083776 5.519374,2.251762 0.469135,0.168076 0.977084,0.197859 1.117172,0.733356 0.01023,0.03905 0.01239,0.08646 0.01105,0.138203 0.07035,-0.04596 0.120713,-0.08812 0.137489,-0.123855 0.312316,-0.665334 -0.402471,-3.173906 -1.417123,-4.314514 -0.380495,-0.427728 -1.783503,-1.513999 -3.111016,-2.151422 z"
         style="fill:#cccccc;fill-opacity:1;stroke:none;stroke-width:0.26458332px;stroke-linecap:butt;stroke-linejoin:miter;stroke-opacity:1" />
      <path
         sodipodi:nodetypes="cscsccccccc"
         inkscape:connector-curvature="0"
         id="path4596"
         d="m 104.48799,102.90465 c 0,0 -0.66639,0.41096 -1.85283,0.43302 -0.40333,0.007 -1.86529,-0.66132 -1.86529,-0.66132 0,0 -0.922753,-0.47115 -1.136596,-0.57153 -0.21385,-0.10039 -1.726398,-0.0959 -1.726398,-0.0959 0,0 -0.717813,-0.42798 -1.100119,-0.50304 -0.354827,-0.0697 -1.676906,0.82013 -1.970385,0.98667 2.291616,0.30253 7.883388,1.30857 8.386788,1.48327 0.603,0.20926 -0.29905,-0.62023 1.65131,-0.92261 0.21805,-0.0338 0.083,-0.21734 0.46099,-0.2091 z"
         style="fill:#cccccc;fill-opacity:1;stroke:none;stroke-width:0.26458332px;stroke-linecap:butt;stroke-linejoin:miter;stroke-opacity:1" />
      <path
         sodipodi:nodetypes="ccccccccccccccccccccccccccccccccccsscsscsccccc"
         inkscape:connector-curvature="0"
         id="path5485"
         d="m 92.169413,103.22439 -0.392959,2.02157 -1.118501,1.28304 -2.034941,1.11154 c 0,0 -1.385552,2.00722 -1.889207,3.39468 -0.503668,1.38745 -2.559843,4.03893 -2.559843,4.03893 l -0.616046,2.88484 -1.804314,2.58508 -0.886221,2.83166 0.780761,1.9535 -1.418535,2.47103 -0.24802,3.55653 0.50404,4.9862 1.587089,4.41243 -1.392185,4.63995 3.32745,7.61418 c 0,0 -1.066323,-7.43842 -0.676133,-7.37263 0.148768,-0.43529 -0.280461,-0.85982 -0.362047,-1.34479 -0.08763,-0.52091 0.02219,-0.91218 0.391893,-1.0708 0.369712,-0.1586 0.481395,-0.47522 0.4345,-1.16155 -0.04689,-0.68634 -1.257676,-7.93488 -1.315067,-8.4416 -0.0574,-0.50673 0.267675,-0.64905 0.35225,-1.4582 0.08457,-0.80915 -0.188951,-2.52833 -0.248305,-2.79106 -0.05938,-0.26275 0.327395,-0.42053 0.256695,-0.71469 -0.0707,-0.29415 -0.34723,-0.37216 -0.397849,-0.7091 -0.05061,-0.33691 0.216887,-0.62882 0.08204,-0.95308 -0.134844,-0.32426 -0.161926,-0.9889 -0.115686,-1.25426 0.04627,-0.26535 0.582115,-0.40542 0.703864,-0.60925 0.121771,-0.2038 -0.122626,-0.68404 -0.243515,-0.87127 -0.120902,-0.18724 0.110182,-0.23535 0.302127,-0.58889 0.19204,-0.3535 -0.240148,-0.48574 -0.343529,-0.73726 -0.103374,-0.25151 0.157857,-0.25768 0.276682,-0.58942 0.118815,-0.33174 -0.09377,-0.46879 -0.114438,-0.69993 -0.02067,-0.23114 0.319783,-0.36664 0.505251,-0.72245 0.185465,-0.35583 0.07284,-0.98055 0.242279,-1.3808 0.169432,-0.40025 0.506375,-0.37135 0.698949,-0.74229 0.192562,-0.37094 0.327405,-0.65832 0.163545,-0.93822 -0.163861,-0.27991 0.74388,-1.9386 0.928429,-2.33175 0.184545,-0.39315 0.494411,-0.26643 0.707354,-0.72006 0.212942,-0.45364 1.323631,-1.70864 1.557078,-2.09488 0.233495,-0.38624 0.560511,-0.41574 0.741198,-0.80066 0.180682,-0.38492 0.195623,-0.63848 0.395095,-1.11896 0.199452,-0.48051 0.675205,-0.88351 1.087199,-1.31643 0.412026,-0.43292 2.148458,-4.19433 2.268828,-4.76524 0.101942,-0.48355 -0.223038,-0.95658 -0.117255,-1.48563 z"
         style="fill:#cccccc;fill-opacity:1;stroke:none;stroke-width:0.26458332px;stroke-linecap:butt;stroke-linejoin:miter;stroke-opacity:1" />
      <path
         inkscape:connector-curvature="0"
         id="path6018"
         d="m 92.03466,67.877608 -2.146563,0.35047 c 0,0 -0.706976,0.405922 -0.733519,0.54109 -0.02654,0.135165 -0.474774,-0.475562 -1.048674,0.193351 -0.573904,0.668909 -1.560151,1.877648 -1.560151,1.877648 0,0 0.241423,1.320536 0.364239,1.452 0.12282,0.131469 1.315206,3.016153 1.315208,3.016154 l 1.620294,2.052454 c 0,0 0.06858,-0.04788 0.08045,-0.05586 -1.006888,-2.168743 -2.002198,-4.181758 -2.22676,-4.697097 -0.414587,-0.951419 0.08786,-1.576517 0.371544,-2.069669 0.278118,-0.483475 3.562185,-2.322519 3.96393,-2.660545 z"
         style="fill:#cccccc;fill-opacity:0.92823008;stroke:none;stroke-width:0.26458332px;stroke-linecap:butt;stroke-linejoin:miter;stroke-opacity:1" />
      <path
         sodipodi:nodetypes="cccccc"
         inkscape:connector-curvature="0"
         id="path6023"
         d="m 62.291611,87.621928 c 0.220873,-0.625031 0.196926,-0.426579 -0.592053,-0.18214 -0.56561,0.204234 -6.263864,-1.245677 -6.263864,-1.245677 0,0 3.011819,0.915755 5.592006,1.905478 0.04013,0.01442 0.828082,0.290173 0.828082,0.290173 0,0 0.345478,-0.512575 0.435797,-0.767772 z"
         style="fill:#786721;stroke:none;stroke-width:0.26458332px;stroke-linecap:butt;stroke-linejoin:miter;stroke-opacity:1" />
      <path
         inkscape:connector-curvature="0"
         id="path6028"
         d="m 136.91825,110.30031 -3.1998,-1.18918 c 0,0 -5.75319,-1.86537 -6.00719,-1.88021 -0.254,-0.0148 -5.55659,-1.61673 -5.55659,-1.61673 l -3.26385,-0.56504 c 0.28164,0.066 0.54646,0.13055 0.78915,0.1929 2.88122,0.74014 11.58903,3.39869 17.1683,5.1453 0.0159,-0.0197 0.07,-0.087 0.07,-0.087 z"
         style="fill:#cccccc;stroke:none;stroke-width:0.26458332px;stroke-linecap:butt;stroke-linejoin:miter;stroke-opacity:1" />
      <path
         inkscape:connector-curvature="0"
         id="path6033"
         d="m 157.23059,118.81731 c -0.29955,-0.15791 -0.21273,0.18735 -0.50204,0.27298 -0.38576,0.11417 -1.13463,-0.56971 -1.13463,-0.56971 0,0 -1.10117,-0.4063 -1.26288,-0.29768 0,0 -0.0463,0.21478 -0.0655,0.30264 0.21826,0.18568 0.41069,0.34465 0.53659,0.43056 0.61273,0.41811 1.69008,-0.0417 4.04456,2.00303 0.89332,0.7758 2.91096,2.1838 5.12367,3.66388 l 0.0241,-0.0184 c 0,0 -3.42908,-2.67985 -3.52166,-2.79713 -0.0926,-0.11727 -1.92928,-1.86554 -2.78532,-2.63643 -0.21401,-0.19273 -0.35693,-0.30107 -0.45678,-0.35371 z"
         style="fill:#cccccc;stroke:none;stroke-width:0.26458332px;stroke-linecap:butt;stroke-linejoin:miter;stroke-opacity:1" />
      <path
         inkscape:connector-curvature="0"
         id="path6044"
         d="m 78.104086,67.086201 c 0.158421,-0.0039 1.601686,-0.187631 1.601686,-0.187631"
         style="fill:none;stroke:#000000;stroke-width:0.26458332px;stroke-linecap:butt;stroke-linejoin:miter;stroke-opacity:1" />
      <path
         inkscape:connector-curvature="0"
         id="path6046"
         d="m 78.996555,68.131459 1.378681,-0.657666"
         style="fill:none;stroke:#000000;stroke-width:0.26458332px;stroke-linecap:butt;stroke-linejoin:miter;stroke-opacity:1" />
      <path
         inkscape:connector-curvature="0"
         id="path6048"
         d="m 79.486214,68.70057 1.382608,-0.499246"
         style="fill:none;stroke:#000000;stroke-width:0.26458332px;stroke-linecap:butt;stroke-linejoin:miter;stroke-opacity:1" />
    </g>
  </g>
</svg>
