<?xml version="1.0" encoding="UTF-8" standalone="no"?>
<!-- Created with Inkscape (http://www.inkscape.org/) -->

<svg
   xmlns:dc="http://purl.org/dc/elements/1.1/"
   xmlns:cc="http://creativecommons.org/ns#"
   xmlns:rdf="http://www.w3.org/1999/02/22-rdf-syntax-ns#"
   xmlns:svg="http://www.w3.org/2000/svg"
   xmlns="http://www.w3.org/2000/svg"
   xmlns:xlink="http://www.w3.org/1999/xlink"
   xmlns:sodipodi="http://sodipodi.sourceforge.net/DTD/sodipodi-0.dtd"
   xmlns:inkscape="http://www.inkscape.org/namespaces/inkscape"
   width="210mm"
   height="297mm"
   viewBox="0 0 210 297"
   version="1.1"
   id="svg8"
   inkscape:version="0.92.4 (5da689c313, 2019-01-14)"
   sodipodi:docname="Level_Selection_OPTIMOB.svg">
  <defs
     id="defs2">
    <linearGradient
       id="Easytohard-3">
      <stop
         style="stop-color:#b1ff00;stop-opacity:1;"
         offset="0"
         id="stop1400" />
      <stop
         style="stop-color:#fffc00;stop-opacity:1;"
         offset="1"
         id="stop1402" />
    </linearGradient>
    <linearGradient
       id="linearGradient1382">
      <stop
         id="stop1364"
         offset="0"
         style="stop-color:#ff6600;stop-opacity:1;" />
      <stop
         style="stop-color:#fc6500;stop-opacity:1;"
         offset="0.12522477"
         id="stop1366" />
      <stop
         style="stop-color:#c75508;stop-opacity:1;"
         offset="0.12522477"
         id="stop1368" />
      <stop
         style="stop-color:#f66200;stop-opacity:1;"
         offset="0.27837819"
         id="stop1370" />
      <stop
         style="stop-color:#944008;stop-opacity:1;"
         offset="0.43062279"
         id="stop1372" />
      <stop
         style="stop-color:#b04803;stop-opacity:1;"
         offset="0.58655947"
         id="stop1374" />
      <stop
         style="stop-color:#a64607;stop-opacity:1;"
         offset="0.72599554"
         id="stop1376" />
      <stop
         id="stop1378"
         offset="0.86717266"
         style="stop-color:#9c3e00;stop-opacity:1;" />
      <stop
         id="stop1380"
         offset="1"
         style="stop-color:#642e0b;stop-opacity:1;" />
    </linearGradient>
    <linearGradient
       id="linearGradient1342">
      <stop
         style="stop-color:#ff6600;stop-opacity:1;"
         offset="0"
         id="stop1338" />
      <stop
         id="stop1360"
         offset="0.015625"
         style="stop-color:#fc6500;stop-opacity:1;" />
      <stop
         id="stop1358"
         offset="0.12522477"
         style="stop-color:#c75508;stop-opacity:1;" />
      <stop
         id="stop1356"
         offset="0.27837819"
         style="stop-color:#f66200;stop-opacity:1;" />
      <stop
         id="stop1354"
         offset="0.43062279"
         style="stop-color:#944008;stop-opacity:1;" />
      <stop
         id="stop1352"
         offset="0.58655947"
         style="stop-color:#b04803;stop-opacity:1;" />
      <stop
         id="stop1348"
         offset="0.72599554"
         style="stop-color:#a64607;stop-opacity:1;" />
      <stop
         style="stop-color:#9c3e00;stop-opacity:1;"
         offset="0.86717266"
         id="stop1350" />
      <stop
         style="stop-color:#642e0b;stop-opacity:1;"
         offset="1"
         id="stop1340" />
    </linearGradient>
    <linearGradient
       id="linearGradient887">
      <stop
         style="stop-color:#ff0009;stop-opacity:1;"
         offset="0"
         id="stop883" />
      <stop
         id="stop933"
         offset="1"
         style="stop-color:#000000;stop-opacity:1;" />
    </linearGradient>
    <linearGradient
       inkscape:collect="always"
       xlink:href="#linearGradient1342"
       id="linearGradient1346"
       gradientUnits="userSpaceOnUse"
       x1="117.632"
       y1="156.16899"
       x2="154.62878"
       y2="161.50102" />
    <linearGradient
       inkscape:collect="always"
       xlink:href="#linearGradient887"
       id="linearGradient931"
       x1="14.802776"
       y1="178.17537"
       x2="14.912404"
       y2="191.47067"
       gradientUnits="userSpaceOnUse"
       gradientTransform="matrix(1.0069129,0,0,1.0422473,-0.09882214,-7.7286377)" />
    <linearGradient
       inkscape:collect="always"
       xlink:href="#linearGradient887"
       id="linearGradient941"
       x1="15.015103"
       y1="179.39272"
       x2="14.882812"
       y2="190.57135"
       gradientUnits="userSpaceOnUse" />
    <linearGradient
       inkscape:collect="always"
       xlink:href="#linearGradient887"
       id="linearGradient954"
       gradientUnits="userSpaceOnUse"
       x1="15.015103"
       y1="179.39272"
       x2="14.882812"
       y2="190.57135" />
    <linearGradient
       inkscape:collect="always"
       xlink:href="#linearGradient887"
       id="linearGradient973"
       gradientUnits="userSpaceOnUse"
       x1="15.015103"
       y1="179.39272"
       x2="14.882812"
       y2="190.57135" />
    <linearGradient
       inkscape:collect="always"
       xlink:href="#linearGradient887"
       id="linearGradient975"
       gradientUnits="userSpaceOnUse"
       gradientTransform="matrix(1.0069129,0,0,1.0422473,-0.09882214,-7.7286377)"
       x1="14.802776"
       y1="178.17537"
       x2="14.912404"
       y2="191.47067" />
  </defs>
  <sodipodi:namedview
     id="base"
     pagecolor="#ffffff"
     bordercolor="#666666"
     borderopacity="1.0"
     inkscape:pageopacity="0.0"
     inkscape:pageshadow="2"
     inkscape:zoom="0.7071068"
     inkscape:cx="314.98188"
     inkscape:cy="734.05854"
     inkscape:document-units="mm"
     inkscape:current-layer="g1311"
     showgrid="false"
     inkscape:window-width="1920"
     inkscape:window-height="1017"
     inkscape:window-x="-8"
     inkscape:window-y="-8"
     inkscape:window-maximized="1"
     inkscape:snap-global="false"
     showguides="false" />
  <metadata
     id="metadata5">
    <rdf:RDF>
      <cc:Work
         rdf:about="">
        <dc:format>image/svg+xml</dc:format>
        <dc:type
           rdf:resource="http://purl.org/dc/dcmitype/StillImage" />
        <dc:title />
      </cc:Work>
    </rdf:RDF>
  </metadata>
  <g
     inkscape:label="Calque 1"
     inkscape:groupmode="layer"
     id="layer1">
    <ellipse
       style="opacity:1;fill:#87cdde;fill-opacity:1;stroke:none;stroke-width:5.01683474;stroke-linecap:round;stroke-linejoin:round;stroke-miterlimit:4;stroke-dasharray:none;stroke-dashoffset:0;stroke-opacity:1"
       id="path821"
       cx="154.1105"
       cy="71.306091"
       rx="83.882561"
       ry="62.927731"
       transform="matrix(0.87460589,0.48483454,-0.49591422,0.86837151,0,0)" />
    <path
       inkscape:connector-curvature="0"
       id="path4572"
       d="m 111.12419,184.56608 c -1.84363,-0.0953 -2.38881,-1.13343 -4.10919,-0.93561 -1.31995,0.15184 -2.25563,0.0443 -2.45318,-0.28178 -0.17564,-0.28993 -0.91956,-0.52714 -1.65313,-0.52714 -2.19772,0 -7.030074,-1.32393 -9.461514,-2.59216 -4.76805,-2.08566 -8.93043,1.85122 -13.6235,-4.66158 -1.30245,-1.91171 -2.39917,-2.65209 -5.344246,-3.60779 -2.18691,-0.70966 -3.53901,-1.83285 -3.53901,-2.93984 0,-1.57543 -3.49707,-2.89417 -8.28185,-3.12307 -3.63478,-0.1738 -4.37835,-0.34215 -4.55487,-1.03081 -0.11819,-0.46092 -1.00767,-1.06649 -2.0218,-1.37646 -1.392767,-0.42569 -1.874287,-0.84946 -2.085677,-1.83559 -0.15111,-0.70514 -0.34739,-1.52743 -0.4361,-1.82732 -0.87879,-2.28696 -2.1349,-3.44596 -5.86171,-6.58668 -1.37701,-0.89272 -1.84435,-1.61122 -2.46521,-3.78986 -0.4367,-1.53248 -0.63302,-3.21689 -0.45661,-3.91777 0.95561,-3.7966 1.08584,-6.83084 0.35511,-8.27356 -0.40759,-0.80468 -1.03515,-1.68289 -1.39458,-1.95156 -0.35944,-0.26867 -0.71404,-1.05076 -0.78799,-1.73796 -0.21863,-2.03186 -3.32013,-6.39731 -4.786691,-6.73742 -1.452601,-0.33687 -2.895151,-2.79766 -2.895151,-4.93871 0,-1.11008 -0.640674,-1.43099 -1.356454,-1.97373 -0.721196,-0.41814 -1.179477,-1.27919 -1.423271,-1.7964 -0.437029,-0.92716 0.09254,-2.17263 -0.04949,-2.55028 0.36672,-0.92744 0.829631,-2.22638 2.336531,-2.22638 0.711854,0 1.824375,-0.42536 2.472248,-0.94524 0.647873,-0.51988 1.794658,-0.79187 2.494728,-0.95248 2.71694,-0.32997 4.41588,-1.45844 7.24462,-3.01959 4.44664,-5.67857 1.60862,-8.35904 3.55003,-12.05962 0.48946,-0.932971 0.77715,-0.995437 3.26311,-0.708508 5.731827,-0.483309 6.053047,-2.409393 11.334897,-4.711067 1.80378,-0.873417 3.5609,-1.933803 3.9047,-2.356418 0.34381,-0.422597 0.926,-0.768366 1.29377,-0.768366 0.36776,0 1.12403,-0.265851 1.6806,-0.590775 4.653026,-0.949505 6.150706,-0.131916 8.255096,-0.621761 0.78256,-0.179735 1.89792,0.07234 3.10874,0.702453 1.03857,0.540509 2.67364,0.982737 3.6335,0.982737 0.95985,0 3.34362,0.350395 5.29727,0.778672 3.8664,0.847588 3.16896,0.09073 5.27392,-0.146492 2.17676,0.09276 0.30506,0.08267 2.682234,0.09548 1.44514,0.03726 3.09755,0.03462 4.23747,0.941555 0.49461,0.381637 1.59583,0.693896 2.44714,0.693896 0.8513,0 2.28968,0.316206 3.19639,0.702667 1.18828,0.506498 1.27065,0.542847 2.93243,1.347689 2.32045,1.074615 0.72444,0.606335 2.41569,1.290549 0.83517,0.352915 2.14978,0.66562 2.92132,0.694897 4.26583,0.161836 3.68892,0.507802 4.41417,1.146377 1.13504,1.451311 3.4858,4.976585 4.23858,8.400925 0.21331,0.72097 0.41571,1.90687 0.93162,2.30026 0.66486,1.66564 0.80783,1.63251 1.47468,3.17026 0.72424,1.36337 1.4889,2.65461 3.52601,3.75356 1.59142,0.85852 2.15423,1.48222 2.47246,2.73995 0.22659,0.89564 1.14988,2.54846 2.05174,3.67296 4.40475,2.17031 3.40319,4.99505 5.28421,7.20009 0.41408,0.4392 0.83103,0.98462 0.92658,1.21206 0.0956,0.22745 0.84285,0.89207 1.66066,1.47693 3.73011,1.48743 1.28511,0.48091 5.50546,1.29969 l 1.58741,1.35785 c 0.87309,0.7468 2.06099,1.57795 2.63979,1.84699 0.57881,0.26903 1.51767,1.25308 2.08634,2.18679 0.8729,1.43318 1.02318,2.30754 0.96468,5.61249 -0.0597,3.37117 -0.25703,4.25723 -1.42117,6.38036 -2.33693,4.26207 -2.98716,11.64473 -1.4035,15.93514 0.53618,1.45259 1.4049,7.55918 1.46088,10.26918 0.0354,1.71237 -0.21689,2.26809 -1.76279,3.88311 -3.60084,2.91394 2.31128,2.40517 -14.38705,4.97932 -1.52886,0.3766 -4.5134,0.69229 -6.63231,0.70157 -2.11893,0.009 -4.30795,0.26675 -4.86453,0.57219 -2.40987,1.32258 -5.97816,1.70464 -10.00103,1.0708 -2.51403,-0.42833 -2.33161,-0.83236 -8.04321,-1.29967 z"
       style="display:inline;fill:#eeffaa;stroke:#000000;stroke-width:0.26800001;stroke-miterlimit:4;stroke-dasharray:none"
       sodipodi:nodetypes="cccscccsccccccccccccscscssccccccscccsccccsccccccccsccccccccccccscccccc" />
    <path
       style="fill:#88aa00;stroke:none;stroke-width:0.26458332px;stroke-linecap:butt;stroke-linejoin:miter;stroke-opacity:1"
       d="m 74.272322,96.105653 -5.291667,2.078869 -6.047621,1.322916 -4.535712,3.590772 -1.322917,4.34673 -2.456847,5.10268 -4.4595,0.79634 -0.621691,0.21876 -0.911015,0.29141 -4.255691,2.19648 -0.691926,0.60608 -0.700701,0.84013 -0.565944,1.13189 -0.293931,1.31283 0.282247,0.66029 4.091666,4.419 1.889879,3.2128 2.267858,4.91369 2.645833,4.34673 0.755951,4.15773 -2.456844,4.34673 c 0,0 1.511906,5.10268 2.267858,5.29167 0.755951,0.18898 5.102677,3.96875 5.102677,3.96875 l 5.480656,5.48065 6.047618,2.26786 10.8251,5.24341 1.270139,1.12971 1.42382,1.14663 1.368499,1.59659 0.890099,0.50057 1.399503,0.5465 9.659149,1.93183 8.315473,1.32291 4.19554,1.39852 5.7287,1.45757 2.33174,0.078 8.7217,-1.98916 12.28423,-0.75595 8.31547,-2.83482 0.85354,-0.94837 0.59011,-0.89474 0.14057,-0.66906 -1.01725,-5.42533 -1.32292,-6.04762 0.37798,-6.42559 2.30704,-5.9324 0.16339,-0.90625 -0.0473,-1.13391 -0.53329,-2.79976 -0.26283,-3.15389 -0.41281,-0.95188 -0.61444,-0.73398 -6.66254,-2.22085 -0.89675,-0.49184 -0.60052,-0.58691 -5.29118,-7.16869 -3.40179,-4.15774 -4.7247,-5.48065 -1.61971,-3.68117 -0.59948,-0.90322 -0.86789,-0.81977 -6.63726,-4.47293 -0.71725,-0.6401 -0.67865,-0.74152 -1.8695,-3.62904 -0.99538,-1.33689 -1.86773,-1.15284 -10.794471,-3.222226 -8.882441,-0.566965 -5.291667,-0.755951 z"
       id="path867"
       inkscape:connector-curvature="0"
       sodipodi:nodetypes="ccccccccccccccccccccccccccccccccccccccccccccccccccccccccccccccccccccccc" />
    <path
       style="fill:#668000;stroke:none;stroke-width:0.26458332px;stroke-linecap:butt;stroke-linejoin:miter;stroke-opacity:1"
       d="m 63.972468,112.8311 2.005866,-0.14328 1.566009,-0.30556 1.649922,-0.79442 3.188175,-2.44201 3.96875,-1.6064 7.492949,-3.64336 2.509246,-0.67029 2.143269,-0.20701 3.162571,0.83539 5.197173,3.2128 4.680872,0.22028 2.1605,0.55457 1.75746,1.2521 0.4726,1.37484 0.47247,3.40178 1.79538,3.2128 -0.10371,2.17805 0.70986,1.55684 0.89671,1.31967 3.29937,2.11751 0.77862,1.23411 0.52176,1.5421 -0.10694,5.18661 0.33164,2.06303 c 0,0 -0.0334,0.6519 0.40172,1.4453 0.66377,1.21029 1.36004,1.62732 1.91576,2.24566 0.13261,0.0332 1.05549,0.66248 2.37994,0.73686 2.45045,0.13761 5.79521,0.29688 5.79521,0.29688 l 7.38475,2.40627 0.82645,0.45099 0.83101,0.65807 4.65414,5.70508 0.33247,0.6684 0.19615,0.81475 -1.09029,19.53453 -4.94907,2.50939 -1.8923,0.36323 -2.23868,0.24274 -11.70864,-1.41446 -3.68527,0.18899 -4.74095,-6.32128 -0.57906,-0.57915 -0.62124,-0.52783 -1.7284,-0.76818 -1.37343,-1.43723 -0.75417,-1.58238 -0.21912,-2.95806 1.78324,-2.39622 0.38974,-0.66879 0.0591,-0.42689 -0.0385,-0.78181 -0.37323,-1.11331 -1.95818,-2.15401 -0.81692,-0.49286 -1.1029,-0.24133 -5.501894,-0.22925 -3.779763,1.88989 -5.197173,1.98437 c 0,0 -1.606397,3.40179 -3.307292,1.70089 -1.700892,-1.70089 -6.331101,-7.08705 -6.331101,-7.08705 0,0 -3.118302,0.28348 -4.819195,-1.03943 -1.700892,-1.32292 -7.181548,-5.76414 -7.181548,-5.76414 0,0 -4.346726,-3.87426 -4.535715,-4.63021 -0.188986,-0.75595 -1.228421,-3.1183 -0.566962,-4.25223 0.661458,-1.13393 -0.661459,-5.76414 -0.661459,-5.76414 l 0.188987,-5.76414 3.023809,-6.42559 z"
       id="path1290"
       inkscape:connector-curvature="0"
       sodipodi:nodetypes="cccccccccccccccccccccccccscsccccccccccccccccccccccccccccccccccccscccc" />
    <path
       style="fill:#445500;stroke:none;stroke-width:0.26458332px;stroke-linecap:butt;stroke-linejoin:miter;stroke-opacity:1"
       d="m 95.755543,113.39806 -5.338916,-0.11811 -5.031807,-0.35435 0.755953,8.69345 2.456845,2.92931 c 0,0 2.834822,1.03944 3.307291,1.32292 0.304619,0.18277 1.229229,0.76416 2.239423,1.07111 0.556645,0.16914 1.523145,0.17352 1.523145,0.17352 l 0.527574,-0.38207 0.607828,-2.29283 2.661558,-2.60935 1.488283,-2.22061 2.48046,-2.10249 1.46467,-0.8977 c 0.39306,-0.39199 0.68679,-0.73888 0.89391,-1.04538 2.17289,-3.21557 -5.18716,-1.98549 -7.390384,-1.74218 z"
       id="path1292"
       inkscape:connector-curvature="0"
       sodipodi:nodetypes="ccccccscccccccscc" />
    <path
       style="fill:#445500;stroke:none;stroke-width:0.26210821px;stroke-linecap:butt;stroke-linejoin:miter;stroke-opacity:1"
       d="m 94.454211,127.77504 1.540341,1.52197 0.191389,0.31289 0.230208,0.56804 -0.02707,0.5338 -0.983393,1.84173 -0.171907,0.42851 c 0,0 0.06167,0.10223 0.150345,0.42242 0.258448,0.93317 0.746317,2.81251 0.605608,3.22678 -0.188987,0.5564 0.519717,2.41109 0.33073,3.06023 -0.157196,0.53994 -0.552772,3.17942 -0.634205,4.07972 -0.01647,0.18209 -0.09658,0.23182 -0.09658,0.23182 0,0 -0.173276,0.25259 -0.260622,0.27833 -0.32943,0.0971 -1.062228,0.44112 -1.302943,0.73755 -0.03964,0.0488 -0.180208,0.15335 -0.180208,0.19607 0,0.0419 -0.07632,0.0635 -0.180261,0.17155 -0.815305,0.84755 -4.337736,3.48566 -4.337736,3.48566 l -1.937129,3.43117 -0.951301,2.08946 -0.04089,0.12259 -0.02475,0.0349 -0.04484,0.0363 -0.06399,0.0292 -0.956494,0.0862 -0.0545,-0.006 -0.06266,-0.005 -1.014384,-0.31759 -0.0697,-0.0313 -0.07614,-0.0571 -2.120986,-2.39824 -1.889883,-2.17926 -2.669099,-3.37345 -0.101529,-0.19742 -0.339949,-0.90794 -0.105284,-0.1668 -1.697829,-4.16416 -0.345938,-5.43193 0.06443,-0.40266 0.191862,-0.29227 3.963903,-3.42478 2.740326,-2.22563 1.700893,-0.92734 0.944941,-0.55641 1.860348,-1.86813 0.153828,-0.15783 0.07346,-0.0553 0.07381,-0.0474 0.208628,-0.0771 1.607443,-0.35923 z"
       id="path1294"
       inkscape:connector-curvature="0"
       sodipodi:nodetypes="cccccccsccscsssscccccccccccccccccccccccccccccccccc" />
    <path
       style="fill:#445500;stroke:none;stroke-width:0.26458332px;stroke-linecap:butt;stroke-linejoin:miter;stroke-opacity:1"
       d="m 84.627638,113.09515 -0.332481,-0.0945 -0.415147,-0.0769 -2.630076,-0.005 -4.912059,-0.19095 -3.29837,-0.005 c -8.600779,2.7962 -3.764492,1.59444 -6.222123,5.942 -0.200454,0.33408 -1.269532,2.07133 -1.269532,2.07133 l -1.124684,1.44602 -0.173243,0.3522 -0.02672,0.31992 0.255568,1.02228 c 0,0 1.069078,1.1359 1.135896,1.46998 0.06682,0.33409 1.135896,3.0736 1.135896,3.0736 l 0.07046,0.21138 0.133328,0.20707 0.154345,0.11243 1.045029,0.60502 c 0,0 1.356241,1.37521 1.623512,1.44203 0.267269,0.0668 1.65054,1.56475 1.65054,1.56475 l 0.152485,0.21348 0.169909,0.16654 0.156375,0.17501 1.961694,1.18387 0.318281,0.17374 0.201704,0.0322 0.358766,-0.0912 6.706875,-5.70991 2.645833,-1.51191 2.078871,-2.17336 0.644153,-0.21478 0.533058,-0.13327 0.249647,-0.28978 -0.137775,-0.28 -1.643787,-2.19987 -0.14211,-0.26654 -0.100393,-0.36525 -0.651803,-7.49601 -0.05236,-0.34497 z"
       id="path1298"
       inkscape:connector-curvature="0"
       sodipodi:nodetypes="ccccccccccccsccccccccccccccccccccccccccc" />
    <path
       style="fill:#ffdd55;stroke:none;stroke-width:0.26065001px;stroke-linecap:butt;stroke-linejoin:miter;stroke-opacity:1"
       d="m 89.809277,131.6674 0.114431,0.12607 0.129406,0.2333 2.100911,5.05196 -2.21893,4.04289 -0.05711,0.0651 -0.05278,0.0458 -0.04243,0.0385 -1.396771,0.80579 -0.917544,0.42828 -0.567637,0.36951 -0.135528,0.0885 c 0,0 -0.0456,0.0564 -0.07242,0.15124 -0.08823,0.31174 -0.308912,1.08164 -0.579202,1.95223 -0.02684,0.0864 -0.05416,0.1016 -0.08189,0.18973 -0.120101,0.38142 -0.247849,0.8471 -0.37666,1.22421 -0.502536,1.3987 -1.119212,0.9191 -1.427823,0.88586 -0.511782,-0.0551 -0.581517,-0.61908 -0.858358,-2.12434 -0.05526,-0.30083 -0.109116,-0.59419 -0.16254,-0.86704 -0.05999,-0.30641 -0.221282,-0.63261 -0.267685,-0.8627 -0.07333,-0.36362 -0.256544,-0.79803 -0.256544,-0.79803 l -2.234248,-2.36458 -0.334813,-0.50316 -0.127009,-0.39883 0.119766,-2.98981 0.03216,-0.14354 0.03482,-0.15416 1.635922,-3.17614 0.194181,-0.25168 0.169741,-0.14243 0.169716,-0.1343 0.372964,-0.14779 3.906817,-1.07315 2.64105,0.17045 0.329886,0.10462 z"
       id="path1315"
       inkscape:connector-curvature="0"
       sodipodi:nodetypes="ccccccccccccssscscsscccccccccccccccc" />
    <path
       style="fill:#ffdd55;stroke:none;stroke-width:0.26458332px;stroke-linecap:butt;stroke-linejoin:miter;stroke-opacity:1"
       d="m 98.447895,118.58507 -0.0141,0.0869 -0.04429,0.13048 -0.836121,0.86424 -3.207235,2.13815 -1.069776,1.17676 -0.225478,0.1792 -0.12853,0.0626 -0.05712,0.0214 -0.03307,0.002 -0.03076,-0.006 -0.130617,-0.0377 -0.102926,-0.0501 -0.05016,-0.0516 -0.06392,-0.0584 -0.316673,-0.19135 -2.25823,-1.53311 -0.06909,-0.0642 -0.04998,-0.0761 -1.560876,-3.38189 2.539061,-0.40091 3.207234,-0.93544 3.474503,1.33635 0.986978,0.59932 0.04262,0.0993 z"
       id="path1317"
       inkscape:connector-curvature="0"
       sodipodi:nodetypes="cccccccccccccccccccccccccc" />
    <path
       style="fill:#ffdd55;stroke:none;stroke-width:0.11367054px;stroke-linecap:butt;stroke-linejoin:miter;stroke-opacity:1"
       d="m 76.373201,119.16743 -1.592618,-0.0339 c -4.196981,0.98416 -1.842803,0.57229 -3.097788,2.2088 -0.102039,0.12563 -0.645544,0.77872 -0.645544,0.77872 l -0.565782,0.54132 -0.08919,0.13282 -0.01793,0.12192 0.107354,0.39293 c 0,0 0.498394,0.44424 0.525413,0.57249 0.02701,0.12825 0.500233,1.18495 0.500233,1.18495 l 0.0307,0.0814 0.06113,0.0804 0.07276,0.0445 0.495116,0.24125 c 0,0 0.633298,0.53844 0.761307,0.56656 0.128008,0.0281 0.772431,0.6137 0.772431,0.6137 l 0.07028,0.083 0.07943,0.0653 0.07276,0.0684 0.869509,0.41947 0.298838,0.007 c 1.294005,-0.34806 2.43477,-1.33445 3.51105,-2.01854 l 1.301338,-0.55167 c 1.057748,-0.90891 1.98703,-0.86464 0.915634,-2.00399 l -0.06444,-0.10318 -0.04274,-0.14048 c -0.620999,-1.75734 -2.038797,-2.40473 -2.494701,-2.77631 -0.393128,-0.32041 0.329841,-0.46673 -1.834562,-0.57708 z"
       id="path1298-2"
       inkscape:connector-curvature="0"
       sodipodi:nodetypes="ccccccccscccccccccccccccccsc" />
    <path
       style="opacity:0.9;fill:#000000;stroke:#000000;stroke-width:0.26059052px;stroke-linecap:butt;stroke-linejoin:miter;stroke-opacity:1"
       d="m 73.532389,94.921605 c -31.71586,16.838295 -34.853993,36.650615 -9.38564,64.047905 15.239809,11.73029 33.425963,18.63508 48.617851,20.16079 26.73594,0.41102 39.52602,-10.1749 21.37134,-23.14819 l -9.94928,1.62102 8.95863,6.4435 0.59792,0.72141 c -0.17143,0.34474 0.009,0.64513 -0.17989,0.96637 C 109.85344,191.71154 14.244463,137.40704 78.008219,99.648461 Z"
       id="path889"
       inkscape:connector-curvature="0"
       sodipodi:nodetypes="cccccccccc" />
    <ellipse
       style="opacity:1;fill:#ffff00;fill-opacity:1;stroke:#000000;stroke-width:0.5;stroke-linecap:round;stroke-linejoin:round;stroke-miterlimit:4;stroke-dasharray:none;stroke-dashoffset:0;stroke-opacity:1"
       id="path831-0-1"
       cx="62.275249"
       cy="146.50046"
       rx="6.6145835"
       ry="6.5200887" />
    <ellipse
       style="opacity:1;fill:#ccff00;fill-opacity:1;stroke:#000000;stroke-width:0.5;stroke-linecap:round;stroke-linejoin:round;stroke-miterlimit:4;stroke-dasharray:none;stroke-dashoffset:0;stroke-opacity:1"
       id="path831-0"
       cx="80.130951"
       cy="94.404755"
       rx="6.6145835"
       ry="6.5200887" />
    <g
       id="g971"
       transform="translate(112.18334,-34.528124)">
      <path
         sodipodi:nodetypes="cccccccccccscccccccccccccccccccccscccccccc"
         inkscape:connector-curvature="0"
         id="path907"
         d="m 14.236781,194.39632 -1.17457,-0.6365 -2.59962,0.31906 -2.5830897,0.36868 -0.37253,-0.34225 c -0.16395,-0.13822 -0.40791,-0.34447 -0.58256,-0.48865 l -0.23485,-0.15466 -1.19729,0.0683 c -0.66759,0.0694 -1.709934,0.24018 -1.720074,0.22797 -0.0262,-0.0315 1.230904,-0.97966 1.606274,-1.23026 0.69047,-0.46099 2.63638,-1.98756 2.91696,-2.3351 0.16009,-0.19829 0.42206,-0.62349 0.58215,-0.94487 0.16009,-0.32138 0.39979,-0.96914 0.4755,-1.11791 0.12242,-0.24055 0.21631,-0.14673 1.4729597,-1.01693 0.77719,-0.53819 1.45488,-1.00114 1.46302,-0.98836 0.008,0.0128 0.0785,0.28266 0.16132,0.52142 0.16256,0.46842 0.2022,0.40877 0.8955,0.78898 l 0.34168,0.263 0.75714,-1.42735 c 0.41643,-0.78504 0.77732,-1.5845 0.79188,-1.58457 0.0146,-6e-5 0.46691,1.05958 1.01534,2.16274 0.54843,1.10317 1.0156,2.01947 1.03814,2.03624 0.0225,0.0168 0.3458,-0.86442 0.71834,-1.9582 0.37254,-1.09377 0.76483,-2.21794 0.87175,-2.49816 l 0.22748,-0.67485 0.0597,0.67485 c 0.28399,1.5598 0.51664,2.75586 0.56076,2.8829 0.0848,0.24424 1.12284,1.86884 2.40182,3.75907 l 1.417597,1.90106 0.634284,0.46394 c 0.35795,0.26426 0.593459,0.51638 0.745689,0.66132 l 0.475207,0.29659 -0.568897,0.0507 c -0.20375,0.0461 -0.833244,0.31346 -1.458681,0.27464 l -1.435496,-0.0406 -0.565498,-0.23409 -0.648171,-0.0687 -1.329798,0.1252 c -0.64954,0.11434 -1.495236,0.28071 -2.222926,0.40003 -0.72768,0.11933 -1.59708,0.30573 -1.69956,0.32327 -0.16161,0.0277 -0.25944,-0.15995 -1.27821,-0.81957 z"
         style="opacity:1;fill:url(#linearGradient973);fill-opacity:1;stroke:#000000;stroke-width:0.0588052;stroke-linecap:round;stroke-linejoin:round;stroke-miterlimit:4;stroke-dasharray:none;stroke-dashoffset:0;stroke-opacity:1" />
      <path
         sodipodi:nodetypes="ccccscccccccccccccccccccccccscccc"
         inkscape:connector-curvature="0"
         id="path901"
         d="m 17.10493,188.29341 c -0.335242,-0.57297 -0.668892,-1.37599 -1.301566,-2.70349 l -0.559269,-1.1735 -0.118071,0.22763 c -0.06495,0.12521 -0.432892,0.84254 -0.817674,1.5941 l -0.690772,1.4274 -0.456061,-0.26041 c -0.229788,-0.13651 -0.411213,-0.24333 -0.421142,-0.25601 -0.01007,-0.0127 -0.0876,-0.32597 -0.190487,-0.61803 -0.125915,-0.35725 -0.200064,-0.52963 -0.226626,-0.52677 -0.02175,0.002 -0.599808,0.45079 -1.327836,0.97423 -0.728019,0.52344 -1.512635,1.10105 -1.5172668,1.09529 -0.00503,-0.006 0.014234,-0.2206 0.081577,-0.35728 0.2449517,-0.49744 0.5333128,-0.99636 1.1988008,-3.09402 0.565855,-1.78357 0.589681,-1.6218 0.601995,-2.95195 0.03192,-3.44418 -10e-4,-4.43287 0.02759,-4.43308 0.01208,-0.0389 0.388154,0.0322 0.78071,0.0982 l 0.722047,0.12852 0.750875,0.37081 0.700922,0.37943 0.813847,0.11364 0.7181,0.0361 0.71071,-0.29694 c 0.688738,-0.32918 0.707497,-0.34763 1.386801,-0.51457 0.381005,-0.0936 0.835858,-0.17673 0.858141,-0.18466 0.03524,-0.0126 -0.04733,0.25043 -0.134735,1.80374 l -0.100389,1.78369 0.132087,0.69696 c 0.189732,1.00106 0.385426,1.77389 0.385426,1.84855 0,0.0355 -0.204011,0.4245 -0.374209,0.90157 -0.234289,0.65672 -0.903775,2.82265 -1.418519,4.23934 -0.01218,0.0374 -0.07552,-0.0653 -0.214986,-0.34847 z"
         style="opacity:1;fill:url(#linearGradient975);fill-opacity:1;stroke:none;stroke-width:0.03012084;stroke-linecap:round;stroke-linejoin:round;stroke-miterlimit:4;stroke-dasharray:none;stroke-dashoffset:0;stroke-opacity:1" />
      <path
         sodipodi:nodetypes="ccccccccccccccccccccccscccccc"
         transform="scale(0.26458333)"
         inkscape:connector-curvature="0"
         id="path952"
         d="m 56.486053,674.18481 -2.070059,-0.27581 -2.628098,-1.31978 -2.628097,-1.38227 -2.673768,-0.38576 c -1.419009,-0.22936 -2.605325,-0.18705 -2.712647,-0.43035 l -0.72638,-0.1384 0.306372,-0.46407 c 0.09976,-0.13492 0.40486,-0.39786 0.639816,-0.5079 0.383314,-0.17954 0.688097,-0.34572 1.056349,-0.25305 0.225723,0.0568 1.545431,0.24046 2.818101,0.40804 l 2.157695,0.33595 1.520907,0.61895 c 0.802125,0.32324 2.068832,0.92695 3.120463,1.30339 l 2.255804,0.52818 2.252001,-0.1552 2.627001,-0.31144 1.986517,-0.47015 c 0.972272,-0.32734 2.037666,-0.92964 2.329347,-1.0329 0.291682,-0.10325 1.342875,-0.20047 2.412374,-0.3688 l 2.163294,-0.36857 0.41762,0.44215 c 0.109381,0.12287 0.07387,0.46952 0.07387,0.57935 0,0.18909 -0.213751,0.1734 -2.913024,0.8196 l -3.038024,0.77615 -2.263662,1.1276 c -1.994966,0.92161 -2.590516,1.15653 -2.854316,1.14857 -0.187359,-0.006 -1.506554,0.17499 -2.816963,0.0577 z"
         style="opacity:1;fill:#552200;fill-opacity:1;stroke:#000000;stroke-width:0.08952974;stroke-linecap:round;stroke-linejoin:round;stroke-miterlimit:4;stroke-dasharray:none;stroke-dashoffset:0;stroke-opacity:1" />
      <path
         sodipodi:nodetypes="ccccscccc"
         inkscape:connector-curvature="0"
         id="path893"
         d="m 11.344331,177.24857 0.004,5.18206 c 0,0 0.10169,0.0245 -0.42753,1.55274 -0.52923,1.52846 -0.84677,2.80219 -1.3759897,3.69379 -0.52923,0.8916 -0.84677,2.16533 -1.79938,2.92956 -0.95261,0.76423 -2.01106,1.65584 -2.43444,1.91058 -0.42339,0.25474 -1.27015,1.01898 -1.27015,1.01898 l -0.84676,0.25474 0.42338,-0.12737"
         style="fill:none;stroke:#000000;stroke-width:0.16420576px;stroke-linecap:butt;stroke-linejoin:miter;stroke-opacity:1" />
      <path
         sodipodi:nodetypes="ccccccccccccc"
         inkscape:connector-curvature="0"
         id="path895"
         d="m 11.278551,177.34425 1.65346,0.2705 1.48183,0.76424 1.48185,0.12737 1.37599,-0.63686 1.58768,-0.38212 -0.20527,3.54391 c 0,0 0.41696,2.06047 0.52281,2.8247 0.10584,0.76424 0.63507,3.43905 0.63507,3.43905 l 1.10644,2.15489 2.4923,3.32211 1.376,1.01898 0.0859,0.0992"
         style="fill:none;stroke:#000000;stroke-width:0.16420576px;stroke-linecap:butt;stroke-linejoin:miter;stroke-opacity:1" />
      <path
         sodipodi:nodetypes="cccccccccccccc"
         inkscape:connector-curvature="0"
         id="path897"
         d="m 11.329871,177.30248 0.19969,-0.22109 0.26461,-0.13534 0.26461,0.0637 1.21723,0.15921 0.87323,0.35028 0.89968,0.31843 1.32307,-0.15921 c 0,0 0.92615,-0.28659 1.03199,-0.35028 0.10585,-0.0637 0.60861,-0.12737 0.60861,-0.12737 l 0.66153,-0.10349 0.13892,0.10346 0.0557,0.20324 -0.0192,0.13511"
         style="fill:none;stroke:#000000;stroke-width:0.16420576px;stroke-linecap:butt;stroke-linejoin:miter;stroke-opacity:1" />
      <path
         sodipodi:nodetypes="cccccccccc"
         id="path899"
         inkscape:connector-curvature="0"
         d="m 9.3543613,188.05028 2.9690397,-2.06081 0.37046,1.01898 0.97015,0.59981 1.57014,-3.05172 c 0,0 1.13784,2.2927 1.19076,2.42007 0.0529,0.12737 0.465563,0.98714 0.465563,0.98714 l 0.407667,0.73239 1.231686,-3.49105 0.594144,-1.73121"
         style="fill:none;stroke:#000000;stroke-width:0.16420576px;stroke-linecap:butt;stroke-linejoin:miter;stroke-opacity:1" />
      <path
         sodipodi:nodetypes="ccccccccccc"
         inkscape:connector-curvature="0"
         id="path905"
         d="m 3.1810013,193.78306 3.47967,-0.34231 1.21722,1.01898 5.1599597,-0.70055 c 0,0 2.1963,1.43294 2.32861,1.49662 0.13231,0.0637 5.39812,-0.8916 5.39812,-0.8916 l 1.32306,0.38211 1.98461,-0.0319 1.37599,-0.28658 -0.56892,-0.53537 -0.17531,-0.16122"
         style="fill:none;stroke:#000000;stroke-width:0.16420576px;stroke-linecap:butt;stroke-linejoin:miter;stroke-opacity:1" />
    </g>
    <ellipse
       style="opacity:1;fill:#ff0000;fill-opacity:1;stroke:#000000;stroke-width:0.5;stroke-linecap:round;stroke-linejoin:round;stroke-miterlimit:4;stroke-dasharray:none;stroke-dashoffset:0;stroke-opacity:1"
       id="path831-0-1-4"
       cx="135.14265"
       cy="161.35989"
       rx="6.6145835"
       ry="6.5200887" />
    <g
       id="g1121"
       transform="matrix(0.76300806,0,0,0.74453473,43.42536,36.199338)"
       style="stroke:#1a1a1a">
      <g
         id="g1133"
         style="stroke:#1a1a1a">
        <g
           style="stroke:#1a1a1a"
           id="g1004"
           transform="matrix(0.31072959,0,0,0.35018188,-42.697632,121.87896)">
          <path
             sodipodi:nodetypes="cccc"
             inkscape:connector-curvature="0"
             id="path995"
             d="m 173.10279,100.76712 9.4e-4,-2.072323 0.0104,-22.861635 -0.009,0.467643"
             style="fill:none;stroke:#1a1a1a;stroke-width:1;stroke-linecap:round;stroke-linejoin:miter;stroke-miterlimit:4;stroke-dasharray:none;stroke-opacity:1" />
          <path
             inkscape:connector-curvature="0"
             id="path997"
             d="m 172.62373,68.202625 0.0681,-3.20544"
             style="fill:none;stroke:#1a1a1a;stroke-width:0.76169986;stroke-linecap:round;stroke-linejoin:miter;stroke-miterlimit:4;stroke-dasharray:none;stroke-opacity:1" />
          <path
             d="m 157.37172,79.365249 a 15.855764,11.318865 0 0 1 7.13917,-10.166888 15.855764,11.318865 0 0 1 15.90848,-0.607387 15.855764,11.318865 0 0 1 8.61754,9.565295 l -15.83958,0.511257 z"
             sodipodi:end="6.2380013"
             sodipodi:start="3.0799111"
             sodipodi:ry="11.318865"
             sodipodi:rx="15.855764"
             sodipodi:cy="78.667526"
             sodipodi:cx="173.19733"
             sodipodi:type="arc"
             id="path987"
             style="opacity:1;fill:#ffdd55;fill-opacity:1;stroke:#1a1a1a;stroke-width:1;stroke-linecap:round;stroke-linejoin:round;stroke-miterlimit:4;stroke-dasharray:none;stroke-dashoffset:0;stroke-opacity:1" />
          <path
             sodipodi:nodetypes="cc"
             inkscape:connector-curvature="0"
             id="path991"
             d="m 166.64923,78.994934 c -1.08805,-5.218459 1.7416,-10.261458 5.42552,-11.622883"
             style="fill:none;stroke:#1a1a1a;stroke-width:1;stroke-linecap:butt;stroke-linejoin:miter;stroke-miterlimit:4;stroke-dasharray:none;stroke-opacity:1" />
          <path
             sodipodi:nodetypes="cc"
             inkscape:connector-curvature="0"
             id="path993"
             d="m 173.68843,67.442209 c 0.17878,-0.745761 5.66244,4.367412 5.44897,10.944685"
             style="fill:none;stroke:#1a1a1a;stroke-width:1;stroke-linecap:butt;stroke-linejoin:miter;stroke-miterlimit:4;stroke-dasharray:none;stroke-opacity:1" />
        </g>
        <g
           id="g1087"
           style="fill:#ff2a2a;stroke:#1a1a1a">
          <path
             sodipodi:nodetypes="ccscc"
             inkscape:connector-curvature="0"
             id="path1008"
             d="m 7.5146386,155.78733 -0.7872148,1.00412 c 0,0 0.7872175,-1e-5 0.9529454,-1e-5 0.1657338,0 0.6007736,-0.96825 0.6007736,-0.96825 z"
             style="fill:#ff2a2a;stroke:#1a1a1a;stroke-width:0.07709289px;stroke-linecap:butt;stroke-linejoin:miter;stroke-opacity:1" />
          <path
             sodipodi:nodetypes="ccccc"
             inkscape:connector-curvature="0"
             id="path1010"
             d="m 11.604626,155.72204 0.575499,1.04234 h 1.089334 l -0.82214,-1.13499 z"
             style="fill:#ff2a2a;stroke:#1a1a1a;stroke-width:0.08727716px;stroke-linecap:butt;stroke-linejoin:miter;stroke-opacity:1" />
          <path
             sodipodi:nodetypes="cccccc"
             inkscape:connector-curvature="0"
             id="path1006"
             d="m 4.5354253,154.70749 5.4762427,0.0232 c 6.401008,-0.13505 3.423512,-4.50985 5.836521,-4.45997 -0.824531,5.49915 -2.212296,5.55518 -4.496286,5.50528 -7.2975275,-0.0203 -6.8966802,0.65121 -6.8164777,-1.06854 z"
             style="fill:#ff2a2a;stroke:#1a1a1a;stroke-width:0.07318547px;stroke-linecap:butt;stroke-linejoin:miter;stroke-opacity:1" />
        </g>
      </g>
    </g>
    <g
       id="g1251"
       transform="matrix(3.2649413,0,0,4.2461721,-223.13162,-155.96161)">
      <g
         id="g1311"
         transform="matrix(0.22007865,0.13828602,-0.11687733,0.10997285,80.32592,42.735838)" />
    </g>
  </g>
</svg>
