<?xml version="1.0" encoding="UTF-8" standalone="no"?>
<!-- Created with Inkscape (http://www.inkscape.org/) -->

<svg
   xmlns:dc="http://purl.org/dc/elements/1.1/"
   xmlns:cc="http://creativecommons.org/ns#"
   xmlns:rdf="http://www.w3.org/1999/02/22-rdf-syntax-ns#"
   xmlns:svg="http://www.w3.org/2000/svg"
   xmlns="http://www.w3.org/2000/svg"
   xmlns:xlink="http://www.w3.org/1999/xlink"
   xmlns:sodipodi="http://sodipodi.sourceforge.net/DTD/sodipodi-0.dtd"
   xmlns:inkscape="http://www.inkscape.org/namespaces/inkscape"
   width="210mm"
   height="297mm"
   viewBox="0 0 210 297"
   version="1.1"
   id="svg8"
   inkscape:version="0.92.4 (5da689c313, 2019-01-14)"
   sodipodi:docname="Pain_bouchon.svg"
   inkscape:export-filename="C:\Users\Olivier\Desktop\Pain_bouchon.png"
   inkscape:export-xdpi="96"
   inkscape:export-ydpi="96">
  <defs
     id="defs2">
    <linearGradient
       id="linearGradient3255-7">
      <stop
         style="stop-color:#fc8e44;stop-opacity:1;"
         offset="0"
         id="stop3251" />
      <stop
         style="stop-color:#d35400;stop-opacity:1;"
         offset="1"
         id="stop3253" />
    </linearGradient>
    <linearGradient
       id="linearGradient3255">
      <stop
         id="stop3654"
         offset="0"
         style="stop-color:#fcf844;stop-opacity:1;" />
      <stop
         id="stop3656"
         offset="1"
         style="stop-color:#d35400;stop-opacity:1;" />
    </linearGradient>
    <linearGradient
       inkscape:collect="always"
       xlink:href="#linearGradient3255-7"
       id="linearGradient1078"
       gradientUnits="userSpaceOnUse"
       gradientTransform="matrix(0.63624449,0,0.02812027,0.37814453,328.49428,-42.32217)"
       x1="591.72034"
       y1="-83.554916"
       x2="852.96588"
       y2="-82.51548" />
    <linearGradient
       inkscape:collect="always"
       xlink:href="#linearGradient3255-7"
       id="linearGradient1080"
       gradientUnits="userSpaceOnUse"
       gradientTransform="matrix(0.63595913,-0.01905341,0.02994668,0.9995515,328.20202,22.686979)"
       x1="746.77625"
       y1="-91.214111"
       x2="745.54608"
       y2="-116.79744" />
    <linearGradient
       inkscape:collect="always"
       xlink:href="#linearGradient3255-7"
       id="linearGradient1011"
       gradientUnits="userSpaceOnUse"
       gradientTransform="matrix(0.63624449,0,0.02812027,0.37814453,328.49428,-42.32217)"
       x1="591.72034"
       y1="-83.554916"
       x2="852.96588"
       y2="-82.51548" />
    <linearGradient
       inkscape:collect="always"
       xlink:href="#linearGradient3255-7"
       id="linearGradient1013"
       gradientUnits="userSpaceOnUse"
       gradientTransform="matrix(0.63595913,-0.01905341,0.02994668,0.9995515,328.20202,22.686979)"
       x1="746.77625"
       y1="-91.214111"
       x2="745.54608"
       y2="-116.79744" />
  </defs>
  <sodipodi:namedview
     id="base"
     pagecolor="#ffffff"
     bordercolor="#666666"
     borderopacity="1.0"
     inkscape:pageopacity="0.0"
     inkscape:pageshadow="2"
     inkscape:zoom="1.979899"
     inkscape:cx="185.92914"
     inkscape:cy="717.94072"
     inkscape:document-units="mm"
     inkscape:current-layer="layer1"
     showgrid="false"
     inkscape:window-width="1920"
     inkscape:window-height="1017"
     inkscape:window-x="-8"
     inkscape:window-y="-8"
     inkscape:window-maximized="1" />
  <metadata
     id="metadata5">
    <rdf:RDF>
      <cc:Work
         rdf:about="">
        <dc:format>image/svg+xml</dc:format>
        <dc:type
           rdf:resource="http://purl.org/dc/dcmitype/StillImage" />
        <dc:title />
      </cc:Work>
    </rdf:RDF>
  </metadata>
  <g
     inkscape:label="Calque 1"
     inkscape:groupmode="layer"
     id="layer1">
    <path
       transform="rotate(-58.880776,98.991219,75.936078)"
       sodipodi:type="star"
       style="opacity:0.63483145;fill:#ffff00;fill-opacity:1;stroke:#000000;stroke-width:0.1;stroke-linecap:round;stroke-linejoin:round;stroke-miterlimit:4;stroke-dasharray:none;stroke-dashoffset:0;stroke-opacity:1"
       id="path1021"
       sodipodi:sides="5"
       sodipodi:cx="56.779716"
       sodipodi:cy="47.713867"
       sodipodi:r1="6.3290067"
       sodipodi:r2="3.1645036"
       sodipodi:arg1="1.0668248"
       sodipodi:arg2="1.6951433"
       inkscape:flatsided="false"
       inkscape:rounded="0"
       inkscape:randomized="0"
       d="m 59.836039,53.255999 -3.448806,-2.402062 -3.933941,1.479278 1.218756,-4.022286 -2.622531,-3.284279 4.202038,-0.08385 2.313128,-3.509073 1.378246,3.970465 4.052123,1.115552 -3.350235,2.537731 z"
       inkscape:transform-center-x="-0.5310804"
       inkscape:transform-center-y="0.076572877" />
    <path
       transform="rotate(-35.358994,152.71815,16.292029)"
       sodipodi:type="star"
       style="opacity:0.63483145;fill:#ffff00;fill-opacity:1;stroke:#000000;stroke-width:0.1;stroke-linecap:round;stroke-linejoin:round;stroke-miterlimit:4;stroke-dasharray:none;stroke-dashoffset:0;stroke-opacity:1"
       id="path1019"
       sodipodi:sides="5"
       sodipodi:cx="56.779716"
       sodipodi:cy="47.713867"
       sodipodi:r1="6.3290067"
       sodipodi:r2="3.1645036"
       sodipodi:arg1="1.0668248"
       sodipodi:arg2="1.6951433"
       inkscape:flatsided="false"
       inkscape:rounded="0"
       inkscape:randomized="0"
       d="m 59.836039,53.255999 -3.448806,-2.402062 -3.933941,1.479278 1.218756,-4.022286 -2.622531,-3.284279 4.202038,-0.08385 2.313128,-3.509073 1.378246,3.970465 4.052123,1.115552 -3.350235,2.537731 z"
       inkscape:transform-center-x="0.26426341"
       inkscape:transform-center-y="0.34749591" />
    <g
       id="g3141"
       transform="matrix(0.19701441,0,0,0.19701441,-17.073178,93.371629)"
       style="stroke:#ffffff">
      <path
         sodipodi:nodetypes="ccsccsc"
         inkscape:connector-curvature="0"
         id="path3129"
         d="m 766.25646,-166.30952 c 68.3658,-10.80104 127.98096,-11.86599 203.14761,-2.57312 -0.0303,59.51612 -24.17067,98.463545 -47.05773,98.420901 -21.28983,-0.03967 -41.45918,-36.445431 -41.05769,-53.614851 -6.61123,-2.95778 -15.35664,-2.33722 -22.7871,0.60412 -4.31604,33.163224 -25.6291,52.702565 -41.99903,52.459764 -24.62588,-0.365254 -50.24606,-34.501744 -50.24606,-95.296814 z"
         style="fill:#000000;stroke:#ffffff;stroke-width:0.26065123px;stroke-linecap:butt;stroke-linejoin:miter;stroke-opacity:1" />
      <path
         style="fill:#333333;stroke:#ffffff;stroke-width:0.2301293px;stroke-linecap:butt;stroke-linejoin:miter;stroke-opacity:1"
         d="m 777.05825,-161.29336 c 60.36025,-9.53625 112.99455,-10.4765 179.35928,-2.27181 -0.0268,52.54686 -21.34032,86.933587 -41.54733,86.895936 -18.79682,-0.03503 -36.60436,-32.177716 -36.24989,-47.336616 -5.83706,-2.61143 -13.55839,-2.06354 -20.11876,0.53338 -3.81063,29.279847 -22.62796,46.531156 -37.08099,46.316787 -21.74222,-0.322484 -44.36231,-30.461637 -44.36231,-84.137677 z"
         id="path3131"
         inkscape:connector-curvature="0"
         sodipodi:nodetypes="ccsccsc" />
      <path
         inkscape:connector-curvature="0"
         id="path3133"
         d="m 766.25645,-166.30952 102.63677,-66.81267 c 0,0 23.78699,-15.76891 18.97612,5.34539 -4.81083,21.11429 -8.55262,35.0123 -11.22531,22.98518 -2.67269,-12.02713 1.60361,-23.51972 0.26728,-22.71792 -1.33636,0.80181 -97.2861,59.33384 -97.2861,59.33384 z"
         style="fill:#1a1a1a;stroke:#ffffff;stroke-width:0.26458332px;stroke-linecap:butt;stroke-linejoin:miter;stroke-opacity:1" />
      <path
         sodipodi:nodetypes="cccsccc"
         style="fill:#000000;stroke:#ffffff;stroke-width:0.26458332px;stroke-linecap:butt;stroke-linejoin:miter;stroke-opacity:1"
         d="m 960.949,-170.04027 97.7231,-63.78886 c 0,0 23.787,-15.76891 18.9761,5.34539 -4.8108,21.11429 -8.5526,35.0123 -11.2253,22.98518 -2.6727,-12.02713 1.6036,-23.51972 0.2673,-22.71792 -1.3364,0.80181 -98.04208,67.9328 -98.04208,67.9328 z"
         id="path3135"
         inkscape:connector-curvature="0" />
    </g>
    <g
       id="g3468"
       transform="matrix(0.58510437,0,0,0.58510437,-394.27374,112.09099)">
      <g
         id="g963">
        <path
           sodipodi:nodetypes="ccc"
           inkscape:connector-curvature="0"
           id="path3335"
           d="m 701.79865,-72.963136 c 54.68348,-2.349366 117.01288,-0.606276 165.15434,0.96775 0.28823,14.556079 -147.27755,16.781469 -165.15434,-0.96775 z"
           style="fill:#ff9955;fill-opacity:1;stroke:none;stroke-width:0.10252384px;stroke-linecap:butt;stroke-linejoin:miter;stroke-opacity:1" />
        <path
           style="fill:url(#linearGradient1078);fill-opacity:1;stroke:none;stroke-width:0.11686162px;stroke-linecap:butt;stroke-linejoin:miter;stroke-opacity:1"
           d="m 866.95299,-71.995386 c -6.90351,7.385777 -166.12564,2.764346 -165.15434,-0.96775 3.1916,-3.736794 10.89062,-4.873514 14.14847,-5.028296 45.09989,-2.142711 87.99933,-0.446799 143.91598,2.175911 3.63138,0.170325 7.36151,0.09412 7.08989,3.820135 z"
           id="path3155"
           inkscape:connector-curvature="0"
           sodipodi:nodetypes="ccssc" />
        <path
           sodipodi:nodetypes="csscc"
           inkscape:connector-curvature="0"
           id="path3205"
           d="m 741.22157,-83.184919 c 0,1.938613 -0.47445,5.488213 1.0891,7.568353 1.76279,2.345209 3.81431,7.627449 8.39969,5.751599 5.04925,-2.065612 10.07286,1.52658 9.89677,-6.638215 0.39269,-26.013738 -19.3432,-21.988061 -19.38556,-6.681737 z"
           style="fill:#cccccc;stroke:none;stroke-width:0.21104471px;stroke-linecap:butt;stroke-linejoin:miter;stroke-opacity:1" />
        <path
           sodipodi:nodetypes="csscsscc"
           inkscape:connector-curvature="0"
           id="path3207"
           d="m 744.09356,-86.869372 c 0.0425,5.87993 -2.67827,2.338609 0.89276,6.815372 3.57101,4.476765 1.63526,7.625834 6.54688,6.614921 3.57101,-0.73499 5.798,1.773036 6.43568,-2.636912 0.63768,-4.409948 2.74694,-1.104862 1.42906,-5.715261 -1.31788,-4.610399 -6.07923,-6.815372 -8.62997,-6.414468 -2.55073,0.400904 -2.67826,-6.481283 -4.63383,-4.209497 -1.95556,2.271794 -2.04058,5.545845 -2.04058,5.545845 z"
           style="fill:#f2f2f2;stroke:none;stroke-width:0.21104471px;stroke-linecap:butt;stroke-linejoin:miter;stroke-opacity:1" />
        <path
           style="fill:#cccccc;stroke:none;stroke-width:0.21104471px;stroke-linecap:butt;stroke-linejoin:miter;stroke-opacity:1"
           d="m 763.82294,-82.321065 c 0,1.938613 -0.47445,5.488213 1.0891,7.568353 1.76279,2.345209 3.81431,7.627449 8.3997,5.751599 5.04924,-2.065612 10.07285,1.52658 9.89676,-6.638215 0.3927,-26.013732 -19.34319,-21.988061 -19.38556,-6.681737 z"
           id="path3209"
           inkscape:connector-curvature="0"
           sodipodi:nodetypes="csscc" />
        <path
           style="fill:#f2f2f2;stroke:none;stroke-width:0.21104471px;stroke-linecap:butt;stroke-linejoin:miter;stroke-opacity:1"
           d="m 766.45869,-85.060578 c 0.0425,5.87993 -2.67827,2.338609 0.89276,6.815372 3.57102,4.476765 1.63526,7.625834 6.54688,6.614921 3.57102,-0.73499 5.79801,1.773036 6.43568,-2.636912 0.63768,-4.409948 2.74694,-1.104862 1.42906,-5.715261 -1.31787,-4.610399 -6.07923,-6.815372 -8.62997,-6.414468 -2.55073,0.400904 -2.67826,-6.481283 -4.63383,-4.209497 -1.95555,2.271794 -2.04058,5.545845 -2.04058,5.545845 z"
           id="path3211"
           inkscape:connector-curvature="0"
           sodipodi:nodetypes="csscsscc" />
        <path
           sodipodi:nodetypes="csscc"
           inkscape:connector-curvature="0"
           id="path3213"
           d="m 788.43868,-83.522351 c 0,1.938613 -0.47444,5.488213 1.08911,7.568353 1.76279,2.345209 3.8143,7.627449 8.39969,5.751599 5.04924,-2.065611 10.07286,1.526581 9.89676,-6.638215 0.3927,-26.013736 -19.34319,-21.988061 -19.38556,-6.681737 z"
           style="fill:#cccccc;stroke:none;stroke-width:0.21104471px;stroke-linecap:butt;stroke-linejoin:miter;stroke-opacity:1" />
        <path
           sodipodi:nodetypes="csscsscc"
           inkscape:connector-curvature="0"
           id="path3215"
           d="m 791.07443,-83.548673 c 0.0425,5.87993 -2.67826,2.338609 0.89276,6.815373 3.57102,4.476765 1.63527,7.625833 6.54688,6.61492 3.57102,-0.73499 5.79801,1.773037 6.43569,-2.636911 0.63768,-4.409948 2.74694,-1.104862 1.42906,-5.715261 -1.31788,-4.610399 -6.07924,-6.815373 -8.62997,-6.414468 -2.55073,0.400903 -2.67827,-6.481284 -4.63383,-4.209498 -1.95556,2.271795 -2.04059,5.545845 -2.04059,5.545845 z"
           style="fill:#f2f2f2;stroke:none;stroke-width:0.21104471px;stroke-linecap:butt;stroke-linejoin:miter;stroke-opacity:1" />
        <path
           style="fill:#cccccc;stroke:none;stroke-width:0.21104471px;stroke-linecap:butt;stroke-linejoin:miter;stroke-opacity:1"
           d="m 811.79975,-83.900328 c 0,1.938614 -0.47445,5.488213 1.0891,7.568354 1.7628,2.345208 3.81431,7.627448 8.3997,5.751598 5.04924,-2.065611 10.07285,1.526581 9.89676,-6.638215 0.3927,-26.013739 -19.34319,-21.988058 -19.38556,-6.681737 z"
           id="path3217"
           inkscape:connector-curvature="0"
           sodipodi:nodetypes="csscc" />
        <path
           style="fill:#f2f2f2;stroke:none;stroke-width:0.21104471px;stroke-linecap:butt;stroke-linejoin:miter;stroke-opacity:1"
           d="m 814.4355,-83.92665 c 0.0425,5.87993 -2.67826,2.33861 0.89276,6.815373 3.57102,4.476765 1.63526,7.625834 6.54688,6.614921 3.57102,-0.73499 5.79801,1.773036 6.43568,-2.636912 0.63768,-4.409948 2.74694,-1.104862 1.42906,-5.715261 -1.31787,-4.610399 -6.07923,-6.815373 -8.62996,-6.414468 -2.55073,0.400904 -2.67827,-6.481283 -4.63384,-4.209498 -1.95555,2.271795 -2.04058,5.545845 -2.04058,5.545845 z"
           id="path3219"
           inkscape:connector-curvature="0"
           sodipodi:nodetypes="csscsscc" />
        <path
           sodipodi:nodetypes="csscc"
           inkscape:connector-curvature="0"
           id="path3221"
           d="m 838.25314,-82.510053 c 0,1.938613 -0.47445,5.488213 1.0891,7.568353 1.76279,2.345209 3.8143,7.627449 8.39969,5.751599 5.04925,-2.065611 10.07286,1.526581 9.89677,-6.638215 0.39269,-26.013734 -19.3432,-21.988063 -19.38556,-6.681737 z"
           style="fill:#cccccc;stroke:none;stroke-width:0.21104471px;stroke-linecap:butt;stroke-linejoin:miter;stroke-opacity:1" />
        <path
           sodipodi:nodetypes="csscsscc"
           inkscape:connector-curvature="0"
           id="path3223"
           d="m 840.88889,-85.249566 c 0.0425,5.87993 -2.67827,2.338609 0.89276,6.815373 3.57101,4.476765 1.63526,7.625833 6.54687,6.61492 3.57102,-0.73499 5.79801,1.773037 6.43569,-2.636911 0.63768,-4.409948 2.74694,-1.104862 1.42906,-5.715261 -1.31788,-4.610399 -6.07923,-6.815373 -8.62997,-6.414468 -2.55073,0.400903 -2.67826,-6.481285 -4.63383,-4.209498 -1.95556,2.271795 -2.04058,5.545845 -2.04058,5.545845 z"
           style="fill:#f2f2f2;stroke:none;stroke-width:0.21104471px;stroke-linecap:butt;stroke-linejoin:miter;stroke-opacity:1" />
        <path
           style="fill:#cccccc;stroke:none;stroke-width:0.21104471px;stroke-linecap:butt;stroke-linejoin:miter;stroke-opacity:1"
           d="m 719.57365,-84.77791 c 0,1.938613 -0.47445,5.488213 1.0891,7.568353 1.76279,2.345209 3.81431,7.627449 8.3997,5.751599 5.04924,-2.065612 10.07285,1.52658 9.89676,-6.638215 0.3927,-26.013737 -19.34319,-21.988057 -19.38556,-6.681737 z"
           id="path3159"
           inkscape:connector-curvature="0"
           sodipodi:nodetypes="csscc" />
        <path
           style="fill:#f2f2f2;stroke:none;stroke-width:0.21104471px;stroke-linecap:butt;stroke-linejoin:miter;stroke-opacity:1"
           d="m 722.2094,-87.517424 c 0.0425,5.879931 -2.67827,2.33861 0.89276,6.815373 3.57102,4.476765 1.63526,7.625834 6.54688,6.614921 3.57102,-0.73499 5.79801,1.773036 6.43568,-2.636912 0.63768,-4.409948 2.74694,-1.104862 1.42906,-5.715261 -1.31787,-4.610399 -6.07923,-6.815372 -8.62997,-6.414468 -2.55073,0.400904 -2.67826,-6.481288 -4.63383,-4.209498 -1.95555,2.271795 -2.04058,5.545845 -2.04058,5.545845 z"
           id="path3199"
           inkscape:connector-curvature="0"
           sodipodi:nodetypes="csscsscc" />
        <path
           style="fill:#ffcc00;stroke:none;stroke-width:0.26458332px;stroke-linecap:butt;stroke-linejoin:miter;stroke-opacity:1"
           d="m 712.54056,-94.943852 c 3.47448,11.49259 7.49107,7.626678 8.21853,5.412208 -2.18358,10.558837 0.28499,4.615684 10.65189,14.668273 15.44128,16.558659 10.62369,-26.587439 14.13735,-12.864204 9.28164,32.120357 8.47947,8.158431 17.5358,5.683073 3.60814,15.234362 8.92388,6.076787 16.54108,5.675881 17.52803,-5.231169 10.85005,-0.786139 17.05713,-1.331915 11.61897,-1.021635 5.0177,0.208306 10.47162,-1.340778 5.82804,-1.655347 2.28809,-5.014121 5.58972,5.846829 4.00683,13.180767 8.24147,1.235812 11.98325,-1.570518 13.40618,-10.054622 14.8564,-6.934711 16.23662,-4.142678 7.48758,15.14655 6.54812,0.668174 12.2944,-3.808592 10.86632,-8.465636 -41.29314,-18.107507 -41.29314,-18.107507 z"
           id="path3436"
           inkscape:connector-curvature="0"
           sodipodi:nodetypes="ccccccsssssscc" />
        <path
           sodipodi:nodetypes="ccc"
           inkscape:connector-curvature="0"
           id="path3157"
           d="m 867.90191,-88.385673 c -34.38587,3.373847 -103.49092,10.889216 -166.76619,-1.379148 4.08358,-22.893739 157.70514,-24.328379 166.76619,1.379148 z"
           style="fill:url(#linearGradient1080);fill-opacity:1;stroke:none;stroke-width:0.19003913px;stroke-linecap:butt;stroke-linejoin:miter;stroke-opacity:1" />
        <path
           sodipodi:nodetypes="ccc"
           style="fill:#803300;stroke:none;stroke-width:0.253012px;stroke-linecap:butt;stroke-linejoin:miter;stroke-opacity:1"
           d="m 718.5654,-100.22932 c 2.18237,5.986257 16.27151,14.745593 16.27151,14.745593 z"
           id="path3173"
           inkscape:connector-curvature="0" />
        <path
           sodipodi:nodetypes="ccc"
           style="fill:#803300;stroke:none;stroke-width:0.36093795px;stroke-linecap:butt;stroke-linejoin:miter;stroke-opacity:1"
           d="m 743.11906,-103.64964 c 0.28192,8.09693 18.42341,19.321191 18.42341,19.321191 z"
           id="path3177"
           inkscape:connector-curvature="0" />
        <path
           sodipodi:nodetypes="ccc"
           style="fill:#803300;stroke:none;stroke-width:0.37118411px;stroke-linecap:butt;stroke-linejoin:miter;stroke-opacity:1"
           d="m 764.96212,-107.07145 c 3.34088,8.41628 23.47656,23.549099 23.47656,23.549099 z"
           id="path3181"
           inkscape:connector-curvature="0" />
        <path
           style="fill:#803300;stroke:none;stroke-width:0.35652184px;stroke-linecap:butt;stroke-linejoin:miter;stroke-opacity:1"
           d="m 789.02078,-106.14082 c 3.67401,7.060484 22.77897,22.240492 22.77897,22.240492 z"
           id="path3189"
           inkscape:connector-curvature="0" />
        <path
           inkscape:connector-curvature="0"
           id="path3191"
           d="m 812.63411,-105.10681 c 3.60825,6.1481 22.37125,19.366555 22.37125,19.366555 z"
           style="fill:#803300;stroke:none;stroke-width:0.32969943px;stroke-linecap:butt;stroke-linejoin:miter;stroke-opacity:1" />
        <path
           style="fill:#803300;stroke:none;stroke-width:0.24879158px;stroke-linecap:butt;stroke-linejoin:miter;stroke-opacity:1"
           d="m 841.95846,-101.73847 c 2.75267,4.589037 17.06654,14.455471 17.06654,14.455471 z"
           id="path3197"
           inkscape:connector-curvature="0" />
      </g>
      <g
         id="g1009"
         transform="translate(0,81.395735)">
        <path
           style="fill:#ff9955;fill-opacity:1;stroke:none;stroke-width:0.10252384px;stroke-linecap:butt;stroke-linejoin:miter;stroke-opacity:1"
           d="m 701.79865,-72.963136 c 54.68348,-2.349366 117.01288,-0.606276 165.15434,0.96775 0.28823,14.556079 -147.27755,16.781469 -165.15434,-0.96775 z"
           id="path965"
           inkscape:connector-curvature="0"
           sodipodi:nodetypes="ccc" />
        <path
           sodipodi:nodetypes="ccssc"
           inkscape:connector-curvature="0"
           id="path967"
           d="m 866.95299,-71.995386 c -6.90351,7.385777 -166.12564,2.764346 -165.15434,-0.96775 3.1916,-3.736794 10.89062,-4.873514 14.14847,-5.028296 45.09989,-2.142711 87.99933,-0.446799 143.91598,2.175911 3.63138,0.170325 7.36151,0.09412 7.08989,3.820135 z"
           style="fill:url(#linearGradient1011);fill-opacity:1;stroke:none;stroke-width:0.11686162px;stroke-linecap:butt;stroke-linejoin:miter;stroke-opacity:1" />
        <path
           style="fill:#cccccc;stroke:none;stroke-width:0.21104471px;stroke-linecap:butt;stroke-linejoin:miter;stroke-opacity:1"
           d="m 741.22157,-83.184919 c 0,1.938613 -0.47445,5.488213 1.0891,7.568353 1.76279,2.345209 3.81431,7.627449 8.39969,5.751599 5.04925,-2.065612 10.07286,1.52658 9.89677,-6.638215 0.39269,-26.013738 -19.3432,-21.988061 -19.38556,-6.681737 z"
           id="path969"
           inkscape:connector-curvature="0"
           sodipodi:nodetypes="csscc" />
        <path
           style="fill:#f2f2f2;stroke:none;stroke-width:0.21104471px;stroke-linecap:butt;stroke-linejoin:miter;stroke-opacity:1"
           d="m 744.09356,-86.869372 c 0.0425,5.87993 -2.67827,2.338609 0.89276,6.815372 3.57101,4.476765 1.63526,7.625834 6.54688,6.614921 3.57101,-0.73499 5.798,1.773036 6.43568,-2.636912 0.63768,-4.409948 2.74694,-1.104862 1.42906,-5.715261 -1.31788,-4.610399 -6.07923,-6.815372 -8.62997,-6.414468 -2.55073,0.400904 -2.67826,-6.481283 -4.63383,-4.209497 -1.95556,2.271794 -2.04058,5.545845 -2.04058,5.545845 z"
           id="path971"
           inkscape:connector-curvature="0"
           sodipodi:nodetypes="csscsscc" />
        <path
           sodipodi:nodetypes="csscc"
           inkscape:connector-curvature="0"
           id="path973"
           d="m 763.82294,-82.321065 c 0,1.938613 -0.47445,5.488213 1.0891,7.568353 1.76279,2.345209 3.81431,7.627449 8.3997,5.751599 5.04924,-2.065612 10.07285,1.52658 9.89676,-6.638215 0.3927,-26.013732 -19.34319,-21.988061 -19.38556,-6.681737 z"
           style="fill:#cccccc;stroke:none;stroke-width:0.21104471px;stroke-linecap:butt;stroke-linejoin:miter;stroke-opacity:1" />
        <path
           sodipodi:nodetypes="csscsscc"
           inkscape:connector-curvature="0"
           id="path975"
           d="m 766.45869,-85.060578 c 0.0425,5.87993 -2.67827,2.338609 0.89276,6.815372 3.57102,4.476765 1.63526,7.625834 6.54688,6.614921 3.57102,-0.73499 5.79801,1.773036 6.43568,-2.636912 0.63768,-4.409948 2.74694,-1.104862 1.42906,-5.715261 -1.31787,-4.610399 -6.07923,-6.815372 -8.62997,-6.414468 -2.55073,0.400904 -2.67826,-6.481283 -4.63383,-4.209497 -1.95555,2.271794 -2.04058,5.545845 -2.04058,5.545845 z"
           style="fill:#f2f2f2;stroke:none;stroke-width:0.21104471px;stroke-linecap:butt;stroke-linejoin:miter;stroke-opacity:1" />
        <path
           style="fill:#cccccc;stroke:none;stroke-width:0.21104471px;stroke-linecap:butt;stroke-linejoin:miter;stroke-opacity:1"
           d="m 788.43868,-83.522351 c 0,1.938613 -0.47444,5.488213 1.08911,7.568353 1.76279,2.345209 3.8143,7.627449 8.39969,5.751599 5.04924,-2.065611 10.07286,1.526581 9.89676,-6.638215 0.3927,-26.013736 -19.34319,-21.988061 -19.38556,-6.681737 z"
           id="path977"
           inkscape:connector-curvature="0"
           sodipodi:nodetypes="csscc" />
        <path
           style="fill:#f2f2f2;stroke:none;stroke-width:0.21104471px;stroke-linecap:butt;stroke-linejoin:miter;stroke-opacity:1"
           d="m 791.07443,-83.548673 c 0.0425,5.87993 -2.67826,2.338609 0.89276,6.815373 3.57102,4.476765 1.63527,7.625833 6.54688,6.61492 3.57102,-0.73499 5.79801,1.773037 6.43569,-2.636911 0.63768,-4.409948 2.74694,-1.104862 1.42906,-5.715261 -1.31788,-4.610399 -6.07924,-6.815373 -8.62997,-6.414468 -2.55073,0.400903 -2.67827,-6.481284 -4.63383,-4.209498 -1.95556,2.271795 -2.04059,5.545845 -2.04059,5.545845 z"
           id="path979"
           inkscape:connector-curvature="0"
           sodipodi:nodetypes="csscsscc" />
        <path
           sodipodi:nodetypes="csscc"
           inkscape:connector-curvature="0"
           id="path981"
           d="m 811.79975,-83.900328 c 0,1.938614 -0.47445,5.488213 1.0891,7.568354 1.7628,2.345208 3.81431,7.627448 8.3997,5.751598 5.04924,-2.065611 10.07285,1.526581 9.89676,-6.638215 0.3927,-26.013739 -19.34319,-21.988058 -19.38556,-6.681737 z"
           style="fill:#cccccc;stroke:none;stroke-width:0.21104471px;stroke-linecap:butt;stroke-linejoin:miter;stroke-opacity:1" />
        <path
           sodipodi:nodetypes="csscsscc"
           inkscape:connector-curvature="0"
           id="path983"
           d="m 814.4355,-83.92665 c 0.0425,5.87993 -2.67826,2.33861 0.89276,6.815373 3.57102,4.476765 1.63526,7.625834 6.54688,6.614921 3.57102,-0.73499 5.79801,1.773036 6.43568,-2.636912 0.63768,-4.409948 2.74694,-1.104862 1.42906,-5.715261 -1.31787,-4.610399 -6.07923,-6.815373 -8.62996,-6.414468 -2.55073,0.400904 -2.67827,-6.481283 -4.63384,-4.209498 -1.95555,2.271795 -2.04058,5.545845 -2.04058,5.545845 z"
           style="fill:#f2f2f2;stroke:none;stroke-width:0.21104471px;stroke-linecap:butt;stroke-linejoin:miter;stroke-opacity:1" />
        <path
           style="fill:#cccccc;stroke:none;stroke-width:0.21104471px;stroke-linecap:butt;stroke-linejoin:miter;stroke-opacity:1"
           d="m 838.25314,-82.510053 c 0,1.938613 -0.47445,5.488213 1.0891,7.568353 1.76279,2.345209 3.8143,7.627449 8.39969,5.751599 5.04925,-2.065611 10.07286,1.526581 9.89677,-6.638215 0.39269,-26.013734 -19.3432,-21.988063 -19.38556,-6.681737 z"
           id="path985"
           inkscape:connector-curvature="0"
           sodipodi:nodetypes="csscc" />
        <path
           style="fill:#f2f2f2;stroke:none;stroke-width:0.21104471px;stroke-linecap:butt;stroke-linejoin:miter;stroke-opacity:1"
           d="m 840.88889,-85.249566 c 0.0425,5.87993 -2.67827,2.338609 0.89276,6.815373 3.57101,4.476765 1.63526,7.625833 6.54687,6.61492 3.57102,-0.73499 5.79801,1.773037 6.43569,-2.636911 0.63768,-4.409948 2.74694,-1.104862 1.42906,-5.715261 -1.31788,-4.610399 -6.07923,-6.815373 -8.62997,-6.414468 -2.55073,0.400903 -2.67826,-6.481285 -4.63383,-4.209498 -1.95556,2.271795 -2.04058,5.545845 -2.04058,5.545845 z"
           id="path987"
           inkscape:connector-curvature="0"
           sodipodi:nodetypes="csscsscc" />
        <path
           sodipodi:nodetypes="csscc"
           inkscape:connector-curvature="0"
           id="path989"
           d="m 719.57365,-84.77791 c 0,1.938613 -0.47445,5.488213 1.0891,7.568353 1.76279,2.345209 3.81431,7.627449 8.3997,5.751599 5.04924,-2.065612 10.07285,1.52658 9.89676,-6.638215 0.3927,-26.013737 -19.34319,-21.988057 -19.38556,-6.681737 z"
           style="fill:#cccccc;stroke:none;stroke-width:0.21104471px;stroke-linecap:butt;stroke-linejoin:miter;stroke-opacity:1" />
        <path
           sodipodi:nodetypes="csscsscc"
           inkscape:connector-curvature="0"
           id="path991"
           d="m 722.2094,-87.517424 c 0.0425,5.879931 -2.67827,2.33861 0.89276,6.815373 3.57102,4.476765 1.63526,7.625834 6.54688,6.614921 3.57102,-0.73499 5.79801,1.773036 6.43568,-2.636912 0.63768,-4.409948 2.74694,-1.104862 1.42906,-5.715261 -1.31787,-4.610399 -6.07923,-6.815372 -8.62997,-6.414468 -2.55073,0.400904 -2.67826,-6.481288 -4.63383,-4.209498 -1.95555,2.271795 -2.04058,5.545845 -2.04058,5.545845 z"
           style="fill:#f2f2f2;stroke:none;stroke-width:0.21104471px;stroke-linecap:butt;stroke-linejoin:miter;stroke-opacity:1" />
        <path
           sodipodi:nodetypes="ccccccsssssscc"
           inkscape:connector-curvature="0"
           id="path993"
           d="m 712.54056,-94.943852 c 3.47448,11.49259 7.49107,7.626678 8.21853,5.412208 -2.18358,10.558837 0.28499,4.615684 10.65189,14.668273 15.44128,16.558659 10.62369,-26.587439 14.13735,-12.864204 9.28164,32.120357 8.47947,8.158431 17.5358,5.683073 3.60814,15.234362 8.92388,6.076787 16.54108,5.675881 17.52803,-5.231169 10.85005,-0.786139 17.05713,-1.331915 11.61897,-1.021635 5.0177,0.208306 10.47162,-1.340778 5.82804,-1.655347 2.28809,-5.014121 5.58972,5.846829 4.00683,13.180767 8.24147,1.235812 11.98325,-1.570518 13.40618,-10.054622 14.8564,-6.934711 16.23662,-4.142678 7.48758,15.14655 6.54812,0.668174 12.2944,-3.808592 10.86632,-8.465636 -41.29314,-18.107507 -41.29314,-18.107507 z"
           style="fill:#ffcc00;stroke:none;stroke-width:0.26458332px;stroke-linecap:butt;stroke-linejoin:miter;stroke-opacity:1" />
        <path
           style="fill:url(#linearGradient1013);fill-opacity:1;stroke:none;stroke-width:0.19003913px;stroke-linecap:butt;stroke-linejoin:miter;stroke-opacity:1"
           d="m 867.90191,-88.385673 c -34.38587,3.373847 -103.49092,10.889216 -166.76619,-1.379148 4.08358,-22.893739 157.70514,-24.328379 166.76619,1.379148 z"
           id="path995"
           inkscape:connector-curvature="0"
           sodipodi:nodetypes="ccc" />
        <path
           inkscape:connector-curvature="0"
           id="path997"
           d="m 718.5654,-100.22932 c 2.18237,5.986257 16.27151,14.745593 16.27151,14.745593 z"
           style="fill:#803300;stroke:none;stroke-width:0.253012px;stroke-linecap:butt;stroke-linejoin:miter;stroke-opacity:1"
           sodipodi:nodetypes="ccc" />
        <path
           inkscape:connector-curvature="0"
           id="path999"
           d="m 743.11906,-103.64964 c 0.28192,8.09693 18.42341,19.321191 18.42341,19.321191 z"
           style="fill:#803300;stroke:none;stroke-width:0.36093795px;stroke-linecap:butt;stroke-linejoin:miter;stroke-opacity:1"
           sodipodi:nodetypes="ccc" />
        <path
           inkscape:connector-curvature="0"
           id="path1001"
           d="m 764.96212,-107.07145 c 3.34088,8.41628 23.47656,23.549099 23.47656,23.549099 z"
           style="fill:#803300;stroke:none;stroke-width:0.37118411px;stroke-linecap:butt;stroke-linejoin:miter;stroke-opacity:1"
           sodipodi:nodetypes="ccc" />
        <path
           inkscape:connector-curvature="0"
           id="path1003"
           d="m 789.02078,-106.14082 c 3.67401,7.060484 22.77897,22.240492 22.77897,22.240492 z"
           style="fill:#803300;stroke:none;stroke-width:0.35652184px;stroke-linecap:butt;stroke-linejoin:miter;stroke-opacity:1" />
        <path
           style="fill:#803300;stroke:none;stroke-width:0.32969943px;stroke-linecap:butt;stroke-linejoin:miter;stroke-opacity:1"
           d="m 812.63411,-105.10681 c 3.60825,6.1481 22.37125,19.366555 22.37125,19.366555 z"
           id="path1005"
           inkscape:connector-curvature="0" />
        <path
           inkscape:connector-curvature="0"
           id="path1007"
           d="m 841.95846,-101.73847 c 2.75267,4.589037 17.06654,14.455471 17.06654,14.455471 z"
           style="fill:#803300;stroke:none;stroke-width:0.24879158px;stroke-linecap:butt;stroke-linejoin:miter;stroke-opacity:1" />
      </g>
    </g>
    <path
       inkscape:transform-center-y="-0.33872418"
       inkscape:transform-center-x="0.27308395"
       d="m 59.836039,53.255999 -3.448806,-2.402062 -3.933941,1.479278 1.218756,-4.022286 -2.622531,-3.284279 4.202038,-0.08385 2.313128,-3.509073 1.378246,3.970465 4.052123,1.115552 -3.350235,2.537731 z"
       inkscape:randomized="0"
       inkscape:rounded="0"
       inkscape:flatsided="false"
       sodipodi:arg2="1.6951433"
       sodipodi:arg1="1.0668248"
       sodipodi:r2="3.1645036"
       sodipodi:r1="6.3290067"
       sodipodi:cy="47.713867"
       sodipodi:cx="56.779716"
       sodipodi:sides="5"
       id="path1088"
       style="opacity:0.63483145;fill:#ffff00;fill-opacity:1;stroke:#000000;stroke-width:0.1;stroke-linecap:round;stroke-linejoin:round;stroke-miterlimit:4;stroke-dasharray:none;stroke-dashoffset:0;stroke-opacity:1"
       sodipodi:type="star"
       transform="rotate(-15.150998,292.48167,25.508589)" />
    <path
       transform="rotate(-35.358994,173.21367,90.815019)"
       sodipodi:type="star"
       style="opacity:0.63483145;fill:#ffff00;fill-opacity:1;stroke:#000000;stroke-width:0.1;stroke-linecap:round;stroke-linejoin:round;stroke-miterlimit:4;stroke-dasharray:none;stroke-dashoffset:0;stroke-opacity:1"
       id="path1090"
       sodipodi:sides="5"
       sodipodi:cx="56.779716"
       sodipodi:cy="47.713867"
       sodipodi:r1="6.3290067"
       sodipodi:r2="3.1645036"
       sodipodi:arg1="1.0668248"
       sodipodi:arg2="1.6951433"
       inkscape:flatsided="false"
       inkscape:rounded="0"
       inkscape:randomized="0"
       d="m 59.836039,53.255999 -3.448806,-2.402062 -3.933941,1.479278 1.218756,-4.022286 -2.622531,-3.284279 4.202038,-0.08385 2.313128,-3.509073 1.378246,3.970465 4.052123,1.115552 -3.350235,2.537731 z"
       inkscape:transform-center-x="0.26426341"
       inkscape:transform-center-y="0.34749591" />
    <path
       inkscape:transform-center-y="0.38405988"
       inkscape:transform-center-x="-0.22732636"
       d="m 59.836039,53.255999 -3.448806,-2.402062 -3.933941,1.479278 1.218756,-4.022286 -2.622531,-3.284279 4.202038,-0.08385 2.313128,-3.509073 1.378246,3.970465 4.052123,1.115552 -3.350235,2.537731 z"
       inkscape:randomized="0"
       inkscape:rounded="0"
       inkscape:flatsided="false"
       sodipodi:arg2="1.6951433"
       sodipodi:arg1="1.0668248"
       sodipodi:r2="3.1645036"
       sodipodi:r1="6.3290067"
       sodipodi:cy="47.713867"
       sodipodi:cx="56.779716"
       sodipodi:sides="5"
       id="path1015"
       style="opacity:0.63483145;fill:#ffff00;fill-opacity:1;stroke:#000000;stroke-width:0.1;stroke-linecap:round;stroke-linejoin:round;stroke-miterlimit:4;stroke-dasharray:none;stroke-dashoffset:0;stroke-opacity:1"
       sodipodi:type="star"
       transform="rotate(94.200507,45.783844,102.0674)" />
    <path
       transform="rotate(-35.358994,138.34203,112.75481)"
       sodipodi:type="star"
       style="opacity:0.63483145;fill:#ffff00;fill-opacity:1;stroke:#000000;stroke-width:0.1;stroke-linecap:round;stroke-linejoin:round;stroke-miterlimit:4;stroke-dasharray:none;stroke-dashoffset:0;stroke-opacity:1"
       id="path1017"
       sodipodi:sides="5"
       sodipodi:cx="56.779716"
       sodipodi:cy="47.713867"
       sodipodi:r1="6.3290067"
       sodipodi:r2="3.1645036"
       sodipodi:arg1="1.0668248"
       sodipodi:arg2="1.6951433"
       inkscape:flatsided="false"
       inkscape:rounded="0"
       inkscape:randomized="0"
       d="m 59.836039,53.255999 -3.448806,-2.402062 -3.933941,1.479278 1.218756,-4.022286 -2.622531,-3.284279 4.202038,-0.08385 2.313128,-3.509073 1.378246,3.970465 4.052123,1.115552 -3.350235,2.537731 z"
       inkscape:transform-center-x="0.26426341"
       inkscape:transform-center-y="0.34749591" />
  </g>
</svg>
