<svg xmlns="http://www.w3.org/2000/svg" viewBox="0 0 3247.98 1702.08"><defs><style>.cls-1{font-size:72px;fill:#dd6949;font-family:MyriadPro-Regular, Myriad Pro;}.cls-2{fill:#f18517;}.cls-3,.cls-5{fill:none;stroke-miterlimit:10;}.cls-3{stroke:#300f0c;}.cls-4{fill:#300f0c;}.cls-5{stroke:#b22117;}</style></defs><title>numerotation</title><g id="Calque_2" data-name="Calque 2"><g id="numerotation"><text class="cls-1" transform="translate(225.43 1213.51)">1</text><text class="cls-1" transform="translate(0 1057.08)">2</text><text class="cls-1" transform="translate(354.49 926.74)">3</text><text class="cls-1" transform="translate(123.84 776.88)">4</text><text class="cls-1" transform="translate(425.06 644.4)">5</text><text class="cls-1" transform="translate(696.96 762.48)">6</text><text class="cls-1" transform="translate(343.41 498.05)">7</text><text class="cls-1" transform="translate(478.75 356.18)">8</text><text class="cls-1" transform="translate(669.72 216.45)">9</text><text class="cls-1" transform="translate(179.77 81.78)">10</text><text class="cls-1" transform="translate(888.27 63.05)">11</text><text class="cls-1" transform="translate(1114.56 220.51)">12</text><text class="cls-1" transform="translate(1831.56 218.07)">14</text><text class="cls-1" transform="translate(2183.04 339.12)">15</text><text class="cls-1" transform="translate(2395.39 63.37)">16</text><text class="cls-1" transform="translate(2712.96 218.07)">17</text><text class="cls-1" transform="translate(3174.11 65.52)">18</text><text class="cls-1" transform="translate(2966.72 523.44)">19</text><path class="cls-2" d="M440.76,885.27v13.42c0,7.18-4.64,13-10.37,13H334.18a9.54,9.54,0,0,1-7.67-4.26,14.89,14.89,0,0,1-2.7-8.75V885.27a15.79,15.79,0,0,1,.88-5.27,12.83,12.83,0,0,1,3.74-5.55,9,9,0,0,1,5.75-2.18h96.21c4.08,0,7.62,3,9.31,7.25a15.72,15.72,0,0,1,1,5c0,.25,0,.5,0,.76"/><path class="cls-3" d="M440.76,885.27v13.42c0,7.18-4.64,13-10.37,13H334.18a9.54,9.54,0,0,1-7.67-4.26,14.89,14.89,0,0,1-2.7-8.75V885.27a15.79,15.79,0,0,1,.88-5.27,12.83,12.83,0,0,1,3.74-5.55,9,9,0,0,1,5.75-2.18h96.21c4.08,0,7.62,3,9.31,7.25a15.72,15.72,0,0,1,1,5C440.76,884.76,440.76,885,440.76,885.27Z"/><polygon class="cls-4" points="423.98 899.04 397.94 913.31 410.96 917.57 427.94 908.3 427.94 899.04 423.98 899.04"/><polygon class="cls-5" points="423.98 899.04 397.94 913.31 410.96 917.57 427.94 908.3 427.94 899.04 423.98 899.04"/><polygon class="cls-4" points="384.13 886.67 397.22 881.82 399.48 891.09 389.86 891.09 384.13 886.67"/><polygon class="cls-5" points="384.13 886.67 397.22 881.82 399.48 891.09 389.86 891.09 384.13 886.67"/><path class="cls-4" d="M342.2,900.35l-13,7.09h-2.67a14.88,14.88,0,0,1-2.7-8.74v-4h10.47Z"/><path class="cls-5" d="M342.2,900.35l-13,7.09h-2.67a14.88,14.88,0,0,1-2.7-8.74v-4h10.47Z"/><polygon class="cls-4" points="401.75 894.68 401.75 886.46 406.27 886.46 417.43 894.68 417.43 901.06 401.75 894.68"/><polygon class="cls-5" points="401.75 894.68 401.75 886.46 406.27 886.46 417.43 894.68 417.43 901.06 401.75 894.68"/><polygon class="cls-4" points="443.85 883.3 443.85 891.25 436.21 895.82 424.52 895.82 424.52 887.91 436.97 885.78 443.85 883.3"/><polygon class="cls-5" points="443.85 883.3 443.85 891.25 436.21 895.82 424.52 895.82 424.52 887.91 436.97 885.78 443.85 883.3"/><polygon class="cls-4" points="407.85 901.06 403.32 907.44 415.39 908.62 416.71 903.66 407.85 901.06"/><polygon class="cls-5" points="407.85 901.06 403.32 907.44 415.39 908.62 416.71 903.66 407.85 901.06"/><polygon class="cls-4" points="399.36 876.47 381.34 883.31 379.74 880.73 382.95 875.53 392.2 872.27 395.85 872.27 399.36 876.47"/><polygon class="cls-5" points="399.36 876.47 381.34 883.31 379.74 880.73 382.95 875.53 392.2 872.27 395.85 872.27 399.36 876.47"/><polygon class="cls-4" points="370.97 878.28 365.69 884.29 359.46 886.44 350.22 880.53 356.06 876.51 361.7 873.25 364.67 873.25 370.97 878.28"/><polygon class="cls-5" points="370.97 878.28 365.69 884.29 359.46 886.44 350.22 880.53 356.06 876.51 361.7 873.25 364.67 873.25 370.97 878.28"/><polygon class="cls-4" points="383.36 873.25 379.74 878.28 375.96 878.28 370.77 873.25 383.36 873.25"/><polygon class="cls-5" points="383.36 873.25 379.74 878.28 375.96 878.28 370.77 873.25 383.36 873.25"/><polygon class="cls-4" points="412.94 877.5 406.15 881.52 401.06 881.52 399.56 874.24 411.58 874.24 412.94 877.5"/><polygon class="cls-5" points="412.94 877.5 406.15 881.52 401.06 881.52 399.56 874.24 411.58 874.24 412.94 877.5"/><path class="cls-4" d="M354.75,872.27l-2.18,3.14L333,881.82l-4.52-3.46v-3.91a9,9,0,0,1,5.75-2.18Z"/><path class="cls-5" d="M354.75,872.27l-2.18,3.14L333,881.82l-4.52-3.46v-3.91a9,9,0,0,1,5.75-2.18Z"/><polygon class="cls-4" points="331.73 883.31 333 891.98 340.22 894.68 348.99 893.76 354.75 888.99 350.69 883.31 342.2 881.82 331.73 883.31"/><polygon class="cls-5" points="331.73 883.31 333 891.98 340.22 894.68 348.99 893.76 354.75 888.99 350.69 883.31 342.2 881.82 331.73 883.31"/><polygon class="cls-4" points="422.75 871.94 404.73 878.77 403.13 876.19 406.34 870.99 415.59 867.73 419.24 867.73 422.75 871.94"/><polygon class="cls-5" points="422.75 871.94 404.73 878.77 403.13 876.19 406.34 870.99 415.59 867.73 419.24 867.73 422.75 871.94"/><path class="cls-4" d="M379.65,887.13,377,888.21l-11.1,2.6-7.78-5.19,3.7-1.93,9.63-1.59,7.51,2.24a7.53,7.53,0,0,1,.68,2.79"/><path class="cls-5" d="M379.65,887.13,377,888.21l-11.1,2.6-7.78-5.19,3.7-1.93,9.63-1.59,7.51,2.24A7.53,7.53,0,0,1,379.65,887.13Z"/><path class="cls-4" d="M396.21,876.72l-3.15,1.94L379.8,883.3,370.51,874l4.42-3.46,11.5-2.83,9,4a19.51,19.51,0,0,1,.81,5"/><path class="cls-5" d="M396.21,876.72l-3.15,1.94L379.8,883.3,370.51,874l4.42-3.46,11.5-2.83,9,4A19.51,19.51,0,0,1,396.21,876.72Z"/><polygon class="cls-4" points="428.46 873.73 429.2 879.53 433.38 881.33 438.45 880.72 441.79 877.53 439.44 873.73 434.52 872.74 428.46 873.73"/><polygon class="cls-5" points="428.46 873.73 429.2 879.53 433.38 881.33 438.45 880.72 441.79 877.53 439.44 873.73 434.52 872.74 428.46 873.73"/><polygon class="cls-4" points="358.42 868.49 353.89 874.87 365.97 876.05 367.29 871.09 358.42 868.49"/><polygon class="cls-5" points="358.42 868.49 353.89 874.87 365.97 876.05 367.29 871.09 358.42 868.49"/><polygon class="cls-4" points="379.74 905.34 381.28 912.55 390.01 914.78 400.63 914.02 407.61 910.06 402.69 905.34 392.41 904.1 379.74 905.34"/><polygon class="cls-5" points="379.74 905.34 381.28 912.55 390.01 914.78 400.63 914.02 407.61 910.06 402.69 905.34 392.41 904.1 379.74 905.34"/><polygon class="cls-4" points="435.13 896.2 435.68 905.43 438.79 908.3 442.57 907.32 445.06 902.25 443.3 896.2 439.64 894.61 435.13 896.2"/><polygon class="cls-5" points="435.13 896.2 435.68 905.43 438.79 908.3 442.57 907.32 445.06 902.25 443.3 896.2 439.64 894.61 435.13 896.2"/><polygon class="cls-4" points="325.62 905.28 326.44 916.54 331.06 920.04 336.69 918.85 340.38 912.66 337.78 905.28 332.33 903.35 325.62 905.28"/><polygon class="cls-5" points="325.62 905.28 326.44 916.54 331.06 920.04 336.69 918.85 340.38 912.66 337.78 905.28 332.33 903.35 325.62 905.28"/><polygon class="cls-4" points="438.52 903.08 428.06 904.87 425.06 909.68 426.51 915.06 432.5 918.11 439.23 914.92 440.72 909.45 438.52 903.08"/><polygon class="cls-5" points="438.52 903.08 428.06 904.87 425.06 909.68 426.51 915.06 432.5 918.11 439.23 914.92 440.72 909.45 438.52 903.08"/><polygon class="cls-4" points="399.29 869.47 394.77 875.85 406.84 877.03 408.16 872.07 399.29 869.47"/><polygon class="cls-5" points="399.29 869.47 394.77 875.85 406.84 877.03 408.16 872.07 399.29 869.47"/><polygon class="cls-4" points="375.28 881.54 349.25 895.81 362.26 900.07 379.24 890.8 379.24 881.54 375.28 881.54"/><polygon class="cls-5" points="375.28 881.54 349.25 895.81 362.26 900.07 379.24 890.8 379.24 881.54 375.28 881.54"/><path class="cls-4" d="M328.72,875l0,2.58-1.35,10-6,4.16L321,888l1.65-8.44,3.81-5.15a5.66,5.66,0,0,1,2.23.59"/><path class="cls-5" d="M328.72,875l0,2.58-1.35,10-6,4.16L321,888l1.65-8.44,3.81-5.15A5.66,5.66,0,0,1,328.72,875Z"/><path class="cls-4" d="M440,881.83l-4,1.36-17,3.25-11.88-6.5,5.66-2.42,14.71-2,11.48,2.8a8,8,0,0,1,1,3.5"/><path class="cls-5" d="M440,881.83l-4,1.36-17,3.25-11.88-6.5,5.66-2.42,14.71-2,11.48,2.8A8,8,0,0,1,440,881.83Z"/><polygon class="cls-4" points="380.96 891.09 383.45 893.09 392.43 893.78 398.37 898.57 394.97 903.35 378.42 900.69 376.72 897.22 380.96 891.09"/><polygon class="cls-5" points="380.96 891.09 383.45 893.09 392.43 893.78 398.37 898.57 394.97 903.35 378.42 900.69 376.72 897.22 380.96 891.09"/><polygon class="cls-4" points="361.82 903.66 372.19 897.99 374.64 900.82 375.97 904.84 366.91 907.44 361.82 903.66"/><polygon class="cls-5" points="361.82 903.66 372.19 897.99 374.64 900.82 375.97 904.84 366.91 907.44 361.82 903.66"/><polygon class="cls-4" points="359.74 908.62 352.5 911.7 343.59 911.7 336.35 908.62 346.35 899.27 356.72 902.71 359.74 908.62"/><polygon class="cls-5" points="359.74 908.62 352.5 911.7 343.59 911.7 336.35 908.62 346.35 899.27 356.72 902.71 359.74 908.62"/><path class="cls-4" d="M330.31,891.09l-6.5.51v-6.33a15.79,15.79,0,0,1,.88-5.27l3.74,3.31Z"/><path class="cls-5" d="M330.31,891.09l-6.5.51v-6.33a15.79,15.79,0,0,1,.88-5.27l3.74,3.31Z"/><text class="cls-1" transform="translate(1458.73 60.26)">13</text><text class="cls-1" transform="translate(2050.56 644.4)">20</text><text class="cls-1" transform="translate(2643.84 644.4)">21</text><text class="cls-1" transform="translate(3012.48 943.92)">22</text><text class="cls-1" transform="translate(2643.84 1079.28)">23</text><text class="cls-1" transform="translate(1627.2 1684.08)">24</text><text class="cls-1" transform="translate(1175.04 1649.52)">25</text><text class="cls-1" transform="translate(2393.28 1502.64)">26</text><text class="cls-1" transform="translate(2154.24 1502.64)">27</text></g></g></svg>